<svg width="442" height="512" viewBox="0 0 442 512" fill="none" xmlns="http://www.w3.org/2000/svg">
<path d="M168.949 86.8853C169.117 88.2257 169.284 89.2309 169.284 90.2362C169.284 105.483 169.619 120.898 169.117 136.145C168.614 155.413 161.409 172 147.67 185.404C144.655 188.42 141.639 191.436 138.288 194.117C115.836 212.045 103.102 236.004 97.2381 263.65C89.3633 301.181 93.8869 337.037 113.49 370.211C132.423 402.213 161.074 420.141 197.265 426.173C234.796 432.372 269.646 425.168 300.14 401.878C325.273 382.778 339.179 356.472 344.876 325.978C351.913 288.95 346.887 253.764 327.451 221.092C320.079 208.861 310.193 198.808 299.47 189.425C287.239 179.037 277.521 166.974 274.338 150.722C273.332 145.36 272.495 139.998 272.327 134.469C271.992 119.725 272.16 104.981 272.16 90.0686C272.16 89.0633 272.327 88.0581 272.495 86.5501C274.338 86.8852 275.846 87.0528 277.521 87.3879C333.483 100.289 378.386 129.108 409.383 178.032C426.137 204.672 435.353 234.161 439.206 265.158C444.065 304.7 440.547 343.403 425.802 380.599C402.345 439.912 359.62 479.621 298.967 499.057C242.336 517.32 185.201 516.65 129.743 494.533C58.534 466.217 16.6467 413.104 3.7454 337.539C-3.45922 295.652 -0.44325 254.267 14.3011 214.223C36.9203 152.397 80.9856 113.023 142.811 92.7495C150.016 90.4038 157.388 88.8959 164.593 86.8853C166.101 87.2204 167.441 87.2204 168.949 86.8853Z" fill="url(#paint0_linear_471_558)"/>
<path d="M272.327 86.7183C237.645 80.0163 203.8 80.0163 169.452 86.7183C169.452 82.6971 169.117 79.1786 169.62 75.8276C170.29 71.4713 173.306 69.1257 177.662 68.4555C206.313 63.9317 234.964 63.9317 263.615 68.4555C268.809 69.2932 271.992 72.6442 272.327 77.8382C272.495 80.519 272.327 83.1998 272.327 86.7183Z" fill="url(#paint1_linear_471_558)"/>
<path d="M272.327 55.5537C237.644 48.8517 203.632 48.8517 169.284 55.5537C169.284 51.7 168.949 48.5166 169.284 45.3331C169.954 40.8093 172.97 38.1286 177.662 37.2908C201.621 33.4372 225.581 32.9345 249.708 35.4478C254.399 35.9504 258.923 36.6206 263.615 37.2908C268.976 38.1286 272.16 41.4795 272.327 47.0086C272.495 49.5219 272.327 52.0351 272.327 55.5537Z" fill="url(#paint2_linear_471_558)"/>
<path d="M201.621 19.5303C201.621 11.9906 204.972 6.62906 211.004 2.94297C217.874 -1.24576 224.911 -0.910647 231.445 3.61319C236.807 7.29927 239.823 12.4933 239.655 19.5303C227.089 19.5303 214.69 19.5303 201.621 19.5303Z" fill="url(#paint3_linear_471_558)"/>
<defs>
<linearGradient id="paint0_linear_471_558" x1="1.2751e-05" y1="-154.711" x2="715.964" y2="335.559" gradientUnits="userSpaceOnUse">
<stop stop-color="#FFD910"/>
<stop offset="1" stop-color="#FFCA10"/>
</linearGradient>
<linearGradient id="paint1_linear_471_558" x1="169.343" y1="52.7823" x2="191.934" y2="123.767" gradientUnits="userSpaceOnUse">
<stop stop-color="#FFD910"/>
<stop offset="1" stop-color="#FFCA10"/>
</linearGradient>
<linearGradient id="paint2_linear_471_558" x1="169.135" y1="21.6215" x2="191.685" y2="92.6256" gradientUnits="userSpaceOnUse">
<stop stop-color="#FFD910"/>
<stop offset="1" stop-color="#FFCA10"/>
</linearGradient>
<linearGradient id="paint3_linear_471_558" x1="201.621" y1="-11.0751" x2="235.786" y2="32.8604" gradientUnits="userSpaceOnUse">
<stop stop-color="#FFD910"/>
<stop offset="1" stop-color="#FFCA10"/>
</linearGradient>
</defs>
</svg>
