<svg width="622" height="438" viewBox="0 0 622 438" fill="none" xmlns="http://www.w3.org/2000/svg">
<path d="M317.668 417.072C336.376 417.072 351.541 401.918 351.541 383.225C351.541 364.531 336.376 349.377 317.668 349.377C298.96 349.377 283.795 364.531 283.795 383.225C283.795 401.918 298.96 417.072 317.668 417.072Z" fill="#FFCA10"/>
<path d="M520.029 435.17C538.98 429.483 559.127 423.553 574.156 410.034C587.585 397.953 596.652 379.506 591.088 361.389C585.536 343.308 568.906 331.252 551.735 325.256C541.997 321.855 531.808 319.969 521.624 318.487C510.552 316.875 499.432 315.555 488.317 314.285C443.311 309.141 398.136 305.999 352.791 304.858C330.417 304.295 308.046 304.309 285.669 304.634C265.684 304.923 244.636 304.916 226.096 296.429C211.679 289.829 198.594 277.821 194.577 262.042C189.94 243.827 198.493 225.278 210.763 212.086C217.23 205.133 224.789 199.28 232.586 193.899C241.045 188.061 249.799 182.636 258.743 177.573C276.358 167.604 294.774 159.121 313.799 152.21C323.185 148.8 332.71 145.858 342.317 143.144C350.43 140.852 358.568 138.557 366.409 135.435C381.566 129.398 395.982 119.173 399.836 102.41C403.489 86.5231 397.33 69.2763 386.534 57.4739C374.043 43.8195 355.208 37.8338 337.152 36.8653C316.881 35.7781 297.077 40.8475 278.023 47.2814C257.702 54.1435 237.818 62.0338 217.067 67.5921C196.49 73.0985 175.514 76.9945 154.331 79.2448C143.961 80.3482 133.278 81.5941 122.846 80.7494C114.104 80.0414 105.406 77.4722 98.9625 71.2724C93.4378 65.9563 90.1467 58.6503 91.2782 50.9402C91.4837 49.5398 93.6127 50.1351 93.4084 51.527C92.0311 60.9124 98.4157 69.5607 106.283 73.9908C115.376 79.1108 126.441 79.1178 136.565 78.5322C158.515 77.2075 180.317 74.0582 201.745 69.1171C222.8 64.3118 243.102 57.4424 263.382 50.1044C282.643 43.1351 302.334 36.3331 322.911 34.8236C340.765 33.5138 359.547 36.1129 375.101 45.4363C388.771 53.6303 398.824 67.2952 402.027 82.976C405.157 98.299 400.822 113.722 389.214 124.415C377.195 135.486 360.715 140.219 345.358 144.579C325.879 150.108 306.818 156.571 288.367 164.963C269.666 173.445 251.73 183.521 234.759 195.078C218.377 206.264 202.211 220.339 197.03 240.295C194.616 249.59 195.062 259.449 199.1 268.23C202.691 276.036 208.604 282.603 215.493 287.669C231.93 299.754 252.645 302.235 272.499 302.482C294.798 302.759 317.097 302.007 339.403 302.373C384.861 303.119 430.227 305.883 475.499 310.668C486.843 311.867 498.173 313.194 509.488 314.646C519.666 315.953 529.879 317.251 539.885 319.572C557.678 323.699 574.991 331.633 586.05 346.707C590.958 353.241 593.999 360.984 594.847 369.11C595.622 377.589 593.544 386.085 589.707 393.628C581.215 410.324 565.309 420.943 548.416 427.92C539.368 431.657 529.983 434.488 520.617 437.299C519.252 437.708 518.669 435.578 520.029 435.17Z" fill="#F2F2F2"/>
<path d="M92.7047 68.7984C102.465 68.7984 110.378 60.892 110.378 51.139C110.378 41.3859 102.465 33.4795 92.7047 33.4795C82.9441 33.4795 75.0316 41.3859 75.0316 51.139C75.0316 60.892 82.9441 68.7984 92.7047 68.7984Z" fill="#F2F2F2"/>
<path d="M215.311 102.278C225.072 102.278 232.985 94.3713 232.985 84.6182C232.985 74.8652 225.072 66.9587 215.311 66.9587C205.551 66.9587 197.638 74.8652 197.638 84.6182C197.638 94.3713 205.551 102.278 215.311 102.278Z" fill="#F2F2F2"/>
<path d="M319.141 35.3189C328.901 35.3189 336.814 27.4125 336.814 17.6595C336.814 7.90641 328.901 0 319.141 0C309.38 0 301.468 7.90641 301.468 17.6595C301.468 27.4125 309.38 35.3189 319.141 35.3189Z" fill="#F2F2F2"/>
<path d="M383.942 110.372C393.703 110.372 401.615 102.465 401.615 92.7122C401.615 82.9591 393.703 75.0527 383.942 75.0527C374.181 75.0527 366.269 82.9591 366.269 92.7122C366.269 102.465 374.181 110.372 383.942 110.372Z" fill="#F2F2F2"/>
<path d="M296.313 197.197C306.074 197.197 313.986 189.291 313.986 179.538C313.986 169.785 306.074 161.878 296.313 161.878C286.553 161.878 278.64 169.785 278.64 179.538C278.64 189.291 286.553 197.197 296.313 197.197Z" fill="#F2F2F2"/>
<path d="M185.12 239.139C194.881 239.139 202.793 231.232 202.793 221.479C202.793 211.726 194.881 203.82 185.12 203.82C175.36 203.82 167.447 211.726 167.447 221.479C167.447 231.232 175.36 239.139 185.12 239.139Z" fill="#F2F2F2"/>
<path d="M302.94 304.626C312.701 304.626 320.613 296.719 320.613 286.966C320.613 277.213 312.701 269.307 302.94 269.307C293.18 269.307 285.267 277.213 285.267 286.966C285.267 296.719 293.18 304.626 302.94 304.626Z" fill="#F2F2F2"/>
<path d="M429.597 341.416C439.358 341.416 447.27 333.51 447.27 323.757C447.27 314.004 439.358 306.097 429.597 306.097C419.837 306.097 411.924 314.004 411.924 323.757C411.924 333.51 419.837 341.416 429.597 341.416Z" fill="#F2F2F2"/>
<path d="M577.609 333.322C587.37 333.322 595.282 325.416 595.282 315.663C595.282 305.91 587.37 298.003 577.609 298.003C567.849 298.003 559.936 305.91 559.936 315.663C559.936 325.416 567.849 333.322 577.609 333.322Z" fill="#F2F2F2"/>
<path d="M314.039 50.0377C261.1 50.4114 217.754 93.399 217.002 146.294C216.995 146.782 216.991 150.216 216.992 154.707C216.992 161.292 219.61 167.608 224.27 172.264C228.93 176.921 235.25 179.537 241.84 179.538C245.107 179.537 248.342 178.893 251.359 177.643C254.377 176.393 257.119 174.56 259.427 172.251C261.736 169.941 263.567 167.2 264.815 164.183C266.063 161.166 266.704 157.934 266.701 154.669C266.699 151.614 266.697 149.499 266.697 149.37C266.695 141.195 268.823 133.16 272.872 126.057C276.92 118.953 282.749 113.024 289.786 108.855C296.823 104.685 304.825 102.417 313.005 102.275C321.185 102.132 329.261 104.12 336.439 108.043C343.616 111.965 349.649 117.687 353.942 124.646C358.236 131.604 360.643 139.56 360.926 147.73C361.209 155.9 359.359 164.003 355.557 171.241C351.756 178.48 346.134 184.605 339.245 189.015L339.254 189.025C339.254 189.025 303.887 211.776 293.104 242.986L293.113 242.988C291.218 249.382 290.257 256.016 290.261 262.685C290.261 265.426 290.423 289.41 290.734 308.877C290.843 315.594 293.591 321.999 298.383 326.71C303.176 331.42 309.63 334.06 316.353 334.058C319.731 334.058 323.076 333.39 326.195 332.094C329.314 330.797 332.145 328.897 334.526 326.503C336.908 324.109 338.791 321.268 340.07 318.143C341.348 315.019 341.995 311.672 341.974 308.297C341.866 290.469 341.808 269.71 341.808 268.203C341.808 249.039 360.309 229.945 375.507 217.493C393.008 203.154 405.601 183.614 410.659 161.572C411.779 157.034 412.396 152.387 412.5 147.714C412.5 134.827 409.948 122.068 404.991 110.171C400.034 98.2742 392.77 87.475 383.618 78.3956C374.466 69.3163 363.606 62.1363 351.665 57.2693C339.723 52.4024 326.936 49.9446 314.039 50.0377Z" fill="#FFCA10"/>
<path d="M462.776 200.873C474.976 200.873 484.867 190.99 484.867 178.799C484.867 166.608 474.976 156.725 462.776 156.725C450.575 156.725 440.684 166.608 440.684 178.799C440.684 190.99 450.575 200.873 462.776 200.873Z" fill="#232038"/>
<path d="M421.953 428.337H412.926L408.631 393.542H421.955L421.953 428.337Z" fill="#A0616A"/>
<path d="M406.477 425.759H423.888V436.713H395.515C395.515 435.274 395.798 433.85 396.349 432.521C396.9 431.192 397.708 429.985 398.726 428.967C399.743 427.95 400.952 427.143 402.282 426.593C403.612 426.042 405.038 425.759 406.477 425.759Z" fill="#232038"/>
<path d="M491.909 428.337H482.882L478.586 393.542H491.911L491.909 428.337Z" fill="#A0616A"/>
<path d="M476.433 425.759H493.844V436.713H465.471C465.471 435.274 465.754 433.85 466.305 432.521C466.856 431.192 467.664 429.985 468.681 428.967C469.699 427.95 470.908 427.143 472.238 426.593C473.568 426.042 474.993 425.759 476.433 425.759Z" fill="#232038"/>
<path d="M459.418 201.002C469.407 201.002 477.505 192.911 477.505 182.93C477.505 172.949 469.407 164.858 459.418 164.858C449.43 164.858 441.332 172.949 441.332 182.93C441.332 192.911 449.43 201.002 459.418 201.002Z" fill="#A0616A"/>
<path d="M470.198 259.304L478.291 240.725C480.257 236.366 480.82 231.506 479.903 226.814C478.986 222.122 476.635 217.83 473.173 214.53C472.462 213.828 471.707 213.172 470.912 212.565C466.919 209.444 461.999 207.743 456.929 207.731C453.52 207.744 450.154 208.492 447.061 209.924C446.796 210.042 446.539 210.167 446.273 210.292C445.765 210.535 445.265 210.8 444.779 211.072C441.609 212.891 438.911 215.428 436.902 218.481C434.894 221.533 433.632 225.014 433.217 228.643L429.646 258.546C428.748 260.894 396.701 345.659 407.908 410.374C408.028 411.065 408.365 411.7 408.871 412.185C409.377 412.671 410.025 412.983 410.721 413.074L422.084 414.619C422.913 414.733 423.755 414.528 424.44 414.046C425.124 413.564 425.6 412.841 425.773 412.022L444.838 321.215C444.956 320.651 445.261 320.143 445.703 319.772C446.145 319.401 446.698 319.189 447.275 319.17C447.851 319.15 448.418 319.325 448.884 319.665C449.35 320.005 449.688 320.491 449.845 321.046L476.782 416.54C476.974 417.233 477.388 417.845 477.961 418.281C478.534 418.717 479.235 418.953 479.955 418.953C480.17 418.952 480.385 418.932 480.596 418.894L494.477 416.223C495.284 416.073 496.005 415.626 496.5 414.971C496.994 414.317 497.226 413.501 497.15 412.684C495.11 389.955 484.27 276.103 470.198 259.304Z" fill="#232038"/>
<path d="M389.131 197.97C389.005 199.044 389.117 200.133 389.458 201.16C389.8 202.186 390.362 203.126 391.106 203.912C391.849 204.697 392.757 205.311 393.763 205.709C394.77 206.106 395.852 206.279 396.932 206.213L407.042 230.49L414.689 219.162L403.917 197.846C403.687 196.039 402.801 194.38 401.429 193.182C400.056 191.983 398.291 191.33 396.469 191.345C394.646 191.361 392.893 192.044 391.54 193.264C390.188 194.485 389.331 196.16 389.131 197.97Z" fill="#A0616A"/>
<path d="M458.416 283.748C459.491 283.62 460.524 283.257 461.444 282.687C462.363 282.116 463.147 281.351 463.738 280.445C464.33 279.539 464.715 278.514 464.868 277.444C465.02 276.373 464.936 275.281 464.621 274.246L485.891 258.766L473.085 253.974L454.85 269.409C453.145 270.054 451.736 271.301 450.89 272.914C450.044 274.527 449.82 276.394 450.259 278.161C450.699 279.929 451.772 281.474 453.275 282.503C454.778 283.533 456.607 283.976 458.416 283.748Z" fill="#A0616A"/>
<path d="M423.741 246.674C422.925 246.673 422.112 246.593 421.312 246.435C419.377 246.067 417.563 245.229 416.029 243.995C414.494 242.761 413.287 241.169 412.514 239.359L398.35 222.102C398.051 221.737 397.833 221.313 397.711 220.857C397.589 220.401 397.566 219.924 397.644 219.459C397.721 218.993 397.897 218.55 398.16 218.158C398.423 217.766 398.767 217.435 399.169 217.186L409.245 210.953C409.617 210.723 410.031 210.569 410.463 210.5C410.895 210.43 411.337 210.447 411.762 210.549C412.188 210.651 412.589 210.836 412.943 211.094C413.296 211.351 413.595 211.676 413.822 212.05L423.805 228.484L442.922 214.366C444.444 213.568 446.203 213.345 447.876 213.736C449.55 214.127 451.027 215.106 452.037 216.496C453.048 217.885 453.524 219.591 453.38 221.302C453.235 223.014 452.48 224.616 451.251 225.816L432.17 243.208C429.927 245.429 426.898 246.675 423.741 246.674Z" fill="#232038"/>
<path d="M475.398 272.628C475.372 272.628 475.346 272.628 475.32 272.627C474.855 272.616 474.398 272.507 473.978 272.308C473.558 272.109 473.185 271.824 472.882 271.472L463.923 261.028C463.618 260.673 463.392 260.256 463.26 259.807C463.127 259.357 463.092 258.885 463.156 258.421C463.22 257.957 463.382 257.511 463.631 257.115C463.88 256.718 464.211 256.378 464.601 256.118L481.377 244.943L466.179 226.686C465.295 225.213 464.97 223.472 465.265 221.78C465.56 220.088 466.454 218.558 467.784 217.471C469.114 216.383 470.791 215.81 472.51 215.856C474.228 215.902 475.872 216.564 477.141 217.722L495.612 235.758C497.066 237.085 498.176 238.745 498.846 240.595C499.517 242.445 499.728 244.43 499.462 246.379C499.196 248.329 498.46 250.184 497.318 251.787C496.176 253.39 494.662 254.692 492.906 255.581L477.809 271.588C477.499 271.916 477.126 272.178 476.711 272.357C476.296 272.535 475.849 272.628 475.398 272.628Z" fill="#232038"/>
<path d="M454.82 234.146C454.676 234.146 454.532 234.136 454.39 234.118C453.766 234.043 453.177 233.79 452.693 233.389C452.208 232.989 451.849 232.458 451.657 231.86L444.925 211.236C444.757 210.715 444.782 210.15 444.998 209.646C445.214 209.142 445.605 208.733 446.099 208.495L446.317 208.392C446.516 208.298 446.712 208.205 446.912 208.116C450.051 206.661 453.468 205.902 456.929 205.892C461.421 205.9 465.813 207.219 469.566 209.686C470.069 210.021 470.421 210.539 470.545 211.13C470.669 211.721 470.556 212.337 470.23 212.846L457.601 232.615C457.305 233.085 456.894 233.471 456.408 233.739C455.922 234.007 455.375 234.147 454.82 234.146Z" fill="#E6E6E6"/>
<path d="M480.193 168.944C484.185 168.944 487.421 165.71 487.421 161.721C487.421 157.732 484.185 154.498 480.193 154.498C476.2 154.498 472.964 157.732 472.964 161.721C472.964 165.71 476.2 168.944 480.193 168.944Z" fill="#232038"/>
<path d="M455.412 153.781C450.334 153.781 445.464 155.797 441.874 159.385C438.283 162.973 436.266 167.839 436.266 172.913V181.007H446.229L450.994 172.913L452.423 181.007H482.658L474.558 172.913C474.558 167.839 472.541 162.973 468.95 159.385C465.36 155.797 460.49 153.781 455.412 153.781Z" fill="#232038"/>
<path d="M483.908 156.773C484.707 154.276 486.362 152.139 488.582 150.74C490.802 149.341 493.444 148.769 496.044 149.124C500.651 149.894 504.293 153.594 506.463 157.727C508.634 161.859 509.636 166.485 511.095 170.918C512.554 175.352 514.623 179.809 518.306 182.679C521.989 185.549 527.641 186.328 531.259 183.375C530.845 186.452 529.475 189.321 527.34 191.577C525.205 193.833 522.415 195.361 519.364 195.945C516.313 196.529 513.155 196.14 510.337 194.833C507.519 193.525 505.184 191.366 503.661 188.659C501.753 185.266 501.26 181.289 500.694 177.438C500.128 173.586 499.393 169.601 497.114 166.444C494.835 163.287 490.569 161.225 486.949 162.663L483.908 156.773Z" fill="#232038"/>
<path d="M248.856 167.793C242.266 167.792 235.946 165.176 231.286 160.519C226.626 155.863 224.008 149.548 224.008 142.962C224.007 138.471 224.011 135.037 224.018 134.549C224.227 119.166 228.104 104.054 235.327 90.4675C223.46 106.702 216.934 126.22 216.654 146.322C216.647 146.81 216.644 150.244 216.644 154.735C216.644 161.321 219.263 167.636 223.922 172.292C228.582 176.949 234.902 179.565 241.493 179.566C246.908 179.564 252.175 177.796 256.492 174.53C260.81 171.264 263.943 166.679 265.416 161.472C260.866 165.549 254.968 167.801 248.856 167.793Z" fill="#232038"/>
<path d="M315.724 102.358C323.343 102.722 330.759 104.927 337.337 108.786C343.914 112.645 349.457 118.041 353.487 124.511C357.518 130.981 359.917 138.333 360.479 145.933C361.04 153.534 359.747 161.158 356.71 168.149C361.102 162.995 364.331 156.954 366.175 150.44C368.02 143.925 368.437 137.09 367.398 130.4C366.359 123.71 363.888 117.323 360.155 111.673C356.422 106.024 351.513 101.245 345.764 97.6627C340.015 94.0806 333.56 91.7793 326.84 90.9157C320.12 90.0521 313.293 90.6466 306.824 92.6585C300.355 94.6704 294.396 98.0526 289.353 102.574C284.311 107.096 280.303 112.651 277.604 118.861C282.269 113.377 288.133 109.037 294.742 106.176C301.351 103.315 308.53 102.009 315.724 102.358Z" fill="#232038"/>
<path d="M323.369 322.313C316.646 322.315 310.192 319.676 305.399 314.965C300.607 310.254 297.859 303.849 297.75 297.132C297.439 277.665 297.277 253.681 297.277 250.94C297.273 244.271 298.234 237.637 300.13 231.244L300.121 231.241C301.24 228.032 302.592 224.909 304.166 221.896C299.334 228.33 295.489 235.448 292.757 243.014L292.766 243.017C290.87 249.41 289.909 256.044 289.913 262.713C289.913 265.454 290.075 289.438 290.387 308.905C290.496 315.622 293.243 322.027 298.036 326.738C302.828 331.449 309.282 334.088 316.005 334.086C321.548 334.085 326.942 332.289 331.376 328.966C335.811 325.643 339.048 320.972 340.601 315.655C335.891 319.947 329.744 322.322 323.369 322.313Z" fill="#232038"/>
<path d="M93.1819 428.672L102.209 428.672L106.504 393.877L93.1797 393.877L93.1819 428.672Z" fill="#FFB8B8"/>
<path d="M119.621 437.048L91.2475 437.049L91.247 426.095L108.658 426.094C111.565 426.094 114.354 427.248 116.409 429.302C118.465 431.357 119.62 434.143 119.621 437.048Z" fill="#232038"/>
<path d="M60.7814 428.672L69.8086 428.672L74.1039 393.877L60.7792 393.877L60.7814 428.672Z" fill="#FFB8B8"/>
<path d="M87.22 437.048L58.8468 437.049L58.8463 426.095L76.2571 426.094C79.1645 426.094 81.9529 427.248 84.0088 429.302C86.0647 431.357 87.2198 434.143 87.22 437.048Z" fill="#232038"/>
<path d="M68.6703 417.971L59.8522 417.508C59.3975 417.484 58.9521 417.37 58.5417 417.173C58.1313 416.976 57.7642 416.699 57.4616 416.359C57.1589 416.019 56.9268 415.623 56.7787 415.193C56.6305 414.762 56.5693 414.307 56.5985 413.853L67.1381 297.252L115.673 310.339L120.35 309.064L105.726 412.287C105.602 413.064 105.216 413.774 104.632 414.302C104.049 414.83 103.303 415.143 102.517 415.19L93.0113 415.632C92.536 415.659 92.0604 415.586 91.6145 415.419C91.1687 415.253 90.7622 414.996 90.4209 414.664C90.0797 414.332 89.8109 413.933 89.6317 413.493C89.4525 413.052 89.3668 412.579 89.3799 412.104L91.1023 350.151C91.1103 349.864 91.0107 349.585 90.8231 349.369C90.6354 349.152 90.3733 349.013 90.0884 348.98C89.8036 348.947 89.5166 349.021 89.284 349.189C89.0514 349.357 88.8901 349.605 88.8319 349.886L72.2215 415.235C72.0647 416.01 71.6436 416.708 71.0301 417.207C70.4165 417.707 69.6485 417.979 68.8568 417.976C68.7951 417.976 68.7329 417.975 68.6703 417.971Z" fill="#232038"/>
<path d="M94.8027 201.847C104.791 201.847 112.889 193.756 112.889 183.775C112.889 173.794 104.791 165.703 94.8027 165.703C84.814 165.703 76.7166 173.794 76.7166 183.775C76.7166 193.756 84.814 201.847 94.8027 201.847Z" fill="#FFB8B8"/>
<path d="M64.6905 236.871L66.6791 279.744L67.398 295.343C67.4267 296.022 67.6574 296.677 68.0607 297.224C68.464 297.771 69.0215 298.186 69.6619 298.415L116.301 315.297C116.678 315.437 117.077 315.507 117.479 315.503C117.938 315.505 118.393 315.415 118.817 315.238C119.241 315.06 119.624 314.799 119.945 314.471C120.266 314.142 120.516 313.752 120.683 313.324C120.849 312.896 120.928 312.439 120.913 311.98L119.001 234.891C118.876 228.567 116.546 222.484 112.413 217.692C108.28 212.899 102.604 209.698 96.3622 208.64C95.911 208.571 95.4521 208.502 94.9931 208.441C91.1228 207.961 87.1942 208.334 83.4838 209.534C79.7733 210.735 76.3712 212.733 73.5166 215.388C70.5608 218.104 68.2383 221.437 66.7131 225.149C65.188 228.861 64.4975 232.862 64.6905 236.871Z" fill="#CCCCCC"/>
<path d="M138.581 306.742C137.477 306.4 136.47 305.805 135.637 305.004C134.805 304.204 134.172 303.22 133.788 302.132C133.404 301.044 133.28 299.881 133.425 298.736C133.571 297.591 133.983 296.496 134.627 295.538L118.811 274.523L132.459 273.679L145.386 293.765C146.77 294.834 147.733 296.356 148.106 298.063C148.479 299.771 148.239 301.555 147.427 303.104C146.615 304.652 145.283 305.865 143.666 306.53C142.048 307.195 140.248 307.27 138.581 306.742Z" fill="#FFB8B8"/>
<path d="M127.46 291.735C127.041 291.565 126.66 291.314 126.339 290.996C126.018 290.678 125.763 290.299 125.589 289.882L101.761 233.155C101.294 232.045 101.05 230.853 101.043 229.648C101.037 228.443 101.268 227.249 101.724 226.133C102.18 225.017 102.851 224.003 103.7 223.146C104.548 222.29 105.557 221.61 106.669 221.143C107.781 220.677 108.974 220.434 110.18 220.429C111.386 220.423 112.581 220.655 113.697 221.112C114.813 221.568 115.828 222.24 116.684 223.088C117.54 223.937 118.221 224.945 118.686 226.057L142.514 282.784C142.866 283.626 142.87 284.572 142.525 285.416C142.18 286.26 141.514 286.932 140.673 287.286L130.095 291.722C129.678 291.899 129.231 291.99 128.779 291.993C128.327 291.995 127.878 291.907 127.46 291.735Z" fill="#CCCCCC"/>
<path d="M88.9879 289.734L111.874 245.947C112.315 245.105 113.073 244.472 113.981 244.187C114.888 243.903 115.872 243.99 116.716 244.429L149.935 261.764C150.777 262.205 151.411 262.962 151.696 263.869C151.98 264.776 151.894 265.759 151.454 266.602L128.568 310.39C128.127 311.232 127.369 311.864 126.461 312.149C125.554 312.434 124.57 312.347 123.726 311.908L90.5074 294.572C89.6646 294.131 89.0314 293.374 88.7465 292.467C88.4616 291.56 88.5484 290.577 88.9879 289.734Z" fill="#232038"/>
<path d="M104.336 269.729C103.929 268.649 103.275 267.679 102.427 266.896C101.578 266.113 100.558 265.539 99.4477 265.221C98.3376 264.902 97.1684 264.847 96.0332 265.059C94.8981 265.272 93.8284 265.748 92.9097 266.447L70.9815 251.912L70.9442 265.575L91.7733 277.284C92.9231 278.601 94.5003 279.471 96.2283 279.743C97.9564 280.014 99.7249 279.669 101.224 278.768C102.722 277.866 103.856 276.467 104.425 274.814C104.994 273.161 104.963 271.361 104.336 269.729Z" fill="#FFB8B8"/>
<path d="M76.6115 272.802L58.6904 258.617C56.7517 257.966 54.9999 256.856 53.5854 255.38C52.171 253.904 51.136 252.107 50.5695 250.143C50.0029 248.18 49.9217 246.108 50.3328 244.106C50.7438 242.105 51.6349 240.232 52.9294 238.651L69.2013 217.342C70.332 215.961 71.9223 215.033 73.6814 214.727C75.4405 214.422 77.2508 214.759 78.7816 215.677C80.3124 216.596 81.4613 218.034 82.0183 219.729C82.5753 221.424 82.5032 223.263 81.8151 224.909L68.9404 245.953L87.8609 254.921C88.3009 255.129 88.6916 255.428 89.0071 255.799C89.3227 256.17 89.556 256.603 89.6916 257.07C89.8272 257.537 89.862 258.028 89.7937 258.51C89.7254 258.992 89.5556 259.454 89.2955 259.865L81.658 271.943C81.3998 272.35 81.0588 272.699 80.6571 272.967C80.2554 273.234 79.8019 273.415 79.3261 273.496C79.3072 273.499 79.2881 273.502 79.2691 273.505C78.8016 273.576 78.3245 273.55 77.8673 273.429C77.4102 273.308 76.9828 273.094 76.6115 272.802Z" fill="#CCCCCC"/>
<path d="M81.1363 195.877C81.0587 195.65 81.0341 195.408 81.0643 195.171C81.0946 194.933 81.1789 194.705 81.3109 194.505C81.4428 194.305 81.6189 194.137 81.8256 194.016C82.0322 193.894 82.2641 193.821 82.5033 193.803C82.9931 193.829 83.4725 193.955 83.9124 194.172C84.3524 194.388 84.7438 194.692 85.063 195.064C85.7175 195.819 86.4795 196.472 87.3245 197.005C88.1994 197.446 89.386 197.383 89.8848 196.543C90.3532 195.754 90.0322 194.697 89.7487 193.781C89.0272 191.449 88.6235 189.031 88.5485 186.592C88.4668 183.869 88.8512 181.028 90.3598 178.904C92.3066 176.163 95.7879 175.123 99.0825 175.198C102.377 175.274 105.618 176.29 108.882 176.932C110.008 177.154 111.332 177.268 112.086 176.395C112.887 175.467 112.593 173.966 112.252 172.713C111.368 169.463 110.43 166.102 108.375 163.477C106.153 160.749 102.98 158.964 99.4935 158.481C96.1466 158.067 92.749 158.452 89.5802 159.605C84.4173 161.231 79.8744 164.394 76.5589 168.67C73.1411 173.217 71.6643 178.931 72.4513 184.563C73.2202 189.469 75.8215 193.9 79.731 196.965L81.1363 195.877Z" fill="#232038"/>
<path d="M310.205 408.816C305.393 406.722 301.134 403.539 297.764 399.518C294.394 395.498 292.005 390.749 290.786 385.648C289.567 380.547 289.552 375.233 290.74 370.125C291.929 365.017 294.289 360.254 297.635 356.214C293.755 359.044 290.523 362.666 288.152 366.84C285.781 371.014 284.325 375.644 283.881 380.424C283.438 385.203 284.017 390.021 285.58 394.56C287.142 399.098 289.653 403.253 292.946 406.747C296.238 410.242 300.237 412.997 304.676 414.83C309.116 416.662 313.894 417.53 318.695 417.376C323.496 417.222 328.209 416.049 332.522 413.936C336.834 411.823 340.648 408.817 343.709 405.119C338.934 408.606 333.329 410.782 327.45 411.431C321.572 412.079 315.626 411.178 310.205 408.816Z" fill="#232038"/>
</svg>
