<svg width="238" height="453" viewBox="0 0 238 453" fill="none" xmlns="http://www.w3.org/2000/svg">
<g clip-path="url(#clip0_585_541)">
<g opacity="0.4">
<path d="M-2.67548 375.734C-2.52739 374.55 -2.37947 373.661 -2.37947 372.773C-2.37947 359.297 -2.08321 345.673 -2.52748 332.197C-2.97174 315.167 -9.33949 300.506 -21.4826 288.659C-24.1482 285.993 -26.8137 283.328 -29.7755 280.958C-49.6192 265.113 -60.8738 243.937 -66.0568 219.502C-73.0169 186.331 -69.0188 154.64 -51.6926 125.319C-34.9587 97.0341 -9.63577 81.1887 22.3511 75.8575C55.5226 70.3783 86.3248 76.7461 113.277 97.3303C135.49 114.212 147.781 137.462 152.816 164.414C159.036 197.141 154.593 228.239 137.415 257.116C130.899 267.927 122.162 276.812 112.684 285.105C101.874 294.286 93.285 304.949 90.4713 319.313C89.5828 324.052 88.8424 328.791 88.6943 333.678C88.3981 346.709 88.5461 359.741 88.5461 372.921C88.5461 373.809 88.6942 374.698 88.8423 376.031C90.4713 375.734 91.8041 375.586 93.285 375.29C142.746 363.887 182.433 338.416 209.83 295.175C224.638 271.629 232.783 245.566 236.189 218.169C240.484 183.221 237.374 149.013 224.342 116.137C203.61 63.7144 165.848 28.6177 112.24 11.4396C62.1866 -4.70191 11.6888 -4.10961 -37.3281 15.4379C-100.265 40.4647 -137.287 87.4084 -148.69 154.196C-155.057 191.218 -152.392 227.795 -139.36 263.188C-119.368 317.832 -80.4215 352.633 -25.7773 370.551C-19.4095 372.624 -12.8936 373.957 -6.52589 375.734C-5.19312 375.438 -4.00827 375.438 -2.67548 375.734Z" fill="#191531"/>
<path d="M88.6953 375.882C58.0412 381.806 28.1276 381.806 -2.23027 375.882C-2.23027 379.437 -2.52652 382.546 -2.08226 385.508C-1.48991 389.358 1.1756 391.432 5.02586 392.024C30.3488 396.022 55.6718 396.022 80.9947 392.024C85.5854 391.284 88.3991 388.322 88.6953 383.731C88.8434 381.362 88.6953 378.992 88.6953 375.882Z" fill="#191531"/>
<path d="M88.6936 403.427C58.0395 409.35 27.9777 409.35 -2.38021 403.427C-2.38021 406.833 -2.67638 409.646 -2.38021 412.46C-1.78786 416.458 0.877712 418.828 5.02416 419.568C26.2006 422.974 47.3772 423.418 68.7017 421.197C72.8482 420.753 76.8465 420.16 80.993 419.568C85.7318 418.828 88.5455 415.866 88.6936 410.979C88.8417 408.758 88.6936 406.536 88.6936 403.427Z" fill="#191531"/>
<path d="M26.2017 435.264C26.2017 441.928 29.1634 446.667 34.4945 449.925C40.5661 453.627 46.7858 453.331 52.5612 449.332C57.3 446.074 59.9656 441.484 59.8175 435.264C48.711 435.264 37.7525 435.264 26.2017 435.264Z" fill="#191531"/>
</g>
</g>
<defs>
<clipPath id="clip0_585_541">
<rect width="238" height="453" fill="white"/>
</clipPath>
</defs>
</svg>
