<svg width="13" height="14" viewBox="0 0 13 14" fill="none" xmlns="http://www.w3.org/2000/svg">
<g clip-path="url(#clip0_253_5756)">
<path d="M9.481 0.0830078H3.51898C1.57858 0.0830078 0 1.66159 0 3.60198V9.56411C0 11.5044 1.57858 13.083 3.51898 13.083H9.4811C11.4214 13.083 13 11.5044 13 9.56411V3.60198C13 1.66159 11.4214 0.0830078 9.481 0.0830078V0.0830078ZM12.2379 9.56411C12.2379 11.0842 11.0012 12.3209 9.481 12.3209H3.51898C1.99881 12.3209 0.762114 11.0842 0.762114 9.56411V3.60198C0.762114 2.08182 1.99881 0.845122 3.51898 0.845122H9.4811C11.0012 0.845122 12.2379 2.08182 12.2379 3.60198V9.56411Z" fill="#101237"/>
<path d="M6.49989 3.02832C4.53986 3.02832 2.94531 4.62287 2.94531 6.5829C2.94531 8.54293 4.53986 10.1375 6.49989 10.1375C8.45993 10.1375 10.0545 8.54293 10.0545 6.5829C10.0545 4.62287 8.45993 3.02832 6.49989 3.02832ZM6.49989 9.37537C4.96019 9.37537 3.70743 8.1227 3.70743 6.5829C3.70743 5.0432 4.96019 3.79043 6.49989 3.79043C8.03969 3.79043 9.29236 5.0432 9.29236 6.5829C9.29236 8.1227 8.03969 9.37537 6.49989 9.37537Z" fill="#101237"/>
<path d="M10.1394 1.76611C9.56023 1.76611 9.08911 2.23733 9.08911 2.81645C9.08911 3.39567 9.56023 3.86689 10.1394 3.86689C10.7187 3.86689 11.1899 3.39567 11.1899 2.81645C11.1899 2.23723 10.7187 1.76611 10.1394 1.76611ZM10.1394 3.10467C9.98056 3.10467 9.85122 2.97534 9.85122 2.81645C9.85122 2.65746 9.98056 2.52823 10.1394 2.52823C10.2984 2.52823 10.4278 2.65746 10.4278 2.81645C10.4278 2.97534 10.2984 3.10467 10.1394 3.10467Z" fill="#101237"/>
</g>
<defs>
<clipPath id="clip0_253_5756">
<rect width="13" height="13" fill="white" transform="translate(0 0.0830078)"/>
</clipPath>
</defs>
</svg>
