<svg width="11" height="12" viewBox="0 0 11 12" fill="none" xmlns="http://www.w3.org/2000/svg">
<g clip-path="url(#clip0_253_5770)">
<path d="M10.9973 11.083V11.0826H11.0001V7.04832C11.0001 5.07474 10.5752 3.55444 8.26795 3.55444C7.15879 3.55444 6.41445 4.16311 6.11058 4.74015H6.07849V3.73869H3.89087V11.0826H6.16879V7.44615C6.16879 6.48869 6.35029 5.56286 7.536 5.56286C8.70429 5.56286 8.7217 6.65553 8.7217 7.50757V11.083H10.9973Z" fill="#101237"/>
<path d="M0.181396 3.73901H2.46206V11.0829H0.181396V3.73901Z" fill="#101237"/>
<path d="M1.32092 0.0830078C0.591708 0.0830078 0 0.674716 0 1.40392C0 2.13313 0.591708 2.73722 1.32092 2.73722C2.05013 2.73722 2.64183 2.13313 2.64183 1.40392C2.64138 0.674716 2.04967 0.0830078 1.32092 0.0830078V0.0830078Z" fill="#101237"/>
</g>
<defs>
<clipPath id="clip0_253_5770">
<rect width="11" height="11" fill="white" transform="translate(0 0.0830078)"/>
</clipPath>
</defs>
</svg>
