<svg width="129" height="44" viewBox="0 0 129 44" fill="none" xmlns="http://www.w3.org/2000/svg">
<path d="M0 0.0556641C1.11 0.0556641 2.23 0.0556641 3.44 0.0556641C3.44 0.385664 3.44 0.655667 3.44 0.925667C3.44 6.16567 3.43 11.4057 3.44 16.6457C3.45 19.7457 5.08 22.2157 7.73 23.1657C12.17 24.7657 16.7 21.6357 16.72 16.9157C16.75 11.6057 16.73 6.29567 16.74 0.995667C16.74 0.715667 16.74 0.445669 16.74 0.115669C17.86 0.115669 18.94 0.115669 20.09 0.115669C20.11 0.325669 20.14 0.545671 20.14 0.765671C20.14 6.09567 20.16 11.4257 20.14 16.7557C20.12 21.8457 16.81 25.8657 11.93 26.8157C6.49 27.8757 1.07 24.1157 0.150002 18.6557C0.120002 18.4757 0.0500021 18.3057 0.0100021 18.1357C2.13645e-06 12.1157 0 6.08566 0 0.0556641Z" fill="#232038"/>
<path d="M64.62 7.86571C63.47 7.95571 62.39 8.0357 61.28 8.1257C61.21 7.8057 61.16 7.5457 61.1 7.2757C60.68 5.3657 59.57 4.07571 57.67 3.54571C55.79 3.02571 53.89 3.0757 52.02 3.5657C50.8 3.8857 49.83 4.6057 49.3 5.7757C48.52 7.4657 49.4 9.39571 51.36 10.0357C53.41 10.7057 55.53 11.1357 57.59 11.7657C59.09 12.2257 60.64 12.6657 61.99 13.4257C65.98 15.6757 66.6 20.9157 63.37 24.1757C61.58 25.9757 59.35 26.7957 56.86 26.9357C53.85 27.1057 50.9 26.8657 48.3 25.1157C45.89 23.4857 44.79 21.1357 44.62 18.2057C45.73 18.0957 46.81 17.9957 47.92 17.8857C47.98 18.1857 48.05 18.4557 48.1 18.7257C48.5 20.8557 49.69 22.3757 51.73 23.1157C54.37 24.0757 57.04 24.2057 59.66 22.9857C61.38 22.1857 62.26 20.5557 61.95 18.8057C61.73 17.5157 60.9 16.6757 59.76 16.2157C58.52 15.7157 57.22 15.3557 55.93 14.9557C53.81 14.3057 51.61 13.8257 49.56 12.9957C47.12 12.0057 45.63 10.1057 45.64 7.36571C45.65 4.60571 46.9 2.45571 49.43 1.28571C53.31 -0.504294 57.26 -0.424295 61.02 1.60571C63.4 2.89571 64.46 5.11571 64.62 7.86571Z" fill="#232038"/>
<path d="M25.77 33.7956C24.56 33.7956 23.48 33.7956 22.35 33.7956C22.34 33.5656 22.31 33.3656 22.31 33.1656C22.31 27.7656 22.29 22.3656 22.31 16.9656C22.33 12.2056 25.68 8.0956 30.3 7.1256C36.59 5.8056 42.56 10.6856 42.43 17.0856C42.35 21.2056 40.35 24.2456 36.69 26.0056C33.04 27.7556 29.47 27.2856 26.19 24.8556C26.08 24.7756 25.98 24.6956 25.76 24.5356C25.77 27.6756 25.77 30.6956 25.77 33.7956ZM25.76 16.9556C25.76 20.6556 28.69 23.5856 32.39 23.5856C36.08 23.5856 39.04 20.6356 39.04 16.9556C39.04 13.2756 36.09 10.3456 32.39 10.3456C28.66 10.3356 25.76 13.2356 25.76 16.9556Z" fill="#232038"/>
<path d="M71.05 24.5057C71.05 27.6957 71.05 30.7157 71.05 33.7857C69.89 33.7857 68.81 33.7857 67.67 33.7857C67.65 33.5757 67.62 33.3857 67.62 33.1857C67.62 27.7657 67.6 22.3357 67.63 16.9157C67.65 12.1457 71.04 8.06567 75.73 7.09567C81.12 5.98567 86.64 9.68567 87.59 15.0557C88.59 20.6957 84.82 26.0857 79.26 26.8757C76.39 27.2857 73.77 26.6257 71.47 24.8257C71.39 24.7557 71.3 24.6957 71.05 24.5057ZM71.07 16.9557C71.08 20.6557 74.01 23.5857 77.7 23.5757C81.39 23.5657 84.35 20.6157 84.35 16.9457C84.35 13.2657 81.4 10.3357 77.69 10.3357C73.97 10.3357 71.07 13.2457 71.07 16.9557Z" fill="#232038"/>
<path d="M128.63 30.2857C128.63 31.4157 128.63 32.4957 128.63 33.7857C127.53 33.5657 126.44 33.4657 125.43 33.1357C121.5 31.8657 118.67 28.0857 118.62 23.9557C118.56 18.3257 118.6 12.6956 118.6 7.05565C118.6 6.98565 118.62 6.91565 118.63 6.79565C119.73 6.79565 120.83 6.79565 122.02 6.79565C122.02 10.6757 122.02 14.5557 122.02 18.5057C124.26 18.5057 126.41 18.5057 128.61 18.5057C128.61 19.6557 128.61 20.7357 128.61 21.8957C126.44 21.8957 124.27 21.8957 122.12 21.8957C121.38 27.0457 124.76 30.1657 128.63 30.2857Z" fill="#232038"/>
<path d="M99.93 5.18565C99.94 5.26565 99.95 5.32565 99.95 5.38565C99.95 6.29565 99.97 7.21565 99.94 8.12565C99.91 9.27565 99.48 10.2657 98.66 11.0657C98.48 11.2457 98.3 11.4257 98.1 11.5857C96.76 12.6557 96 14.0856 95.65 15.7356C95.18 17.9756 95.45 20.1156 96.62 22.0956C97.75 24.0056 99.46 25.0757 101.62 25.4357C103.86 25.8057 105.94 25.3756 107.76 23.9856C109.26 22.8456 110.09 21.2757 110.43 19.4557C110.85 17.2457 110.55 15.1456 109.39 13.1956C108.95 12.4656 108.36 11.8656 107.72 11.3056C106.99 10.6856 106.41 9.96565 106.22 8.99565C106.16 8.67565 106.11 8.35565 106.1 8.02565C106.08 7.14565 106.09 6.26565 106.09 5.37565C106.09 5.31565 106.1 5.25565 106.11 5.16565C106.22 5.18565 106.31 5.19565 106.41 5.21565C109.75 5.98565 112.43 7.70565 114.28 10.6256C115.28 12.2156 115.83 13.9757 116.06 15.8257C116.35 18.1857 116.14 20.4957 115.26 22.7157C113.86 26.2557 111.31 28.6257 107.69 29.7857C104.31 30.8757 100.9 30.8357 97.59 29.5157C93.34 27.8257 90.84 24.6557 90.07 20.1457C89.64 17.6457 89.82 15.1757 90.7 12.7857C92.05 9.09565 94.68 6.74565 98.37 5.53565C98.8 5.39565 99.24 5.30565 99.67 5.18565C99.76 5.20565 99.84 5.20565 99.93 5.18565Z" fill="url(#paint0_linear_341_553)"/>
<path d="M106.1 5.17568C104.03 4.77568 102.01 4.77568 99.96 5.17568C99.96 4.93568 99.94 4.72567 99.97 4.52567C100.01 4.26567 100.19 4.12568 100.45 4.08568C102.16 3.81568 103.87 3.81568 105.58 4.08568C105.89 4.13568 106.08 4.33568 106.1 4.64568C106.11 4.80568 106.1 4.96568 106.1 5.17568Z" fill="url(#paint1_linear_341_553)"/>
<path d="M106.1 3.31566C104.03 2.91566 102 2.91566 99.95 3.31566C99.95 3.08566 99.93 2.89566 99.95 2.70566C99.99 2.43566 100.17 2.27567 100.45 2.22567C101.88 1.99567 103.31 1.96567 104.75 2.11567C105.03 2.14567 105.3 2.18567 105.58 2.22567C105.9 2.27567 106.09 2.47566 106.1 2.80566C106.11 2.95566 106.1 3.10566 106.1 3.31566Z" fill="url(#paint2_linear_341_553)"/>
<path d="M101.88 1.16565C101.88 0.715646 102.08 0.395648 102.44 0.175648C102.85 -0.0743519 103.27 -0.054351 103.66 0.215649C103.98 0.435649 104.16 0.745646 104.15 1.16565C103.4 1.16565 102.66 1.16565 101.88 1.16565Z" fill="url(#paint3_linear_341_553)"/>
<path d="M47.45 41.0357C47.36 41.2057 47.22 41.3357 47.04 41.4457C46.86 41.5457 46.63 41.6057 46.35 41.6057C46.08 41.6057 45.85 41.5557 45.64 41.4557C45.43 41.3557 45.27 41.2257 45.14 41.0457C45.02 40.8757 44.94 40.6757 44.93 40.4657H45.37C45.39 40.5857 45.43 40.7157 45.51 40.8357C45.58 40.9557 45.69 41.0557 45.83 41.1457C45.97 41.2257 46.14 41.2657 46.34 41.2657C46.6 41.2657 46.8 41.1957 46.94 41.0557C47.08 40.9157 47.15 40.7357 47.15 40.5157C47.15 40.3257 47.1 40.1757 47.01 40.0657C46.92 39.9457 46.8 39.8557 46.67 39.7957C46.53 39.7357 46.35 39.6657 46.11 39.5857C45.85 39.5057 45.64 39.4257 45.48 39.3457C45.32 39.2657 45.19 39.1557 45.08 39.0057C44.97 38.8557 44.91 38.6557 44.91 38.4057C44.91 38.0857 45.02 37.8357 45.24 37.6357C45.46 37.4357 45.76 37.3357 46.15 37.3357C46.54 37.3357 46.85 37.4357 47.08 37.6257C47.31 37.8157 47.45 38.0657 47.49 38.3457H47.05C47.01 38.1657 46.92 38.0057 46.77 37.8757C46.62 37.7357 46.41 37.6657 46.15 37.6657C45.91 37.6657 45.71 37.7257 45.57 37.8557C45.43 37.9857 45.35 38.1557 45.35 38.3857C45.35 38.5657 45.39 38.7057 45.49 38.8157C45.58 38.9257 45.69 39.0157 45.82 39.0757C45.95 39.1357 46.13 39.2057 46.36 39.2757C46.62 39.3557 46.84 39.4357 47 39.5157C47.16 39.5957 47.3 39.7157 47.41 39.8757C47.52 40.0357 47.58 40.2457 47.58 40.5057C47.58 40.6957 47.54 40.8757 47.45 41.0357Z" fill="#232038"/>
<path d="M49.87 41.1957V41.5657H49.49C49.18 41.5657 48.95 41.4957 48.8 41.3457C48.65 41.1957 48.57 40.9457 48.57 40.5957V38.6957H48.08V38.3357H48.57V37.5157H48.99V38.3357H49.87V38.6957H48.98V40.6057C48.98 40.8357 49.02 40.9957 49.1 41.0757C49.18 41.1657 49.33 41.2057 49.54 41.2057H49.87V41.1957Z" fill="#232038"/>
<path d="M52.81 38.5356C53.04 38.7056 53.2 38.9356 53.28 39.2156V38.3256H53.69V41.5656H53.28V40.6756C53.19 40.9556 53.04 41.1856 52.81 41.3556C52.58 41.5256 52.3 41.6156 51.98 41.6156C51.69 41.6156 51.43 41.5456 51.2 41.4156C50.97 41.2856 50.79 41.0856 50.66 40.8356C50.53 40.5856 50.47 40.2956 50.47 39.9556C50.47 39.6156 50.53 39.3156 50.66 39.0656C50.79 38.8156 50.96 38.6256 51.19 38.4856C51.42 38.3556 51.68 38.2856 51.97 38.2856C52.3 38.2856 52.58 38.3656 52.81 38.5356ZM51.21 38.9956C50.99 39.2256 50.88 39.5456 50.88 39.9456C50.88 40.3456 50.99 40.6656 51.21 40.8956C51.43 41.1256 51.72 41.2456 52.08 41.2456C52.31 41.2456 52.51 41.1956 52.7 41.0856C52.88 40.9756 53.03 40.8256 53.13 40.6356C53.23 40.4356 53.29 40.2156 53.29 39.9556C53.29 39.6956 53.24 39.4756 53.13 39.2756C53.03 39.0756 52.88 38.9256 52.7 38.8256C52.52 38.7256 52.31 38.6656 52.08 38.6656C51.72 38.6556 51.43 38.7656 51.21 38.9956Z" fill="#232038"/>
<path d="M55.53 38.4557C55.74 38.3257 55.99 38.2657 56.29 38.2657V38.7157H56.16C55.85 38.7157 55.59 38.7957 55.39 38.9657C55.19 39.1357 55.08 39.4057 55.08 39.7857V41.5557H54.66V38.3157H55.08V38.9857C55.17 38.7657 55.32 38.5857 55.53 38.4557Z" fill="#232038"/>
<path d="M58.37 41.1957V41.5657H57.99C57.68 41.5657 57.45 41.4957 57.3 41.3457C57.15 41.1957 57.07 40.9457 57.07 40.5957V38.6957H56.58V38.3357H57.07V37.5157H57.49V38.3357H58.37V38.6957H57.48V40.6057C57.48 40.8357 57.52 40.9957 57.6 41.0757C57.68 41.1657 57.83 41.2057 58.04 41.2057H58.37V41.1957Z" fill="#232038"/>
<path d="M61.12 37.3857V39.9157C61.12 40.3657 61.22 40.6957 61.41 40.9057C61.6 41.1157 61.87 41.2157 62.21 41.2157C62.55 41.2157 62.81 41.1157 63 40.9057C63.19 40.6957 63.29 40.3657 63.29 39.9157V37.3857H63.7V39.9157C63.7 40.4857 63.56 40.9057 63.29 41.1857C63.02 41.4657 62.66 41.6057 62.2 41.6057C61.74 41.6057 61.38 41.4657 61.11 41.1857C60.84 40.9057 60.7 40.4857 60.7 39.9157V37.3857H61.12Z" fill="#232038"/>
<path d="M67.14 38.4856C67.37 38.6156 67.54 38.8056 67.67 39.0656C67.8 39.3156 67.86 39.6156 67.86 39.9556C67.86 40.2956 67.8 40.5856 67.67 40.8356C67.54 41.0856 67.37 41.2756 67.14 41.4156C66.91 41.5556 66.65 41.6156 66.36 41.6156C66.03 41.6156 65.75 41.5356 65.52 41.3556C65.29 41.1856 65.14 40.9556 65.05 40.6756V43.0956H64.64V38.3256H65.05V39.2156C65.14 38.9356 65.29 38.7056 65.52 38.5356C65.75 38.3656 66.03 38.2756 66.36 38.2756C66.66 38.2856 66.92 38.3456 67.14 38.4856ZM65.64 38.8156C65.46 38.9256 65.32 39.0756 65.21 39.2656C65.11 39.4656 65.06 39.6856 65.06 39.9456C65.06 40.2056 65.11 40.4256 65.21 40.6256C65.31 40.8256 65.46 40.9756 65.64 41.0756C65.82 41.1856 66.03 41.2356 66.26 41.2356C66.63 41.2356 66.92 41.1156 67.13 40.8856C67.34 40.6556 67.45 40.3356 67.45 39.9356C67.45 39.5356 67.34 39.2256 67.13 38.9856C66.92 38.7456 66.62 38.6356 66.26 38.6356C66.02 38.6556 65.82 38.7056 65.64 38.8156Z" fill="#232038"/>
<path d="M70.32 39.0957C70.45 38.9657 70.61 38.8958 70.8 38.8958C70.99 38.8958 71.15 38.9657 71.29 39.0957C71.42 39.2257 71.49 39.3958 71.49 39.5858C71.49 39.7758 71.42 39.9358 71.29 40.0658C71.16 40.1958 71 40.2658 70.8 40.2658C70.61 40.2658 70.45 40.2058 70.32 40.0658C70.19 39.9358 70.12 39.7758 70.12 39.5858C70.12 39.3958 70.19 39.2357 70.32 39.0957Z" fill="#F7D20A"/>
<path d="M77.91 37.4757V41.5657H77.5V38.1357L76.09 41.5657H75.72L74.31 38.1457V41.5657H73.89V37.4757H74.38L75.91 41.0557L77.43 37.4757H77.91Z" fill="#232038"/>
<path d="M81.16 38.4856C81.4 38.6156 81.59 38.8056 81.73 39.0656C81.87 39.3156 81.94 39.6156 81.94 39.9556C81.94 40.2956 81.87 40.5956 81.73 40.8356C81.59 41.0856 81.4 41.2756 81.16 41.4156C80.92 41.5556 80.65 41.6156 80.34 41.6156C80.03 41.6156 79.76 41.5456 79.52 41.4156C79.28 41.2856 79.09 41.0856 78.95 40.8356C78.81 40.5856 78.74 40.2956 78.74 39.9556C78.74 39.6156 78.81 39.3156 78.95 39.0656C79.09 38.8156 79.28 38.6256 79.52 38.4856C79.76 38.3556 80.04 38.2856 80.34 38.2856C80.64 38.2856 80.92 38.3456 81.16 38.4856ZM79.75 38.7856C79.57 38.8856 79.42 39.0256 79.31 39.2256C79.2 39.4256 79.14 39.6656 79.14 39.9456C79.14 40.2356 79.19 40.4656 79.31 40.6656C79.42 40.8556 79.56 41.0056 79.75 41.0956C79.93 41.1856 80.13 41.2356 80.34 41.2356C80.55 41.2356 80.74 41.1856 80.92 41.0956C81.1 40.9956 81.24 40.8556 81.35 40.6656C81.46 40.4756 81.52 40.2356 81.52 39.9456C81.52 39.6656 81.46 39.4256 81.35 39.2256C81.24 39.0256 81.1 38.8856 80.92 38.7856C80.74 38.6956 80.55 38.6456 80.34 38.6456C80.13 38.6456 79.93 38.6956 79.75 38.7856Z" fill="#232038"/>
<path d="M83.94 41.0957L85.02 38.3257H85.47L84.18 41.5657H83.71L82.42 38.3257H82.87L83.94 41.0957Z" fill="#232038"/>
<path d="M88.22 41.0456C88.42 40.8956 88.53 40.7056 88.57 40.4556H89.01C88.95 40.7956 88.79 41.0756 88.52 41.2956C88.25 41.5056 87.92 41.6156 87.51 41.6156C87.2 41.6156 86.93 41.5456 86.7 41.4156C86.47 41.2856 86.28 41.0956 86.14 40.8356C86.01 40.5856 85.94 40.2856 85.94 39.9456C85.94 39.6056 86.01 39.3056 86.14 39.0556C86.27 38.8056 86.46 38.6156 86.7 38.4756C86.94 38.3456 87.21 38.2756 87.51 38.2756C87.82 38.2756 88.1 38.3456 88.33 38.4756C88.56 38.6056 88.73 38.7856 88.85 39.0056C88.97 39.2256 89.03 39.4656 89.03 39.7256C89.03 39.8356 89.02 39.9356 89.01 40.0256H86.35C86.35 40.2956 86.41 40.5256 86.52 40.7156C86.63 40.8956 86.77 41.0356 86.94 41.1256C87.11 41.2156 87.3 41.2556 87.5 41.2556C87.78 41.2656 88.02 41.1856 88.22 41.0456ZM86.94 38.7556C86.77 38.8456 86.63 38.9756 86.52 39.1556C86.41 39.3356 86.35 39.5556 86.35 39.8256H88.62C88.64 39.5556 88.59 39.3356 88.49 39.1556C88.39 38.9756 88.25 38.8356 88.08 38.7556C87.91 38.6656 87.72 38.6256 87.51 38.6256C87.3 38.6256 87.11 38.6656 86.94 38.7556Z" fill="#232038"/>
<path d="M91.84 37.3857V39.9157C91.84 40.3657 91.94 40.6957 92.13 40.9057C92.32 41.1157 92.59 41.2157 92.93 41.2157C93.27 41.2157 93.53 41.1157 93.72 40.9057C93.91 40.6957 94.01 40.3657 94.01 39.9157V37.3857H94.42V39.9157C94.42 40.4857 94.28 40.9057 94.01 41.1857C93.74 41.4657 93.38 41.6057 92.92 41.6057C92.46 41.6057 92.1 41.4657 91.83 41.1857C91.56 40.9057 91.42 40.4857 91.42 39.9157V37.3857H91.84Z" fill="#232038"/>
<path d="M97.86 38.4856C98.09 38.6156 98.26 38.8056 98.39 39.0656C98.52 39.3156 98.58 39.6156 98.58 39.9556C98.58 40.2956 98.52 40.5856 98.39 40.8356C98.26 41.0856 98.09 41.2756 97.86 41.4156C97.63 41.5556 97.37 41.6156 97.08 41.6156C96.75 41.6156 96.47 41.5356 96.24 41.3556C96.01 41.1856 95.86 40.9556 95.77 40.6756V43.0956H95.36V38.3256H95.77V39.2156C95.86 38.9356 96.01 38.7056 96.24 38.5356C96.47 38.3656 96.75 38.2756 97.08 38.2756C97.38 38.2856 97.64 38.3456 97.86 38.4856ZM96.35 38.8156C96.17 38.9256 96.03 39.0756 95.92 39.2656C95.82 39.4656 95.77 39.6856 95.77 39.9456C95.77 40.2056 95.82 40.4256 95.92 40.6256C96.02 40.8256 96.17 40.9756 96.35 41.0756C96.53 41.1856 96.74 41.2356 96.97 41.2356C97.34 41.2356 97.63 41.1156 97.84 40.8856C98.05 40.6556 98.16 40.3356 98.16 39.9356C98.16 39.5356 98.05 39.2256 97.84 38.9856C97.63 38.7456 97.33 38.6356 96.97 38.6356C96.74 38.6556 96.54 38.7056 96.35 38.8156Z" fill="#232038"/>
<path d="M101.04 39.0957C101.17 38.9657 101.33 38.8958 101.52 38.8958C101.71 38.8958 101.87 38.9657 102.01 39.0957C102.14 39.2257 102.21 39.3958 102.21 39.5858C102.21 39.7758 102.14 39.9358 102.01 40.0658C101.88 40.1958 101.72 40.2658 101.52 40.2658C101.33 40.2658 101.17 40.2058 101.04 40.0658C100.91 39.9358 100.84 39.7758 100.84 39.5858C100.84 39.3958 100.91 39.2357 101.04 39.0957Z" fill="#F7D20A"/>
<path d="M105.39 39.4657L107.35 41.5657H106.84L105.03 39.6057V41.5657H104.61V37.3857H105.03V39.3457L106.84 37.3857H107.35L105.39 39.4657Z" fill="#232038"/>
<path d="M110.1 41.0456C110.3 40.8956 110.41 40.7056 110.45 40.4556H110.89C110.83 40.7956 110.67 41.0756 110.4 41.2956C110.13 41.5056 109.8 41.6156 109.39 41.6156C109.08 41.6156 108.81 41.5456 108.58 41.4156C108.35 41.2856 108.16 41.0956 108.02 40.8356C107.89 40.5856 107.82 40.2856 107.82 39.9456C107.82 39.6056 107.89 39.3056 108.02 39.0556C108.15 38.8056 108.34 38.6156 108.58 38.4756C108.82 38.3456 109.09 38.2756 109.39 38.2756C109.7 38.2756 109.98 38.3456 110.21 38.4756C110.44 38.6056 110.61 38.7856 110.73 39.0056C110.85 39.2256 110.91 39.4656 110.91 39.7256C110.91 39.8356 110.9 39.9356 110.89 40.0256H108.23C108.23 40.2956 108.29 40.5256 108.4 40.7156C108.51 40.8956 108.65 41.0356 108.82 41.1256C108.99 41.2156 109.18 41.2556 109.38 41.2556C109.66 41.2656 109.91 41.1856 110.1 41.0456ZM108.82 38.7556C108.65 38.8456 108.51 38.9756 108.4 39.1556C108.29 39.3356 108.23 39.5556 108.23 39.8256H110.5C110.52 39.5556 110.47 39.3356 110.37 39.1556C110.27 38.9756 110.13 38.8356 109.96 38.7556C109.79 38.6656 109.6 38.6256 109.39 38.6256C109.18 38.6256 108.99 38.6656 108.82 38.7556Z" fill="#232038"/>
<path d="M113.86 41.0456C114.06 40.8956 114.17 40.7056 114.21 40.4556H114.65C114.59 40.7956 114.43 41.0756 114.16 41.2956C113.89 41.5056 113.56 41.6156 113.15 41.6156C112.84 41.6156 112.57 41.5456 112.34 41.4156C112.11 41.2856 111.92 41.0956 111.78 40.8356C111.65 40.5856 111.58 40.2856 111.58 39.9456C111.58 39.6056 111.65 39.3056 111.78 39.0556C111.91 38.8056 112.1 38.6156 112.34 38.4756C112.58 38.3456 112.85 38.2756 113.15 38.2756C113.46 38.2756 113.74 38.3456 113.97 38.4756C114.2 38.6056 114.37 38.7856 114.49 39.0056C114.61 39.2256 114.67 39.4656 114.67 39.7256C114.67 39.8356 114.66 39.9356 114.65 40.0256H111.99C111.99 40.2956 112.05 40.5256 112.16 40.7156C112.27 40.8956 112.41 41.0356 112.58 41.1256C112.75 41.2156 112.94 41.2556 113.14 41.2556C113.42 41.2656 113.66 41.1856 113.86 41.0456ZM112.57 38.7556C112.4 38.8456 112.26 38.9756 112.15 39.1556C112.04 39.3356 111.98 39.5556 111.98 39.8256H114.25C114.27 39.5556 114.22 39.3356 114.12 39.1556C114.02 38.9756 113.88 38.8356 113.71 38.7556C113.54 38.6656 113.35 38.6256 113.14 38.6256C112.94 38.6256 112.75 38.6656 112.57 38.7556Z" fill="#232038"/>
<path d="M117.98 38.4856C118.21 38.6156 118.38 38.8056 118.51 39.0656C118.64 39.3156 118.7 39.6156 118.7 39.9556C118.7 40.2956 118.64 40.5856 118.51 40.8356C118.38 41.0856 118.21 41.2756 117.98 41.4156C117.75 41.5556 117.49 41.6156 117.2 41.6156C116.87 41.6156 116.59 41.5356 116.36 41.3556C116.13 41.1856 115.98 40.9556 115.89 40.6756V43.0956H115.48V38.3256H115.89V39.2156C115.98 38.9356 116.13 38.7056 116.36 38.5356C116.59 38.3656 116.87 38.2756 117.2 38.2756C117.49 38.2856 117.75 38.3456 117.98 38.4856ZM116.47 38.8156C116.29 38.9256 116.15 39.0756 116.04 39.2656C115.94 39.4656 115.89 39.6856 115.89 39.9456C115.89 40.2056 115.94 40.4256 116.04 40.6256C116.14 40.8256 116.29 40.9756 116.47 41.0756C116.65 41.1856 116.86 41.2356 117.09 41.2356C117.46 41.2356 117.75 41.1156 117.96 40.8856C118.17 40.6556 118.28 40.3356 118.28 39.9356C118.28 39.5356 118.17 39.2256 117.96 38.9856C117.75 38.7456 117.45 38.6356 117.09 38.6356C116.86 38.6556 116.65 38.7056 116.47 38.8156Z" fill="#232038"/>
<path d="M121.51 37.3857V39.9157C121.51 40.3657 121.61 40.6957 121.8 40.9057C121.99 41.1157 122.26 41.2157 122.6 41.2157C122.94 41.2157 123.2 41.1157 123.39 40.9057C123.58 40.6957 123.68 40.3657 123.68 39.9157V37.3857H124.09V39.9157C124.09 40.4857 123.95 40.9057 123.68 41.1857C123.41 41.4657 123.05 41.6057 122.59 41.6057C122.13 41.6057 121.77 41.4657 121.5 41.1857C121.23 40.9057 121.09 40.4857 121.09 39.9157V37.3857H121.51Z" fill="#232038"/>
<path d="M127.54 38.4856C127.77 38.6156 127.94 38.8056 128.07 39.0656C128.2 39.3156 128.26 39.6156 128.26 39.9556C128.26 40.2956 128.2 40.5856 128.07 40.8356C127.94 41.0856 127.77 41.2756 127.54 41.4156C127.31 41.5556 127.05 41.6156 126.76 41.6156C126.43 41.6156 126.15 41.5356 125.92 41.3556C125.69 41.1856 125.54 40.9556 125.45 40.6756V43.0956H125.04V38.3256H125.45V39.2156C125.54 38.9356 125.69 38.7056 125.92 38.5356C126.15 38.3656 126.43 38.2756 126.76 38.2756C127.05 38.2856 127.31 38.3456 127.54 38.4856ZM126.03 38.8156C125.85 38.9256 125.71 39.0756 125.6 39.2656C125.5 39.4656 125.45 39.6856 125.45 39.9456C125.45 40.2056 125.5 40.4256 125.6 40.6256C125.7 40.8256 125.85 40.9756 126.03 41.0756C126.21 41.1856 126.42 41.2356 126.65 41.2356C127.02 41.2356 127.31 41.1156 127.52 40.8856C127.73 40.6556 127.84 40.3356 127.84 39.9356C127.84 39.5356 127.73 39.2256 127.52 38.9856C127.31 38.7456 127.01 38.6356 126.65 38.6356C126.42 38.6556 126.21 38.7056 126.03 38.8156Z" fill="#232038"/>
<defs>
<linearGradient id="paint0_linear_341_553" x1="89.8465" y1="-9.23376" x2="132.578" y2="20.0275" gradientUnits="userSpaceOnUse">
<stop stop-color="#FFD910"/>
<stop offset="1" stop-color="#FFCA10"/>
</linearGradient>
<linearGradient id="paint1_linear_341_553" x1="99.9535" y1="3.15024" x2="101.302" y2="7.38687" gradientUnits="userSpaceOnUse">
<stop stop-color="#FFD910"/>
<stop offset="1" stop-color="#FFCA10"/>
</linearGradient>
<linearGradient id="paint2_linear_341_553" x1="99.9411" y1="1.29046" x2="101.287" y2="5.52826" gradientUnits="userSpaceOnUse">
<stop stop-color="#FFD910"/>
<stop offset="1" stop-color="#FFCA10"/>
</linearGradient>
<linearGradient id="paint3_linear_341_553" x1="101.88" y1="-0.661007" x2="103.919" y2="1.96123" gradientUnits="userSpaceOnUse">
<stop stop-color="#FFD910"/>
<stop offset="1" stop-color="#FFCA10"/>
</linearGradient>
</defs>
</svg>
