<svg width="129" height="44" viewBox="0 0 129 44" fill="none" xmlns="http://www.w3.org/2000/svg">
<path d="M0 0.138672C1.11 0.138672 2.23 0.138672 3.44 0.138672C3.44 0.468672 3.44 0.738675 3.44 1.00867C3.44 6.24867 3.43 11.4887 3.44 16.7287C3.45 19.8287 5.08 22.2987 7.73 23.2487C12.17 24.8487 16.7 21.7187 16.72 16.9987C16.75 11.6887 16.73 6.37867 16.74 1.07867C16.74 0.798674 16.74 0.528677 16.74 0.198677C17.86 0.198677 18.94 0.198677 20.09 0.198677C20.11 0.408677 20.14 0.628679 20.14 0.848679C20.14 6.17868 20.16 11.5087 20.14 16.8387C20.12 21.9287 16.81 25.9487 11.93 26.8987C6.49 27.9587 1.07 24.1987 0.150002 18.7387C0.120002 18.5587 0.0500021 18.3887 0.0100021 18.2187C2.13645e-06 12.1987 0 6.16867 0 0.138672Z" fill="white"/>
<path d="M64.62 7.94872C63.47 8.03872 62.39 8.11871 61.28 8.20871C61.21 7.88871 61.16 7.62871 61.1 7.35871C60.68 5.44871 59.57 4.15872 57.67 3.62872C55.79 3.10872 53.89 3.15871 52.02 3.64871C50.8 3.96871 49.83 4.68871 49.3 5.85871C48.52 7.54871 49.4 9.47871 51.36 10.1187C53.41 10.7887 55.53 11.2187 57.59 11.8487C59.09 12.3087 60.64 12.7487 61.99 13.5087C65.98 15.7587 66.6 20.9987 63.37 24.2587C61.58 26.0587 59.35 26.8787 56.86 27.0187C53.85 27.1887 50.9 26.9487 48.3 25.1987C45.89 23.5687 44.79 21.2187 44.62 18.2887C45.73 18.1787 46.81 18.0787 47.92 17.9687C47.98 18.2687 48.05 18.5387 48.1 18.8087C48.5 20.9387 49.69 22.4587 51.73 23.1987C54.37 24.1587 57.04 24.2887 59.66 23.0687C61.38 22.2687 62.26 20.6387 61.95 18.8887C61.73 17.5987 60.9 16.7587 59.76 16.2987C58.52 15.7987 57.22 15.4387 55.93 15.0387C53.81 14.3887 51.61 13.9087 49.56 13.0787C47.12 12.0887 45.63 10.1887 45.64 7.44872C45.65 4.68871 46.9 2.53871 49.43 1.36871C53.31 -0.421287 57.26 -0.341287 61.02 1.68871C63.4 2.97871 64.46 5.19872 64.62 7.94872Z" fill="white"/>
<path d="M25.77 33.8787C24.56 33.8787 23.48 33.8787 22.35 33.8787C22.34 33.6487 22.31 33.4487 22.31 33.2487C22.31 27.8487 22.29 22.4487 22.31 17.0487C22.33 12.2887 25.68 8.17873 30.3 7.20873C36.59 5.88873 42.56 10.7687 42.43 17.1687C42.35 21.2887 40.35 24.3287 36.69 26.0887C33.04 27.8387 29.47 27.3687 26.19 24.9387C26.08 24.8587 25.98 24.7787 25.76 24.6187C25.77 27.7587 25.77 30.7787 25.77 33.8787ZM25.76 17.0387C25.76 20.7387 28.69 23.6687 32.39 23.6687C36.08 23.6687 39.04 20.7187 39.04 17.0387C39.04 13.3587 36.09 10.4287 32.39 10.4287C28.66 10.4187 25.76 13.3187 25.76 17.0387Z" fill="white"/>
<path d="M71.0501 24.5887C71.0501 27.7787 71.0501 30.7987 71.0501 33.8687C69.8901 33.8687 68.8101 33.8687 67.6701 33.8687C67.6501 33.6587 67.6201 33.4687 67.6201 33.2687C67.6201 27.8487 67.6001 22.4187 67.6301 16.9987C67.6501 12.2287 71.0401 8.14868 75.7301 7.17868C81.1201 6.06868 86.6401 9.76868 87.5901 15.1387C88.5901 20.7787 84.8201 26.1687 79.2601 26.9587C76.3901 27.3687 73.7701 26.7087 71.4701 24.9087C71.3901 24.8387 71.3001 24.7787 71.0501 24.5887ZM71.0701 17.0387C71.0801 20.7387 74.0101 23.6687 77.7001 23.6587C81.3901 23.6487 84.35 20.6987 84.35 17.0287C84.35 13.3487 81.4001 10.4187 77.6901 10.4187C73.9701 10.4187 71.0701 13.3287 71.0701 17.0387Z" fill="white"/>
<path d="M128.63 30.3687C128.63 31.4987 128.63 32.5787 128.63 33.8687C127.53 33.6487 126.44 33.5487 125.43 33.2187C121.5 31.9487 118.67 28.1687 118.62 24.0387C118.56 18.4087 118.6 12.7787 118.6 7.13866C118.6 7.06866 118.62 6.99866 118.63 6.87866C119.73 6.87866 120.83 6.87866 122.02 6.87866C122.02 10.7587 122.02 14.6387 122.02 18.5887C124.26 18.5887 126.41 18.5887 128.61 18.5887C128.61 19.7387 128.61 20.8187 128.61 21.9787C126.44 21.9787 124.27 21.9787 122.12 21.9787C121.38 27.1287 124.76 30.2487 128.63 30.3687Z" fill="white"/>
<path d="M99.93 5.26854C99.94 5.34854 99.95 5.40854 99.95 5.46854C99.95 6.37854 99.97 7.29853 99.94 8.20853C99.91 9.35853 99.48 10.3485 98.66 11.1485C98.48 11.3285 98.3 11.5085 98.1 11.6685C96.76 12.7385 96 14.1685 95.65 15.8185C95.18 18.0585 95.45 20.1985 96.62 22.1785C97.75 24.0885 99.46 25.1585 101.62 25.5185C103.86 25.8885 105.94 25.4585 107.76 24.0685C109.26 22.9285 110.09 21.3585 110.43 19.5385C110.85 17.3285 110.55 15.2285 109.39 13.2785C108.95 12.5485 108.36 11.9485 107.72 11.3885C106.99 10.7685 106.41 10.0485 106.22 9.07854C106.16 8.75854 106.11 8.43854 106.1 8.10854C106.08 7.22854 106.09 6.34853 106.09 5.45853C106.09 5.39853 106.1 5.33854 106.11 5.24854C106.22 5.26854 106.31 5.27854 106.41 5.29854C109.75 6.06854 112.43 7.78853 114.28 10.7085C115.28 12.2985 115.83 14.0585 116.06 15.9085C116.35 18.2685 116.14 20.5785 115.26 22.7985C113.86 26.3385 111.31 28.7085 107.69 29.8685C104.31 30.9585 100.9 30.9185 97.59 29.5985C93.34 27.9085 90.84 24.7385 90.07 20.2285C89.64 17.7285 89.82 15.2585 90.7 12.8685C92.05 9.17854 94.68 6.82854 98.37 5.61854C98.8 5.47854 99.24 5.38854 99.67 5.26854C99.76 5.28854 99.84 5.28854 99.93 5.26854Z" fill="url(#paint0_linear_253_5783)"/>
<path d="M106.1 5.25856C104.03 4.85856 102.01 4.85856 99.96 5.25856C99.96 5.01856 99.94 4.80856 99.97 4.60856C100.01 4.34856 100.19 4.20856 100.45 4.16856C102.16 3.89856 103.87 3.89856 105.58 4.16856C105.89 4.21856 106.08 4.41856 106.1 4.72856C106.11 4.88856 106.1 5.04856 106.1 5.25856Z" fill="url(#paint1_linear_253_5783)"/>
<path d="M106.1 3.39855C104.03 2.99855 102 2.99855 99.9499 3.39855C99.9499 3.16855 99.9299 2.97855 99.9499 2.78855C99.9899 2.51855 100.17 2.35855 100.45 2.30855C101.88 2.07855 103.31 2.04855 104.75 2.19855C105.03 2.22855 105.3 2.26855 105.58 2.30855C105.9 2.35855 106.09 2.55855 106.1 2.88855C106.11 3.03855 106.1 3.18855 106.1 3.39855Z" fill="url(#paint2_linear_253_5783)"/>
<path d="M101.88 1.24865C101.88 0.798654 102.08 0.478656 102.44 0.258656C102.85 0.00865595 103.27 0.0286569 103.66 0.298657C103.98 0.518657 104.16 0.828654 104.15 1.24865C103.4 1.24865 102.66 1.24865 101.88 1.24865Z" fill="url(#paint3_linear_253_5783)"/>
<path d="M47.45 41.1187C47.36 41.2887 47.22 41.4187 47.04 41.5287C46.86 41.6287 46.63 41.6887 46.35 41.6887C46.08 41.6887 45.85 41.6387 45.64 41.5387C45.43 41.4387 45.27 41.3087 45.14 41.1287C45.02 40.9587 44.94 40.7587 44.93 40.5487H45.37C45.39 40.6687 45.43 40.7987 45.51 40.9187C45.58 41.0387 45.69 41.1387 45.83 41.2287C45.97 41.3087 46.14 41.3487 46.34 41.3487C46.6 41.3487 46.8 41.2787 46.94 41.1387C47.08 40.9987 47.15 40.8187 47.15 40.5987C47.15 40.4087 47.1 40.2587 47.01 40.1487C46.92 40.0287 46.8 39.9387 46.67 39.8787C46.53 39.8187 46.35 39.7487 46.11 39.6687C45.85 39.5887 45.64 39.5087 45.48 39.4287C45.32 39.3487 45.19 39.2387 45.08 39.0887C44.97 38.9387 44.91 38.7387 44.91 38.4887C44.91 38.1687 45.02 37.9187 45.24 37.7187C45.46 37.5187 45.76 37.4187 46.15 37.4187C46.54 37.4187 46.85 37.5187 47.08 37.7087C47.31 37.8987 47.45 38.1487 47.49 38.4287H47.05C47.01 38.2487 46.92 38.0887 46.77 37.9587C46.62 37.8187 46.41 37.7487 46.15 37.7487C45.91 37.7487 45.71 37.8087 45.57 37.9387C45.43 38.0687 45.35 38.2387 45.35 38.4687C45.35 38.6487 45.39 38.7887 45.49 38.8987C45.58 39.0087 45.69 39.0987 45.82 39.1587C45.95 39.2187 46.13 39.2887 46.36 39.3587C46.62 39.4387 46.84 39.5187 47 39.5987C47.16 39.6787 47.3 39.7987 47.41 39.9587C47.52 40.1187 47.58 40.3287 47.58 40.5887C47.58 40.7787 47.54 40.9587 47.45 41.1187Z" fill="white"/>
<path d="M49.8701 41.2786V41.6486H49.4901C49.1801 41.6486 48.9501 41.5786 48.8001 41.4286C48.6501 41.2786 48.5701 41.0286 48.5701 40.6786V38.7786H48.0801V38.4186H48.5701V37.5986H48.9901V38.4186H49.8701V38.7786H48.9801V40.6886C48.9801 40.9186 49.0201 41.0786 49.1001 41.1586C49.1801 41.2486 49.3301 41.2886 49.5401 41.2886H49.8701V41.2786Z" fill="white"/>
<path d="M52.81 38.6187C53.04 38.7887 53.2 39.0187 53.28 39.2987V38.4087H53.69V41.6487H53.28V40.7587C53.19 41.0387 53.04 41.2687 52.81 41.4387C52.58 41.6087 52.3 41.6987 51.98 41.6987C51.69 41.6987 51.43 41.6286 51.2 41.4986C50.97 41.3686 50.79 41.1687 50.66 40.9187C50.53 40.6687 50.47 40.3787 50.47 40.0387C50.47 39.6987 50.53 39.3987 50.66 39.1487C50.79 38.8987 50.96 38.7086 51.19 38.5686C51.42 38.4386 51.68 38.3687 51.97 38.3687C52.3 38.3687 52.58 38.4487 52.81 38.6187ZM51.21 39.0787C50.99 39.3087 50.88 39.6286 50.88 40.0286C50.88 40.4286 50.99 40.7487 51.21 40.9787C51.43 41.2087 51.72 41.3287 52.08 41.3287C52.31 41.3287 52.51 41.2787 52.7 41.1687C52.88 41.0587 53.03 40.9087 53.13 40.7187C53.23 40.5187 53.29 40.2987 53.29 40.0387C53.29 39.7787 53.24 39.5587 53.13 39.3587C53.03 39.1587 52.88 39.0087 52.7 38.9087C52.52 38.8087 52.31 38.7486 52.08 38.7486C51.72 38.7386 51.43 38.8487 51.21 39.0787Z" fill="white"/>
<path d="M55.53 38.5386C55.74 38.4086 55.99 38.3486 56.29 38.3486V38.7986H56.16C55.85 38.7986 55.59 38.8786 55.39 39.0486C55.19 39.2186 55.08 39.4886 55.08 39.8686V41.6386H54.66V38.3986H55.08V39.0686C55.17 38.8486 55.32 38.6686 55.53 38.5386Z" fill="white"/>
<path d="M58.3701 41.2786V41.6486H57.9901C57.6801 41.6486 57.4501 41.5786 57.3001 41.4286C57.1501 41.2786 57.0701 41.0286 57.0701 40.6786V38.7786H56.5801V38.4186H57.0701V37.5986H57.4901V38.4186H58.3701V38.7786H57.4801V40.6886C57.4801 40.9186 57.5201 41.0786 57.6001 41.1586C57.6801 41.2486 57.8301 41.2886 58.0401 41.2886H58.3701V41.2786Z" fill="white"/>
<path d="M61.1201 37.4688V39.9987C61.1201 40.4487 61.2201 40.7788 61.4101 40.9888C61.6001 41.1988 61.8701 41.2988 62.2101 41.2988C62.5501 41.2988 62.8101 41.1988 63.0001 40.9888C63.1901 40.7788 63.2901 40.4487 63.2901 39.9987V37.4688H63.7001V39.9987C63.7001 40.5687 63.5601 40.9888 63.2901 41.2688C63.0201 41.5488 62.6601 41.6888 62.2001 41.6888C61.7401 41.6888 61.3801 41.5488 61.1101 41.2688C60.8401 40.9888 60.7001 40.5687 60.7001 39.9987V37.4688H61.1201Z" fill="white"/>
<path d="M67.14 38.5686C67.37 38.6986 67.54 38.8886 67.67 39.1486C67.8 39.3986 67.86 39.6986 67.86 40.0386C67.86 40.3786 67.8 40.6686 67.67 40.9186C67.54 41.1686 67.37 41.3586 67.14 41.4986C66.91 41.6386 66.65 41.6986 66.36 41.6986C66.03 41.6986 65.75 41.6186 65.52 41.4386C65.29 41.2686 65.14 41.0386 65.05 40.7586V43.1786H64.64V38.4086H65.05V39.2986C65.14 39.0186 65.29 38.7886 65.52 38.6186C65.75 38.4486 66.03 38.3586 66.36 38.3586C66.66 38.3686 66.92 38.4286 67.14 38.5686ZM65.64 38.8986C65.46 39.0086 65.32 39.1586 65.21 39.3486C65.11 39.5486 65.06 39.7686 65.06 40.0286C65.06 40.2886 65.11 40.5086 65.21 40.7086C65.31 40.9086 65.46 41.0586 65.64 41.1586C65.82 41.2686 66.03 41.3186 66.26 41.3186C66.63 41.3186 66.92 41.1986 67.13 40.9686C67.34 40.7386 67.45 40.4186 67.45 40.0186C67.45 39.6186 67.34 39.3086 67.13 39.0686C66.92 38.8286 66.62 38.7186 66.26 38.7186C66.02 38.7386 65.82 38.7886 65.64 38.8986Z" fill="white"/>
<path d="M70.32 39.1788C70.45 39.0488 70.61 38.9788 70.8 38.9788C70.99 38.9788 71.15 39.0488 71.29 39.1788C71.42 39.3088 71.49 39.4788 71.49 39.6688C71.49 39.8588 71.42 40.0188 71.29 40.1488C71.16 40.2788 71 40.3488 70.8 40.3488C70.61 40.3488 70.45 40.2888 70.32 40.1488C70.19 40.0188 70.12 39.8588 70.12 39.6688C70.12 39.4788 70.19 39.3188 70.32 39.1788Z" fill="#F7D20A"/>
<path d="M77.91 37.5586V41.6486H77.5V38.2186L76.09 41.6486H75.72L74.31 38.2286V41.6486H73.89V37.5586H74.38L75.91 41.1386L77.43 37.5586H77.91Z" fill="white"/>
<path d="M81.16 38.5686C81.4 38.6986 81.59 38.8887 81.73 39.1487C81.87 39.3987 81.94 39.6987 81.94 40.0387C81.94 40.3787 81.87 40.6787 81.73 40.9187C81.59 41.1687 81.4 41.3586 81.16 41.4986C80.92 41.6386 80.65 41.6987 80.34 41.6987C80.03 41.6987 79.76 41.6286 79.52 41.4986C79.28 41.3686 79.09 41.1687 78.95 40.9187C78.81 40.6687 78.74 40.3787 78.74 40.0387C78.74 39.6987 78.81 39.3987 78.95 39.1487C79.09 38.8987 79.28 38.7086 79.52 38.5686C79.76 38.4386 80.04 38.3687 80.34 38.3687C80.64 38.3687 80.92 38.4286 81.16 38.5686ZM79.75 38.8687C79.57 38.9687 79.42 39.1087 79.31 39.3087C79.2 39.5087 79.14 39.7486 79.14 40.0286C79.14 40.3186 79.19 40.5486 79.31 40.7486C79.42 40.9386 79.56 41.0886 79.75 41.1786C79.93 41.2686 80.13 41.3186 80.34 41.3186C80.55 41.3186 80.74 41.2686 80.92 41.1786C81.1 41.0786 81.24 40.9386 81.35 40.7486C81.46 40.5586 81.52 40.3186 81.52 40.0286C81.52 39.7486 81.46 39.5087 81.35 39.3087C81.24 39.1087 81.1 38.9687 80.92 38.8687C80.74 38.7787 80.55 38.7287 80.34 38.7287C80.13 38.7287 79.93 38.7787 79.75 38.8687Z" fill="white"/>
<path d="M83.94 41.1787L85.0201 38.4087H85.47L84.18 41.6487H83.71L82.42 38.4087H82.87L83.94 41.1787Z" fill="white"/>
<path d="M88.2201 41.1286C88.4201 40.9786 88.5301 40.7886 88.5701 40.5386H89.0101C88.9501 40.8786 88.7901 41.1586 88.5201 41.3786C88.2501 41.5886 87.9201 41.6986 87.5101 41.6986C87.2001 41.6986 86.9301 41.6286 86.7001 41.4986C86.4701 41.3686 86.2801 41.1786 86.1401 40.9186C86.0101 40.6686 85.9401 40.3686 85.9401 40.0286C85.9401 39.6886 86.0101 39.3886 86.1401 39.1386C86.2701 38.8886 86.4601 38.6986 86.7001 38.5586C86.9401 38.4286 87.2101 38.3586 87.5101 38.3586C87.8201 38.3586 88.1001 38.4286 88.3301 38.5586C88.5601 38.6886 88.7301 38.8686 88.8501 39.0886C88.9701 39.3086 89.0301 39.5486 89.0301 39.8086C89.0301 39.9186 89.0201 40.0186 89.0101 40.1086H86.3501C86.3501 40.3786 86.4101 40.6086 86.5201 40.7986C86.6301 40.9786 86.7701 41.1186 86.9401 41.2086C87.1101 41.2986 87.3001 41.3386 87.5001 41.3386C87.7801 41.3486 88.0201 41.2686 88.2201 41.1286ZM86.9401 38.8386C86.7701 38.9286 86.6301 39.0586 86.5201 39.2386C86.4101 39.4186 86.3501 39.6386 86.3501 39.9086H88.6201C88.6401 39.6386 88.5901 39.4186 88.4901 39.2386C88.3901 39.0586 88.2501 38.9186 88.0801 38.8386C87.9101 38.7486 87.7201 38.7086 87.5101 38.7086C87.3001 38.7086 87.1101 38.7486 86.9401 38.8386Z" fill="white"/>
<path d="M91.84 37.4688V39.9987C91.84 40.4487 91.9401 40.7788 92.1301 40.9888C92.3201 41.1988 92.59 41.2988 92.93 41.2988C93.27 41.2988 93.53 41.1988 93.72 40.9888C93.91 40.7788 94.01 40.4487 94.01 39.9987V37.4688H94.42V39.9987C94.42 40.5687 94.28 40.9888 94.01 41.2688C93.74 41.5488 93.38 41.6888 92.92 41.6888C92.46 41.6888 92.1 41.5488 91.83 41.2688C91.56 40.9888 91.42 40.5687 91.42 39.9987V37.4688H91.84Z" fill="white"/>
<path d="M97.86 38.5686C98.09 38.6986 98.26 38.8886 98.39 39.1486C98.52 39.3986 98.58 39.6986 98.58 40.0386C98.58 40.3786 98.52 40.6686 98.39 40.9186C98.26 41.1686 98.09 41.3586 97.86 41.4986C97.63 41.6386 97.37 41.6986 97.08 41.6986C96.75 41.6986 96.47 41.6186 96.24 41.4386C96.01 41.2686 95.86 41.0386 95.77 40.7586V43.1786H95.36V38.4086H95.77V39.2986C95.86 39.0186 96.01 38.7886 96.24 38.6186C96.47 38.4486 96.75 38.3586 97.08 38.3586C97.38 38.3686 97.64 38.4286 97.86 38.5686ZM96.35 38.8986C96.17 39.0086 96.03 39.1586 95.92 39.3486C95.82 39.5486 95.77 39.7686 95.77 40.0286C95.77 40.2886 95.82 40.5086 95.92 40.7086C96.02 40.9086 96.17 41.0586 96.35 41.1586C96.53 41.2686 96.74 41.3186 96.97 41.3186C97.34 41.3186 97.63 41.1986 97.84 40.9686C98.05 40.7386 98.16 40.4186 98.16 40.0186C98.16 39.6186 98.05 39.3086 97.84 39.0686C97.63 38.8286 97.33 38.7186 96.97 38.7186C96.74 38.7386 96.54 38.7886 96.35 38.8986Z" fill="white"/>
<path d="M101.04 39.1788C101.17 39.0488 101.33 38.9788 101.52 38.9788C101.71 38.9788 101.87 39.0488 102.01 39.1788C102.14 39.3088 102.21 39.4788 102.21 39.6688C102.21 39.8588 102.14 40.0188 102.01 40.1488C101.88 40.2788 101.72 40.3488 101.52 40.3488C101.33 40.3488 101.17 40.2888 101.04 40.1488C100.91 40.0188 100.84 39.8588 100.84 39.6688C100.84 39.4788 100.91 39.3188 101.04 39.1788Z" fill="#F7D20A"/>
<path d="M105.39 39.5488L107.35 41.6488H106.84L105.03 39.6888V41.6488H104.61V37.4688H105.03V39.4287L106.84 37.4688H107.35L105.39 39.5488Z" fill="white"/>
<path d="M110.1 41.1286C110.3 40.9786 110.41 40.7886 110.45 40.5386H110.89C110.83 40.8786 110.67 41.1586 110.4 41.3786C110.13 41.5886 109.8 41.6986 109.39 41.6986C109.08 41.6986 108.81 41.6286 108.58 41.4986C108.35 41.3686 108.16 41.1786 108.02 40.9186C107.89 40.6686 107.82 40.3686 107.82 40.0286C107.82 39.6886 107.89 39.3886 108.02 39.1386C108.15 38.8886 108.34 38.6986 108.58 38.5586C108.82 38.4286 109.09 38.3586 109.39 38.3586C109.7 38.3586 109.98 38.4286 110.21 38.5586C110.44 38.6886 110.61 38.8686 110.73 39.0886C110.85 39.3086 110.91 39.5486 110.91 39.8086C110.91 39.9186 110.9 40.0186 110.89 40.1086H108.23C108.23 40.3786 108.29 40.6086 108.4 40.7986C108.51 40.9786 108.65 41.1186 108.82 41.2086C108.99 41.2986 109.18 41.3386 109.38 41.3386C109.66 41.3486 109.91 41.2686 110.1 41.1286ZM108.82 38.8386C108.65 38.9286 108.51 39.0586 108.4 39.2386C108.29 39.4186 108.23 39.6386 108.23 39.9086H110.5C110.52 39.6386 110.47 39.4186 110.37 39.2386C110.27 39.0586 110.13 38.9186 109.96 38.8386C109.79 38.7486 109.6 38.7086 109.39 38.7086C109.18 38.7086 108.99 38.7486 108.82 38.8386Z" fill="white"/>
<path d="M113.86 41.1286C114.06 40.9786 114.17 40.7886 114.21 40.5386H114.65C114.59 40.8786 114.43 41.1586 114.16 41.3786C113.89 41.5886 113.56 41.6986 113.15 41.6986C112.84 41.6986 112.57 41.6286 112.34 41.4986C112.11 41.3686 111.92 41.1786 111.78 40.9186C111.65 40.6686 111.58 40.3686 111.58 40.0286C111.58 39.6886 111.65 39.3886 111.78 39.1386C111.91 38.8886 112.1 38.6986 112.34 38.5586C112.58 38.4286 112.85 38.3586 113.15 38.3586C113.46 38.3586 113.74 38.4286 113.97 38.5586C114.2 38.6886 114.37 38.8686 114.49 39.0886C114.61 39.3086 114.67 39.5486 114.67 39.8086C114.67 39.9186 114.66 40.0186 114.65 40.1086H111.99C111.99 40.3786 112.05 40.6086 112.16 40.7986C112.27 40.9786 112.41 41.1186 112.58 41.2086C112.75 41.2986 112.94 41.3386 113.14 41.3386C113.42 41.3486 113.66 41.2686 113.86 41.1286ZM112.57 38.8386C112.4 38.9286 112.26 39.0586 112.15 39.2386C112.04 39.4186 111.98 39.6386 111.98 39.9086H114.25C114.27 39.6386 114.22 39.4186 114.12 39.2386C114.02 39.0586 113.88 38.9186 113.71 38.8386C113.54 38.7486 113.35 38.7086 113.14 38.7086C112.94 38.7086 112.75 38.7486 112.57 38.8386Z" fill="white"/>
<path d="M117.98 38.5686C118.21 38.6986 118.38 38.8886 118.51 39.1486C118.64 39.3986 118.7 39.6986 118.7 40.0386C118.7 40.3786 118.64 40.6686 118.51 40.9186C118.38 41.1686 118.21 41.3586 117.98 41.4986C117.75 41.6386 117.49 41.6986 117.2 41.6986C116.87 41.6986 116.59 41.6186 116.36 41.4386C116.13 41.2686 115.98 41.0386 115.89 40.7586V43.1786H115.48V38.4086H115.89V39.2986C115.98 39.0186 116.13 38.7886 116.36 38.6186C116.59 38.4486 116.87 38.3586 117.2 38.3586C117.49 38.3686 117.75 38.4286 117.98 38.5686ZM116.47 38.8986C116.29 39.0086 116.15 39.1586 116.04 39.3486C115.94 39.5486 115.89 39.7686 115.89 40.0286C115.89 40.2886 115.94 40.5086 116.04 40.7086C116.14 40.9086 116.29 41.0586 116.47 41.1586C116.65 41.2686 116.86 41.3186 117.09 41.3186C117.46 41.3186 117.75 41.1986 117.96 40.9686C118.17 40.7386 118.28 40.4186 118.28 40.0186C118.28 39.6186 118.17 39.3086 117.96 39.0686C117.75 38.8286 117.45 38.7186 117.09 38.7186C116.86 38.7386 116.65 38.7886 116.47 38.8986Z" fill="white"/>
<path d="M121.51 37.4688V39.9987C121.51 40.4487 121.61 40.7788 121.8 40.9888C121.99 41.1988 122.26 41.2988 122.6 41.2988C122.94 41.2988 123.2 41.1988 123.39 40.9888C123.58 40.7788 123.68 40.4487 123.68 39.9987V37.4688H124.09V39.9987C124.09 40.5687 123.95 40.9888 123.68 41.2688C123.41 41.5488 123.05 41.6888 122.59 41.6888C122.13 41.6888 121.77 41.5488 121.5 41.2688C121.23 40.9888 121.09 40.5687 121.09 39.9987V37.4688H121.51Z" fill="white"/>
<path d="M127.54 38.5686C127.77 38.6986 127.94 38.8886 128.07 39.1486C128.2 39.3986 128.26 39.6986 128.26 40.0386C128.26 40.3786 128.2 40.6686 128.07 40.9186C127.94 41.1686 127.77 41.3586 127.54 41.4986C127.31 41.6386 127.05 41.6986 126.76 41.6986C126.43 41.6986 126.15 41.6186 125.92 41.4386C125.69 41.2686 125.54 41.0386 125.45 40.7586V43.1786H125.04V38.4086H125.45V39.2986C125.54 39.0186 125.69 38.7886 125.92 38.6186C126.15 38.4486 126.43 38.3586 126.76 38.3586C127.05 38.3686 127.31 38.4286 127.54 38.5686ZM126.03 38.8986C125.85 39.0086 125.71 39.1586 125.6 39.3486C125.5 39.5486 125.45 39.7686 125.45 40.0286C125.45 40.2886 125.5 40.5086 125.6 40.7086C125.7 40.9086 125.85 41.0586 126.03 41.1586C126.21 41.2686 126.42 41.3186 126.65 41.3186C127.02 41.3186 127.31 41.1986 127.52 40.9686C127.73 40.7386 127.84 40.4186 127.84 40.0186C127.84 39.6186 127.73 39.3086 127.52 39.0686C127.31 38.8286 127.01 38.7186 126.65 38.7186C126.42 38.7386 126.21 38.7886 126.03 38.8986Z" fill="white"/>
<defs>
<linearGradient id="paint0_linear_253_5783" x1="89.8464" y1="-9.15087" x2="132.578" y2="20.1104" gradientUnits="userSpaceOnUse">
<stop stop-color="#FFD910"/>
<stop offset="1" stop-color="#FFCA10"/>
</linearGradient>
<linearGradient id="paint1_linear_253_5783" x1="99.9535" y1="3.23312" x2="101.302" y2="7.46976" gradientUnits="userSpaceOnUse">
<stop stop-color="#FFD910"/>
<stop offset="1" stop-color="#FFCA10"/>
</linearGradient>
<linearGradient id="paint2_linear_253_5783" x1="99.941" y1="1.37335" x2="101.287" y2="5.61114" gradientUnits="userSpaceOnUse">
<stop stop-color="#FFD910"/>
<stop offset="1" stop-color="#FFCA10"/>
</linearGradient>
<linearGradient id="paint3_linear_253_5783" x1="101.88" y1="-0.577999" x2="103.919" y2="2.04424" gradientUnits="userSpaceOnUse">
<stop stop-color="#FFD910"/>
<stop offset="1" stop-color="#FFCA10"/>
</linearGradient>
</defs>
</svg>
