<svg width="302" height="350" viewBox="0 0 302 350" fill="none" xmlns="http://www.w3.org/2000/svg">
<g opacity="0.5">
<path d="M115.493 290.607C115.608 289.69 115.722 289.003 115.722 288.316C115.722 277.893 115.951 267.356 115.607 256.933C115.264 243.761 110.339 232.422 100.947 223.259C98.8852 221.198 96.8236 219.136 94.5329 217.303C79.185 205.048 70.4803 188.669 66.4716 169.771C61.0884 144.115 64.1807 119.604 77.5814 96.9261C90.524 75.0497 110.11 62.7943 134.849 58.671C160.506 54.4331 184.329 59.3582 205.175 75.2788C222.355 88.3359 231.862 106.318 235.756 127.164C240.566 152.476 237.13 176.529 223.844 198.863C218.804 207.224 212.047 214.096 204.717 220.51C196.355 227.612 189.712 235.858 187.536 246.968C186.849 250.633 186.276 254.299 186.162 258.078C185.933 268.157 186.047 278.237 186.047 288.43C186.047 289.118 186.162 289.805 186.276 290.836C187.536 290.607 188.567 290.492 189.712 290.263C227.967 281.444 258.663 261.743 279.852 228.299C291.306 210.088 297.605 189.929 300.24 168.74C303.561 141.71 301.156 115.252 291.077 89.8248C275.042 49.279 245.835 22.134 204.373 8.84781C165.66 -3.63663 126.603 -3.17852 88.6914 11.9402C40.0136 31.2968 11.3796 67.6048 2.56034 119.261C-2.36471 147.895 -0.303004 176.185 9.77617 203.559C25.2385 245.823 55.3614 272.739 97.6252 286.598C102.55 288.201 107.59 289.232 112.515 290.607C113.546 290.377 114.462 290.377 115.493 290.607Z" fill="#FFF4B6"/>
<path d="M186.162 290.721C162.454 295.303 139.317 295.303 115.837 290.721C115.837 293.47 115.608 295.875 115.952 298.166C116.41 301.144 118.472 302.747 121.45 303.205C141.035 306.298 160.621 306.298 180.207 303.205C183.757 302.633 185.933 300.342 186.162 296.791C186.277 294.959 186.162 293.126 186.162 290.721Z" fill="#FFF4B6"/>
<path d="M186.161 312.025C162.452 316.606 139.201 316.606 115.721 312.025C115.721 314.659 115.492 316.835 115.721 319.011C116.18 322.104 118.241 323.936 121.448 324.509C137.827 327.143 154.206 327.487 170.699 325.769C173.906 325.425 176.998 324.967 180.205 324.509C183.87 323.936 186.047 321.646 186.161 317.866C186.276 316.148 186.161 314.43 186.161 312.025Z" fill="#FFF4B6"/>
<path d="M137.828 336.649C137.828 341.803 140.118 345.468 144.242 347.988C148.938 350.852 153.748 350.623 158.215 347.53C161.88 345.01 163.942 341.46 163.827 336.649C155.237 336.649 146.762 336.649 137.828 336.649Z" fill="#FFF4B6"/>
</g>
</svg>
