<svg width="311" height="315" viewBox="0 0 311 315" fill="none" xmlns="http://www.w3.org/2000/svg">
<mask id="mask0_496_637" style="mask-type:alpha" maskUnits="userSpaceOnUse" x="0" y="0" width="311" height="315">
<rect width="311" height="315" fill="white"/>
</mask>
<g mask="url(#mask0_496_637)">
<g opacity="0.5">
<path d="M279.845 261.111C279.947 260.295 280.049 259.683 280.049 259.071C280.049 249.79 280.253 240.406 279.947 231.125C279.641 219.396 275.256 209.298 266.892 201.139C265.056 199.303 263.22 197.467 261.181 195.835C247.513 184.922 239.762 170.337 236.192 153.508C231.399 130.662 234.152 108.835 246.085 88.6404C257.611 69.1597 275.051 58.2464 297.082 54.5746C319.928 50.8009 341.143 55.1866 359.706 69.3637C375.005 80.9909 383.47 97.0038 386.938 115.567C391.222 138.107 388.162 159.526 376.331 179.414C371.843 186.86 365.825 192.979 359.298 198.691C351.852 205.015 345.937 212.358 343.999 222.251C343.387 225.515 342.877 228.779 342.775 232.145C342.571 241.12 342.673 250.096 342.673 259.173C342.673 259.785 342.775 260.397 342.877 261.315C343.999 261.111 344.917 261.009 345.937 260.805C380.003 252.951 407.337 235.409 426.205 205.627C436.405 189.41 442.014 171.459 444.36 152.59C447.318 128.52 445.176 104.959 436.201 82.3167C421.922 46.2112 395.913 22.0388 358.992 10.2076C324.518 -0.909661 289.739 -0.501722 255.979 12.9614C212.632 30.1982 187.133 62.5301 179.28 108.529C174.894 134.027 176.73 159.22 185.706 183.596C199.475 221.231 226.299 245.2 263.934 257.541C268.32 258.969 272.808 259.887 277.193 261.111C278.111 260.907 278.927 260.907 279.845 261.111Z" fill="#FFF4B6"/>
<path d="M342.776 261.213C321.663 265.292 301.061 265.292 280.152 261.213C280.152 263.661 279.948 265.802 280.254 267.842C280.662 270.494 282.498 271.922 285.15 272.33C302.59 275.084 320.031 275.084 337.472 272.33C340.634 271.82 342.572 269.78 342.776 266.618C342.878 264.986 342.776 263.355 342.776 261.213Z" fill="#FFF4B6"/>
<path d="M342.775 280.183C321.662 284.263 300.957 284.263 280.049 280.183C280.049 282.529 279.845 284.467 280.049 286.405C280.457 289.159 282.293 290.791 285.148 291.301C299.733 293.646 314.318 293.952 329.005 292.423C331.861 292.117 334.615 291.709 337.471 291.301C340.735 290.791 342.673 288.751 342.775 285.385C342.877 283.855 342.775 282.325 342.775 280.183Z" fill="#FFF4B6"/>
<path d="M299.734 302.111C299.734 306.701 301.774 309.965 305.446 312.209C309.627 314.758 313.911 314.554 317.889 311.801C321.153 309.557 322.989 306.395 322.887 302.111C315.237 302.111 307.69 302.111 299.734 302.111Z" fill="#FFF4B6"/>
</g>
</g>
</svg>
