<svg version="1.2" xmlns="http://www.w3.org/2000/svg" viewBox="0 0 842 595" width="842" height="595">
	<title>Vector Smart Object-ai</title>
	<defs>
		<linearGradient id="g1" x2="1" gradientUnits="userSpaceOnUse" gradientTransform="matrix(13.828,-50.962,41.681,11.31,459.821,568.602)">
			<stop offset="0" stop-color="#f6eaba"/>
			<stop offset="1" stop-color="#cdc5a8"/>
		</linearGradient>
		<linearGradient id="g2" x2="1" gradientUnits="userSpaceOnUse" gradientTransform="matrix(16.404,-60.456,88.791,24.092,412.716,555.801)">
			<stop offset="0" stop-color="#ef4b31"/>
			<stop offset="1" stop-color="#af2225"/>
		</linearGradient>
		<linearGradient id="g3" x2="1" gradientUnits="userSpaceOnUse" gradientTransform="matrix(10.117,-37.285,35.784,9.71,336.098,547.407)">
			<stop offset="0" stop-color="#3d8092"/>
			<stop offset="1" stop-color="#223e7b"/>
		</linearGradient>
		<linearGradient id="g4" x2="1" gradientUnits="userSpaceOnUse" gradientTransform="matrix(9.353,-34.471,9.071,2.461,450.604,558.205)">
			<stop offset="0" stop-color="#3d8092"/>
			<stop offset="1" stop-color="#223e7b"/>
		</linearGradient>
		<linearGradient id="g5" x2="1" gradientUnits="userSpaceOnUse" gradientTransform="matrix(9.728,-35.851,10.134,2.75,458.307,563.926)">
			<stop offset="0" stop-color="#3d8092"/>
			<stop offset="1" stop-color="#223e7b"/>
		</linearGradient>
		<linearGradient id="g6" x2="1" gradientUnits="userSpaceOnUse" gradientTransform="matrix(23.906,46.116,-37.642,19.513,314.81,521.624)">
			<stop offset="0" stop-color="#cdc5a8"/>
			<stop offset="1" stop-color="#fefaea"/>
		</linearGradient>
		<linearGradient id="g7" x2="1" gradientUnits="userSpaceOnUse" gradientTransform="matrix(25.135,48.486,-84.695,43.906,360.252,494.124)">
			<stop offset="0" stop-color="#ef4b31"/>
			<stop offset="1" stop-color="#af2225"/>
		</linearGradient>
		<linearGradient id="g8" x2="1" gradientUnits="userSpaceOnUse" gradientTransform="matrix(17.702,34.147,-31.716,16.442,442.418,506.881)">
			<stop offset="0" stop-color="#3d8092"/>
			<stop offset="1" stop-color="#223e7b"/>
		</linearGradient>
		<linearGradient id="g9" x2="1" gradientUnits="userSpaceOnUse" gradientTransform="matrix(16.484,31.798,-7.491,3.883,331.449,527.346)">
			<stop offset="0" stop-color="#3d8092"/>
			<stop offset="1" stop-color="#223e7b"/>
		</linearGradient>
		<linearGradient id="g10" x2="1" gradientUnits="userSpaceOnUse" gradientTransform="matrix(17.23,33.237,-7.253,3.76,323.161,532.027)">
			<stop offset="0" stop-color="#3d8092"/>
			<stop offset="1" stop-color="#223e7b"/>
		</linearGradient>
		<linearGradient id="g11" x2="1" gradientUnits="userSpaceOnUse" gradientTransform="matrix(-0.757,32.958,-103.192,-2.37,415.462,372.972)">
			<stop offset=".149" stop-color="#1c687e"/>
			<stop offset=".491" stop-color="#073f5f"/>
			<stop offset=".98" stop-color="#050505"/>
		</linearGradient>
		<radialGradient id="g12" cx="0" cy="0" r="1" gradientUnits="userSpaceOnUse" gradientTransform="matrix(64.192,1.475,-1.475,64.192,388.266,295.922)">
			<stop offset=".149" stop-color="#8b8d90"/>
			<stop offset=".48" stop-color="#111212"/>
			<stop offset=".98" stop-color="#050505"/>
		</radialGradient>
		<radialGradient id="g13" cx="0" cy="0" r="1" gradientUnits="userSpaceOnUse" gradientTransform="matrix(128.251,2.946,-2.946,128.251,405.063,221.606)">
			<stop offset=".285" stop-color="#1c687e"/>
			<stop offset=".422" stop-color="#0d3b59"/>
			<stop offset=".589" stop-color="#0a2949"/>
			<stop offset="1" stop-color="#050505"/>
		</radialGradient>
		<radialGradient id="g14" cx="0" cy="0" r="1" gradientUnits="userSpaceOnUse" gradientTransform="matrix(80.626,1.852,-1.852,80.626,347.975,256.314)">
			<stop offset=".285" stop-color="#fefefe"/>
			<stop offset="1" stop-color="#050505"/>
		</radialGradient>
		<radialGradient id="g15" cx="0" cy="0" r="1" gradientUnits="userSpaceOnUse" gradientTransform="matrix(80.619,1.852,-1.852,80.619,347.98,256.318)">
			<stop offset=".285" stop-color="#fefefe"/>
			<stop offset="1" stop-color="#050505"/>
		</radialGradient>
	</defs>
	<style>
		.s0 { mix-blend-mode: multiply;fill: #848071 } 
		.s1 { mix-blend-mode: multiply;fill: #eaeced } 
		.s2 { fill: url(#g1) } 
		.s3 { fill: url(#g2) } 
		.s4 { fill: #cdc5a8 } 
		.s5 { fill: url(#g3) } 
		.s6 { mix-blend-mode: multiply;fill: #d9d9da } 
		.s7 { fill: #faf6dd } 
		.s8 { fill: #eaeced } 
		.s9 { fill: #fefefe } 
		.s10 { opacity: .5;mix-blend-mode: screen;fill: #eaeced } 
		.s11 { fill: url(#g4) } 
		.s12 { fill: url(#g5) } 
		.s13 { fill: url(#g6) } 
		.s14 { fill: url(#g7) } 
		.s15 { fill: url(#g8) } 
		.s16 { fill: url(#g9) } 
		.s17 { fill: url(#g10) } 
		.s18 { fill: #ed3635 } 
		.s19 { fill: #ec2024 } 
		.s20 { fill: #d9d9da } 
		.s21 { mix-blend-mode: screen;fill: #faf6dd } 
		.s22 { fill: #fefaea } 
		.s23 { opacity: .7;mix-blend-mode: screen;fill: #eaeced } 
		.s24 { mix-blend-mode: screen;fill: #eaeced } 
		.s25 { fill: #b1b2b4 } 
		.s26 { fill: #ed2b2c } 
		.s27 { mix-blend-mode: multiply;fill: #c7c7c8 } 
		.s28 { fill: url(#g11) } 
		.s29 { mix-blend-mode: screen;fill: #6c6c6f } 
		.s30 { fill: #abacad } 
		.s31 { fill: #535557 } 
		.s32 { mix-blend-mode: multiply;fill: #727475 } 
		.s33 { mix-blend-mode: screen;fill: #727475 } 
		.s34 { opacity: .5;mix-blend-mode: multiply;fill: #d9d9da } 
		.s35 { mix-blend-mode: multiply;fill: #c8c9cb } 
		.s36 { fill: #27416f } 
		.s37 { fill: #fefdf6 } 
		.s38 { fill: #928f85 } 
		.s39 { fill: url(#g12) } 
		.s40 { mix-blend-mode: multiply;fill: url(#g13) } 
		.s41 { mix-blend-mode: screen;fill: url(#g14) } 
		.s42 { mix-blend-mode: screen;fill: url(#g15) } 
	</style>
	<g id="Layer 5">
		<g id="&lt;Group&gt;">
			<path id="&lt;Compound Path&gt;" class="s0" d="m449.9 501c-7-1.7-15.7-0.7-21.3 4.2-8.4 7.3-6.5 21.5-2.1 30.3 2.7 5.3 6.2 9.6 10.9 13.3 2.1 1.7 4.4 3.2 6.7 4.7q2.4 1.9 4.8 3.8c4.1 3.2 8.6 5.9 13.1 8.5 7.2 4.4 15.1 8.5 23.6 9.3 15.6 1.3 25.3-15.7 22.3-29.5-1.5-7.1-6.1-13.1-11.4-18-3.2-2.9-6.8-5.3-10.4-7.7-4.4-2.9-8.7-5.9-13.2-8.6-7.1-4.2-14.9-8.3-23-10.3z"/>
			<path id="&lt;Path&gt;" class="s1" d="m457.9 521.5c-2.1-8.4-6.8-16-14.4-20.6q-0.5-0.3-1-0.6c-5.1 0.1-10.2 1.7-13.9 4.9-8.4 7.3-6.5 21.5-2.1 30.3 2.7 5.3 6.2 9.6 10.9 13.3q1.6 1.3 3.3 2.4c12.7-3.7 20.5-15.9 17.2-29.7z"/>
			<path id="&lt;Path&gt;" class="s2" d="m467.3 544.7c-2.9 6.5-5.5 14-5.2 21.2 7.2 4.3 15.1 8.4 23.5 9.2 15.6 1.3 25.3-15.7 22.3-29.5-1.5-7.1-6.1-13.1-11.4-18-2.4-2.1-5-4-7.6-5.8-9.3 5.4-17 12.5-21.6 22.9z"/>
			<path id="&lt;Path&gt;" class="s3" d="m449.9 501c-7-1.7-15.7-0.7-21.3 4.2q-2 1.7-3.2 3.9c4.2-4 10.2-6.1 16.8-5.9 12.9 0.4 25.1 8.8 35 16.4 11.2 8.6 20.9 20 20.6 35.1-0.1 6.3-1.9 14.3-7.9 17.6-3 1.6-6.3 1.9-9.7 1.8q2.7 0.7 5.4 1c15.6 1.3 25.3-15.7 22.3-29.5-1.5-7.1-6.1-13.1-11.4-18-3.2-2.9-6.8-5.3-10.4-7.7-4.4-2.9-8.7-5.9-13.2-8.6-7.1-4.2-14.9-8.3-23-10.3z"/>
			<path id="&lt;Path&gt;" class="s4" d="m453.7 526.3c-0.3-6.1-2-12.4-6.5-16.7-1.8-1.6-3.7-2.9-5.8-4q-0.6-0.1-1.3-0.2c-45.8-5.6-48-1.3-60.4-13.4-12.4-12.1-35-18.9-41.6-17.1-21.1 5.7-34.1 20.5-34.1 20.5 0 0-5.9 9-3.1 13.3 2.8 4.2 38.1 42.5 65.3 46.6 21.8 3.3 60.3-3.2 74.6-5.9 8.7-3.6 13.3-13.3 12.9-23.1z"/>
			<path id="&lt;Path&gt;" class="s5" d="m377.4 536.8c2.5-9-1.3-20-11.8-21.3-13.8-1.6-28 14-27.4 27.9 9.5 5.9 19.3 10.6 28 11.9q0 0 0.1 0c5-5.2 9.2-11.7 11.1-18.5z"/>
			<path id="&lt;Path&gt;" class="s6" d="m369.9 541.3c1.7-6.3-0.9-13.9-8.2-14.8-9.6-1.1-19.4 9.7-19 19.3 6.6 4.1 13.4 7.4 19.4 8.3q0 0 0.1 0c3.4-3.6 6.4-8.1 7.7-12.8z"/>
			<path id="&lt;Path&gt;" class="s7" d="m340.6 508.6c7.4-10.3 17.6-14.1 30.1-18.2-11-11-27.4-17-32.6-15.5-21.1 5.7-34.1 20.5-34.1 20.5 0 0-5.9 9-3.1 13.3 1.6 2.4 12 17 28.7 28.9-0.2-10.3 5.2-21 11-29z"/>
			<path id="&lt;Path&gt;" class="s8" d="m404.7 534c1.8-7.1 1.7-14.7-0.4-21.8-1-3-2.4-7.4-4.6-10.7-6.1-0.7-9.8-1.7-13.5-4.1 1.9 11.3-0.6 23.7-3.9 34-2.6 7.8-7 18.9-14.5 24.1 5.6 0.7 12.2 0.9 19.1 0.6 9.1-4 15.3-11.8 17.8-22.1z"/>
			<path id="&lt;Path&gt;" class="s9" d="m388.4 527.8c2.1-9.7 2.2-20.7-1.6-30q-0.3-0.2-0.6-0.4c1.9 11.3-0.6 23.7-3.9 34-2.6 7.8-7 18.9-14.5 24.1q3.2 0.4 6.8 0.6c7.6-6.9 11.7-19 13.8-28.3z"/>
			<path id="&lt;Path&gt;" class="s4" d="m379.7 492c-12.4-12.1-35-18.9-41.6-17.1-21.1 5.7-35.7 20.6-35.7 20.6 0 0-4.2 3.3-5.3 7.6q1-2.2 2.6-4.2c3.9-4.7 8.8-8.6 14.1-11.7 4.4-2.5 9.9-5.7 15.2-5.3 9 0.7 16.2 9.8 22.2 15.7 8.1 8 17.6 16.4 28.2 20.7 10.5 4.3 22.2 4.1 33.3 3.3 5.4-0.4 10.9-0.9 16.3-1.4 4.4-0.3 9-1.3 13.3-0.8 7.2 0.6 10.3 4.9 11.3 10.3q0.1-1.7 0.1-3.4c-0.3-6.1-2-12.4-6.5-16.7-1.8-1.6-3.7-2.9-5.8-4q-0.6-0.1-1.3-0.2c-45.8-5.6-48-1.3-60.4-13.4z"/>
			<path id="&lt;Path&gt;" class="s10" d="m300.7 506.4c0 0 41.9 42.5 64 46.1 22.2 3.6 74.6-5.9 74.6-5.9 0 0-58.2 6.7-78.1 1.1-19.8-5.7-51-50.8-51-50.8z"/>
			<path id="&lt;Path&gt;" class="s11" d="m468.4 528.6q-0.2 0.3-0.4 0.6c-12.5 16-10.8 27.3-10.8 27.4 0.2 1.3-0.6 2.5-1.9 2.7-1.2 0.2-2.4-0.7-2.6-1.9-0.1-0.6-2.1-13.5 11.7-31 0.8-1 2.2-1.2 3.2-0.4 0.8 0.6 1.1 1.7 0.8 2.6z"/>
			<path id="&lt;Path&gt;" class="s12" d="m477.5 533.2q-0.1 0.4-0.4 0.7c-13.9 16.1-12.4 28.3-12.3 28.5 0.1 1.2-0.7 2.4-2 2.6-1.2 0.1-2.4-0.7-2.6-2-0.1-0.6-1.8-14.5 13.4-32.1 0.9-0.9 2.3-1 3.3-0.2 0.7 0.6 0.9 1.7 0.6 2.5z"/>
		</g>
		<g id="&lt;Group&gt;">
			<path id="&lt;Compound Path&gt;" class="s0" d="m321.6 515c-4.4 2.9-8.6 6.2-12.9 9.2-3.5 2.5-7 5.1-10.1 8.2-5 5-9.3 11.3-10.6 18.5-2.4 13.8 8 30.4 23.5 28.4 8.5-1.1 16.2-5.6 23.3-10.2 4.3-2.9 8.7-5.7 12.7-9.1q2.3-2 4.6-4c2.2-1.6 4.4-3.2 6.5-5 4.5-3.9 7.8-8.3 10.3-13.8 4.1-9 5.3-23.2-3.4-30.1-5.8-4.7-14.5-5.3-21.5-3.3-8 2.3-15.5 6.7-22.4 11.2z"/>
			<path id="&lt;Path&gt;" class="s1" d="m337 524.6c1.7-8.5 6.1-16.3 13.4-21.2q0.5-0.4 1.1-0.7c5 0 10.1 1.3 14 4.4 8.7 6.9 7.5 21.1 3.4 30.1-2.5 5.5-5.8 9.9-10.3 13.8q-1.5 1.3-3.2 2.5c-12.8-3.1-21.2-14.9-18.4-28.9z"/>
			<path id="&lt;Path&gt;" class="s13" d="m328.6 548.2c3.2 6.3 6 13.7 6.1 20.9-7.1 4.6-14.7 9.1-23.2 10.2-15.5 2-25.9-14.6-23.5-28.4 1.3-7.2 5.6-13.5 10.6-18.5 2.3-2.3 4.8-4.3 7.4-6.2 9.5 5.1 17.5 11.8 22.6 22z"/>
			<path id="&lt;Path&gt;" class="s14" d="m344 503.8c7-2 15.7-1.4 21.5 3.3q2.1 1.6 3.4 3.7c-4.4-3.8-10.5-5.6-17-5.1-12.9 0.9-24.7 9.8-34.3 17.8-10.8 9.1-20.1 20.9-19.1 35.9 0.4 6.3 2.5 14.2 8.7 17.3 3.1 1.5 6.4 1.7 9.7 1.4q-2.6 0.8-5.4 1.2c-15.5 2-25.9-14.6-23.5-28.4 1.3-7.2 5.6-13.5 10.6-18.5 3.1-3.1 6.6-5.7 10.1-8.2 4.3-3 8.5-6.3 12.9-9.2 6.9-4.5 14.4-8.9 22.4-11.2z"/>
			<path id="&lt;Path&gt;" class="s4" d="m341.4 529.2c0-6.1 1.4-12.4 5.7-16.9 1.7-1.8 3.6-3.2 5.7-4.3q0.6-0.2 1.2-0.3c45.5-7.5 48-3.3 59.8-15.9 11.9-12.6 38.2-17.6 44.9-16.1 21.3 4.8 34.1 15.1 34.1 15.1 0 0 6.7 10.6 4.1 14.9-2.7 4.4-39.9 43.4-66.9 48.7-21.6 4.3-60.3-0.5-74.8-2.6-8.8-3.3-13.8-12.7-13.8-22.6z"/>
			<path id="&lt;Path&gt;" class="s15" d="m418 536.5c-2.8-8.9 0.5-20.1 10.9-21.8 13.7-2.3 28.6 12.8 28.5 26.6-9.2 6.3-18.8 11.5-27.4 13.1q0 0.1-0.1 0.1c-5.2-5.1-9.7-11.3-11.9-18z"/>
			<path id="&lt;Path&gt;" class="s6" d="m425.7 540.6c-1.9-6.2 0.3-13.9 7.6-15.1 9.5-1.6 19.8 8.9 19.8 18.5-6.4 4.3-13.1 7.9-19 9.1q-0.1 0-0.1 0c-3.6-3.5-6.8-7.8-8.3-12.5z"/>
			<path id="&lt;Path&gt;" class="s7" d="m453.6 506.7c-7.9-10-18.9-20.2-31.5-23.8 10.5-11.4 37.9-9.2 43.1-8 21.3 4.8 27.6 15.9 27.6 15.9 0 0 6.7 10.6 4.1 14.9-1.6 2.6-14.9 16.9-31.1 29.5-0.3-10.3-6.1-20.7-12.2-28.5z"/>
			<path id="&lt;Path&gt;" class="s8" d="m390.6 534.8c-2-7-2.3-14.6-0.5-21.8 0.9-3.1 2.1-7.5 4.1-10.9 6.1-1 9.8-2.1 13.4-4.6-1.4 11.3 1.5 23.6 5.3 33.8 2.9 7.7 7.8 18.5 15.5 23.4-5.6 1-12.1 1.4-19.1 1.4-9.2-3.6-15.7-11.1-18.7-21.3z"/>
			<path id="&lt;Path&gt;" class="s9" d="m406.7 527.9c-2.6-9.6-3.1-20.6 0.3-30q0.3-0.2 0.6-0.4c-1.4 11.3 1.5 23.6 5.3 33.8 2.9 7.7 7.8 18.5 15.5 23.4q-3.2 0.6-6.7 0.9c-8-6.5-12.6-18.5-15-27.7z"/>
			<path id="&lt;Path&gt;" class="s4" d="m413.3 488.6c11.9-12.6 38.9-17.8 45.6-16.3 21.3 4.8 33.9 18.5 33.9 18.5 0 0 2.7 4.3 4 8.5q-1.1-2.1-2.8-4.1c-4-4.5-9.2-8.1-14.5-11-4.5-2.4-10.2-5.3-15.5-4.6-8.9 1-15.7 10.4-21.5 16.6-7.7 8.2-16.8 17.1-27.3 21.9-10.2 4.7-22 5-33.1 4.7-5.4-0.2-10.9-0.5-16.4-0.7-4.3-0.2-9-0.9-13.3-0.3-7.1 1-10 5.4-10.8 10.8q-0.2-1.7-0.2-3.4c0-6.1 1.4-12.4 5.7-16.9 1.7-1.8 3.6-3.2 5.7-4.3q0.6-0.2 1.2-0.3c45.5-7.5 47.5-6.5 59.3-19.1z"/>
			<path id="&lt;Path&gt;" class="s10" d="m493.3 502.8c0 0-39.9 44.3-62 48.8-22 4.5-74.7-2.7-74.7-2.7 0 0 58.4 4.2 78-2.3 19.7-6.5 48.8-52.9 48.8-52.9z"/>
			<path id="&lt;Path&gt;" class="s16" d="m326.8 532.1q0.1 0.3 0.4 0.6c13.2 15.4 12 26.8 11.9 27-0.1 1.2 0.8 2.4 2 2.5 1.3 0.2 2.4-0.7 2.6-2 0.1-0.5 1.5-13.5-13.1-30.4-0.8-1-2.2-1.1-3.2-0.3-0.8 0.7-1 1.7-0.6 2.6z"/>
			<path id="&lt;Path&gt;" class="s17" d="m317.9 537.1q0.1 0.4 0.4 0.7c14.6 15.5 13.6 27.8 13.5 27.9-0.1 1.3 0.8 2.4 2.1 2.5 1.2 0.1 2.4-0.8 2.5-2 0.1-0.6 1.2-14.6-14.8-31.5-0.8-0.9-2.3-1-3.2-0.1-0.7 0.7-0.9 1.7-0.5 2.5z"/>
		</g>
	</g>
	<g id="Layer 2">
		<g id="&lt;Group&gt;">
			<g id="&lt;Group&gt;">
				<path id="&lt;Path&gt;" class="s8" d="m322 362.3c0 0-25.2 42.9-26.1 82.4 0 0-0.2 16.7 8.2 17.3 8.3 0.6 22.4-2.5 26.2-19.3 3.9-17.3 17.1-44.6 27.9-59.6z"/>
				<path id="&lt;Path&gt;" class="s18" d="m315.4 430.9c-5.2 0.1-9.7 1.8-13.7 5.1-1.7 1.5-4 3.8-5.7 6.3q0 1.2-0.1 2.4c0 0-0.2 16.7 8.2 17.3 8.3 0.6 22.4-2.5 26.2-19.3q0.5-2.3 1.2-4.9c-4.3-4.2-10.1-6.9-16.1-6.9z"/>
				<path id="&lt;Path&gt;" class="s4" d="m317.1 408.7c1.5-4.8 3.6-9.4 5.9-13.9-3.4-5.6-6.1-11.7-8.5-17.9-6.8 14.4-16 37.5-18.1 60.4 5.2-3.5 10.8-5.9 16.8-8.1 0.5-6.9 1.8-13.9 3.9-20.5z"/>
				<path id="&lt;Path&gt;" class="s19" d="m339.6 416.4q0.6-1.2 1.1-2.4c-9.4-9.1-21.3-15.7-33.7-19.3q-0.9 2.2-1.7 4.5c12.6 2.3 24.8 8.7 34.3 17.2z"/>
				<path id="&lt;Path&gt;" class="s4" d="m322 362.3c0 0-2.2 3.8-5.3 10.1 1.1 6.8 3.5 13.4 7.3 19.1 2.3 3.3 5.8 7.3 6.4 11.4 0.6 3.9-11.3 33-11.3 44.7 0 3.7 0.2 7.3 0.4 10.9 4.8-2.8 9-7.7 10.8-15.8 3.9-17.3 17.1-44.6 27.9-59.6z"/>
				<path id="&lt;Path&gt;" class="s20" d="m303.4 489.4c2.5-3.2 6-6 9.8-7.4 4.1-1.6 8.9-2.9 13.3-1.6 2 0.7 3.7 2 5.4 3.3 0.2-13.9-1.7-38.9-1.7-38.9 0 0-5.8-13.9-20-8.8 0 0-12.8 3.1-13.6 15.7-0.6 8.5 1.7 26.9 5.7 39.2q0.6-0.8 1.1-1.5z"/>
				<path id="&lt;Path&gt;" class="s21" d="m303.4 489.4c2.5-3.2 6-6 9.8-7.4 4.1-1.6 8.9-2.9 13.3-1.6 2 0.7 3.7 2 5.4 3.3 0.2-13.9-1.7-38.9-1.7-38.9 0 0-5.8-13.9-20-8.8 0 0-12.8 3.1-13.6 15.7-0.6 8.5 1.7 26.9 5.7 39.2q0.6-0.8 1.1-1.5z"/>
				<path id="&lt;Path&gt;" class="s4" d="m330.2 444.8c0 0-3.6-8.6-12.1-9.8q0.4 0.3 0.8 0.6c3.9 3.3 5.6 7.3 5.9 12.2 0.4 7.9 1.6 29.7 2 32.8 1.9 0.7 3.5 1.9 5.1 3.1 0.2-13.9-1.7-38.9-1.7-38.9z"/>
				<path id="&lt;Path&gt;" class="s22" d="m313.2 482q1.7-0.7 3.6-1.2l-1.6-40.7c0 0-2.2-2.4-9 0.5 0 0-8.8 3.4-8.7 15.5 0 9.9 3.4 24.8 6.1 33.1 2.5-3.1 5.9-5.8 9.6-7.2z"/>
				<path id="&lt;Path&gt;" class="s8" d="m331.9 482.6c-5.8-3.2-10-6.2-17.8-2.4-3.7 1.8-7.3 4.3-10.3 7.2-3.5 3.5-4.6 7.9-5.8 12.6-1.3 5.1-2.4 10.5-1.5 15.7 0.5 3.1 1.7 6.1 3.2 8.9 0.9 1.8 2.5 5.6 4.9 5.7 1.2 0 1.8-0.7 2-1.8q0.8 1.1 1.6 2c1.6 1.9 3.9 2.3 5.7 0.5 0.5-0.4 0.7-0.9 0.8-1.5 0.6 0.6 1.3 1.2 2 1.5 3.3 1.5 5.1-0.3 4.4-3.6-0.7-3.6-2.4-6.3-4.1-9.5-0.9-1.5-1.2-3.1-1.3-4.7q0.1 0.4 0.3 0.9c2 4.4 5.7 11.1 10.9 12 4.8 1 4-5.5 2.8-8-1.5-3.4-4-6.3-5.7-9.7-1.3-2.6-2.7-5.7-2.6-8.7 0-2.2 1.5-7.5 4.5-4.4 1 0.9 1.5 2.3 1.8 3.6 0.7 2.9-0.7 11.7 3.6 12.3 2.2 0.4 3.7-2.1 4.4-3.8 2.2-5 1.6-11.2 0.3-16.3-0.7-2.6-2.7-6-4.1-8.5z"/>
				<path id="&lt;Path&gt;" class="s23" d="m305.9 496.9c2.7-1.8 5.6-3.3 8.7-4.2 0-2.1 0.3-4.3 0.4-6 0.2-2.3 0.7-4.6 1.6-6.7q-1 0.4-2.1 0.9c-3.7 1.8-7.3 4.3-10.2 7.2-3.6 3.5-4.7 7.9-5.9 12.6q-0.5 1.6-0.8 3.3c2.4-2.9 5.6-5.4 8.3-7.1z"/>
				<path id="&lt;Path&gt;" class="s22" d="m352.6 339.7c0 0-22.2 5.4-34.7 17.7-12.5 12.3 24.8 56.4 35.8 40.9 11-15.5 3.7-60-1.1-58.6z"/>
				<path id="&lt;Path&gt;" class="s24" d="m329.2 351.2c0 0-12.6 4.2-12.2 14.7 0.5 10.5 11.5 22.4 18.5 28.5 0 0-14.7-15-15.6-25.4-0.9-10.3 9.3-17.8 9.3-17.8z"/>
				<path id="&lt;Path&gt;" class="s25" d="m313.2 498.9c0-0.1-0.2 0-0.2 0.1-0.1 6.4 0.8 12.5 4.4 17.9 0 0 0.1-0.1 0.1-0.1-2.7-5.5-4-11.8-4.3-17.9z"/>
				<path id="&lt;Path&gt;" class="s25" d="m315.4 529.7c-6.6-7.6-10.3-17.8-9.3-27.9 0-0.1-0.1 0-0.1 0.1-2.2 9 1.8 22.1 9.2 28 0.1 0.1 0.3-0.1 0.2-0.2z"/>
				<path id="&lt;Path&gt;" class="s1" d="m336 491.1c-0.7-2.6-2.7-6-4.1-8.5-5.8-3.2-10-6.2-17.8-2.4q0 0-0.1 0c4.7-1.2 11.2-2.6 12.7 2.8 0.5 2 0.4 6.9-2.3 7.4-5.8 1.3-6.4 10-4.3 14.6 1.6 3.7 2.3 5.3 3.9 10.5 0.7 2.2-1.3 4.4-3.6 2.9-2.6-1.7-4.1-4.8-5.2-7.6-1.2-3.3-1.8-7.1-2.2-10.6-0.8 4.6-0.2 9.9 1.4 14.2 0.7 2 3 6.8 1.2 8.8-2.3 2.6-5.6-1.9-6.5-3.6-2.2-4.4-2.7-8.9-3.2-13.6-0.7 4.8-0.3 9.7 1.9 14.3 0.4 0.8 3.4 6.5 0.4 6.5-3.3-0.1-5.7-5.6-6.7-8.2-1.4-3.4-2.1-7-2.4-10.7-0.5 4-0.1 8.1 1.3 11.9 0.8 2.3 2.6 4.6 2.5 7.1-0.1 0.8-0.6 1.2-1.2 1.3 0.8 1.1 1.7 2 2.9 2.1 1.2 0 1.8-0.7 2-1.8q0.8 1.1 1.6 2c1.6 1.9 3.9 2.3 5.7 0.5 0.5-0.4 0.7-0.9 0.8-1.5 0.6 0.6 1.3 1.2 2 1.5 3.3 1.5 5.1-0.3 4.4-3.6-0.7-3.6-2.4-6.3-4.1-9.5-0.9-1.5-1.2-3.1-1.3-4.7q0.1 0.4 0.3 0.9c2 4.4 5.7 11.1 10.9 12 4.8 1 4-5.5 2.8-8-1.5-3.4-4-6.3-5.7-9.7-1.3-2.6-2.7-5.7-2.6-8.7 0-2.2 1.5-7.5 4.5-4.4 1 0.9 1.5 2.3 1.8 3.6 0.7 2.9-0.7 11.7 3.6 12.3 2.2 0.4 3.7-2.1 4.4-3.8 2.2-5 1.6-11.2 0.3-16.3z"/>
			</g>
			<path id="&lt;Path&gt;" class="s25" d="m301.6 519c-1.1-3-2-6.3-2.3-9.6 0.1 2.3 0.6 4.7 0.9 6.6q0.1 0.8 0.3 1.7c1.4 4 3.6 7.7 6.3 11 0 0 0.1-0.1 0.1-0.2-1.7-3.2-3.9-6-5.3-9.5z"/>
		</g>
	</g>
	<g id="Layer 3">
		<g id="&lt;Group&gt;">
			<g id="&lt;Group&gt;">
				<path id="&lt;Path&gt;" class="s22" d="m492.2 368.4c0 0 20.8 45.2 17.8 84.6 0 0-1.4 16.7-9.8 16.4-8.4-0.2-22.1-4.7-24.2-21.8-2.2-17.6-12.6-46.1-21.9-62.1z"/>
				<path id="&lt;Path&gt;" class="s26" d="m492 437.4c5.1 0.5 9.5 2.7 13.1 6.4 1.5 1.6 3.6 4.1 5 6.8q-0.1 1.2-0.1 2.4c0 0-1.4 16.7-9.8 16.4-8.4-0.2-22.1-4.7-24.2-21.8q-0.3-2.4-0.8-5c4.8-3.7 10.8-5.8 16.8-5.2z"/>
				<path id="&lt;Path&gt;" class="s4" d="m492.5 415.1c-1.1-5-2.7-9.7-4.6-14.4 4-5.3 7.3-11.1 10.3-17 5.3 15 12.2 38.9 12.1 61.9-4.9-4-10.3-7-16-9.7 0.2-7-0.4-14-1.8-20.8z"/>
				<path id="&lt;Path&gt;" class="s26" d="m469.3 420.5q-0.4-1.2-0.9-2.4c10.3-8.2 22.8-13.6 35.6-16q0.6 2.3 1.1 4.7c-12.7 1.1-25.5 6.2-35.8 13.7z"/>
				<path id="&lt;Path&gt;" class="s4" d="m492.2 368.4c0 0 1.8 4 4.3 10.6-1.8 6.7-4.8 13-9.2 18.2-2.6 3.2-6.4 6.7-7.5 10.8-1 3.9 8 34 6.8 45.6-0.3 3.6-0.9 7.2-1.5 10.8-4.4-3.3-8.1-8.6-9.1-16.8-2.2-17.6-12.6-46.1-21.9-62.1z"/>
				<path id="&lt;Path&gt;" class="s20" d="m498.1 496.7c-2.2-3.4-5.4-6.5-9-8.3-3.9-2-8.6-3.8-13-2.9-2.2 0.5-4 1.6-5.8 2.8 1.2-13.9 5.6-38.6 5.6-38.6 0 0 7.1-13.2 20.7-6.8 0 0 12.5 4.4 12.1 17-0.3 8.5-4.4 26.6-9.6 38.5q-0.5-0.9-1-1.7z"/>
				<path id="&lt;Path&gt;" class="s20" d="m498.1 496.7c-2.2-3.4-5.4-6.5-9-8.3-3.9-2-8.6-3.8-13-2.9-2.2 0.5-4 1.6-5.8 2.8 1.2-13.9 5.6-38.6 5.6-38.6 0 0 7.1-13.2 20.7-6.8 0 0 12.5 4.4 12.1 17-0.3 8.5-4.4 26.6-9.6 38.5q-0.5-0.9-1-1.7z"/>
				<path id="&lt;Path&gt;" class="s4" d="m475.9 449.7c0 0 4.4-8.2 13-8.5q-0.5 0.2-0.9 0.5c-4.1 2.8-6.3 6.7-7.1 11.6-1.2 7.7-4.5 29.3-5.2 32.3-2 0.5-3.7 1.6-5.4 2.7 1.2-13.9 5.6-38.6 5.6-38.6z"/>
				<path id="&lt;Path&gt;" class="s8" d="m489.1 488.4q-1.7-0.9-3.5-1.6l5.6-40.3c0 0 2.5-2.2 9 1.4 0 0 8.3 4.2 7.1 16.3-1 9.8-5.8 24.4-9.3 32.3-2.2-3.3-5.3-6.4-8.9-8.1z"/>
				<path id="&lt;Path&gt;" class="s8" d="m470.4 487.2c6.1-2.6 10.6-5.3 18-0.7 3.5 2.2 6.8 5 9.5 8.2 3.2 3.8 3.8 8.3 4.6 13.1 0.8 5.2 1.3 10.7-0.1 15.8-0.8 3.1-2.3 5.9-4.1 8.5-1.1 1.7-3 5.3-5.5 5.2-1.1-0.1-1.6-0.9-1.8-1.9q-0.8 0.9-1.7 1.8c-1.8 1.6-4.1 1.9-5.8-0.1-0.4-0.5-0.6-1-0.6-1.6-0.7 0.6-1.5 1-2.2 1.3-3.4 1.2-5-0.8-4-4 1.1-3.5 3.1-6.1 5.1-9 1-1.4 1.5-3 1.8-4.6q-0.3 0.4-0.5 0.9c-2.4 4.2-6.8 10.4-12 10.9-4.9 0.4-3.4-5.9-2.1-8.3 1.9-3.2 4.7-5.9 6.7-9.1 1.6-2.5 3.3-5.4 3.5-8.4 0.1-2.2-0.8-7.6-4.1-4.9-1 0.9-1.7 2.3-2.1 3.5-1 2.8-0.5 11.7-4.8 11.9-2.2 0.1-3.5-2.5-4.1-4.3-1.6-5.2-0.4-11.2 1.4-16.2 1-2.5 3.3-5.7 4.9-8z"/>
				<path id="&lt;Path&gt;" class="s23" d="m494.9 503.9c-2.5-2-5.2-3.8-8.3-5 0.3-2.1 0.2-4.3 0.2-6 0.1-2.3-0.2-4.6-0.9-6.8q1 0.4 2 1.1c3.5 2.1 6.8 5 9.5 8.1 3.2 3.9 3.9 8.4 4.6 13.2q0.2 1.7 0.4 3.4c-2.1-3.2-5-6-7.5-8z"/>
				<path id="&lt;Path&gt;" class="s22" d="m464 342.9c0 0 21.5 7.5 32.7 21 11.3 13.5-30.2 53.7-39.6 37.2-9.4-16.5 2.2-60 6.9-58.2z"/>
				<path id="&lt;Path&gt;" class="s24" d="m486.2 356.6c0 0 12.1 5.5 10.6 15.9-1.5 10.4-13.6 21.2-21.2 26.5 0 0 16.1-13.5 18-23.7 1.9-10.2-7.4-18.7-7.4-18.7z"/>
				<path id="&lt;Path&gt;" class="s25" d="m487.4 505.2c0-0.1 0.2 0.1 0.2 0.2-0.5 6.3-2.1 12.3-6.1 17.3-0.1 0-0.1 0-0.1-0.1 3.2-5.2 5.2-11.4 6-17.4z"/>
				<path id="&lt;Path&gt;" class="s25" d="m482.2 535.6c7.3-6.9 12-16.6 12-26.8 0-0.1 0.1 0 0.1 0.1 1.3 9.2-4 21.9-11.9 27-0.1 0.1-0.4-0.2-0.2-0.3z"/>
				<path id="&lt;Path&gt;" class="s1" d="m465.5 495.2c1-2.5 3.3-5.7 4.9-8 6.1-2.6 10.6-5.3 18-0.7q0 0 0.1 0.1c-4.6-1.7-10.9-3.8-12.9 1.5-0.7 1.9-1.1 6.7 1.6 7.6 5.5 1.8 5.2 10.6 2.8 15-2 3.4-2.9 5-5 10-0.9 2.1 0.9 4.5 3.3 3.2 2.8-1.4 4.5-4.3 5.9-7.1 1.6-3.1 2.6-6.8 3.3-10.3 0.4 4.7-0.8 9.9-2.8 14-0.9 2-3.7 6.5-2 8.7 2 2.8 5.7-1.4 6.7-3 2.7-4.2 3.6-8.6 4.5-13.2 0.3 4.9-0.6 9.7-3.3 14.1-0.4 0.7-4 6.1-1 6.3 3.3 0.3 6.3-4.9 7.5-7.4 1.7-3.3 2.8-6.8 3.5-10.4 0 4-0.8 8.1-2.5 11.7-1 2.2-3.1 4.3-3.2 6.8 0 0.8 0.5 1.3 1.1 1.4-0.9 1.1-2 1.9-3.2 1.8-1.1-0.1-1.6-0.9-1.8-1.9q-0.8 0.9-1.7 1.8c-1.8 1.6-4.1 1.9-5.8-0.1-0.4-0.5-0.6-1-0.6-1.6-0.7 0.6-1.5 1-2.2 1.3-3.4 1.2-5-0.8-4-4 1.1-3.5 3.1-6.1 5.1-9 1-1.4 1.5-3 1.8-4.6q-0.3 0.4-0.5 0.9c-2.4 4.2-6.8 10.4-12 10.9-4.9 0.4-3.4-5.9-2.1-8.3 1.9-3.2 4.7-5.9 6.7-9.1 1.6-2.5 3.3-5.4 3.5-8.4 0.1-2.2-0.8-7.6-4.1-4.9-1 0.9-1.7 2.3-2.1 3.5-1 2.8-0.5 11.7-4.8 11.9-2.2 0.1-3.5-2.5-4.1-4.3-1.6-5.2-0.4-11.2 1.4-16.2z"/>
			</g>
			<path id="&lt;Path&gt;" class="s25" d="m497 526.4c1.4-2.9 2.5-6.1 3.2-9.3-0.3 2.3-1 4.5-1.5 6.4q-0.3 0.9-0.5 1.6c-1.8 3.9-4.4 7.4-7.3 10.4-0.1 0-0.2-0.1-0.2-0.2 2-3.1 4.5-5.6 6.3-8.9z"/>
		</g>
	</g>
	<g id="Layer 4">
		<path id="&lt;Path&gt;" class="s8" d="m339.3 456.4c0 0-5.2 6.4-5.3 17.2 0 10.7 55.5 32.3 69.8 35.5 14.4 3.2 65.3-24.1 65.2-35.3-0.2-11.2-1.8-15.9-8.5-16.3-6.8-0.4-121.2-1.1-121.2-1.1z"/>
		<path id="&lt;Path&gt;" class="s4" d="m469.2 349c-4.5-13.2-49.1-14.5-49.1-14.5h-14.7l-14.7-0.7c0 0-44.6-0.7-49.7 12.3-5.2 13-7 107.3-1.4 115.2 3.8 5.5 24.4 12.5 47.1 16 5.1 0.8 9.8 0.9 14.9 1.3 5.1-0.2 10.8 0 15.9-0.6 22.8-2.5 43.7-8.5 47.8-13.8 5.9-7.7 8.5-102 3.9-115.2z"/>
		<path id="&lt;Path&gt;" class="s22" d="m465.7 348.2c-4.3-12.5-46.4-13.7-46.4-13.7h-13.9l-13.9-0.7c0 0-42.1-0.6-47 11.6-4.8 12.3-6.5 101.4-1.3 108.9 3.6 5.2 23.1 11.7 44.5 15.1 4.8 0.7 9.3 0.8 14.1 1.2 4.9-0.1 10.2 0 15.1-0.5 21.5-2.4 41.3-8.1 45.1-13.1 5.6-7.3 8-96.3 3.7-108.8z"/>
		<path id="&lt;Path&gt;" class="s4" d="m439 372l-9.6-0.2-50.7-1.2-9.5-0.2c-9.5-0.2-11.2 7.1-12.5 12.9l-0.8 33.7-0.6 26.4v1h0.2c1 5.6 2.7 12.2 11.7 12.4l9.6 0.2 50.7 1.2 9.5 0.2c9 0.2 11-6.3 12.3-11.9h0.2v-0.9l0.6-26.5 0.8-33.7c-1-5.8-2.4-13.2-11.9-13.4z"/>
		<path id="&lt;Path&gt;" class="s7" d="m437.4 373.4l-9-0.3-47.7-1.1-9-0.2c-9-0.2-10.6 6.7-11.8 12.1l-0.7 31.8-0.6 24.8v0.9h0.2c0.9 5.4 2.6 11.6 11 11.7l9 0.3 47.7 1 9 0.3c8.4 0.1 10.3-6 11.5-11.2h0.2v-0.9l0.6-24.9 0.7-31.7c-0.9-5.5-2.2-12.4-11.1-12.6z"/>
		<g id="&lt;Group&gt;">
			<path id="&lt;Path&gt;" class="s27" d="m438.8 427h-2.1l-11-0.3h-2.1c-2.1-0.1-2.4 1.5-2.7 2.8l-0.2 7.3-0.1 5.8v0.2c0.3 1.2 0.6 2.7 2.6 2.7l2.1 0.1 11 0.2 2.1 0.1c1.9 0 2.4-1.4 2.7-2.6v-0.2l0.1-5.8 0.2-7.3c-0.2-1.3-0.5-2.9-2.6-3z"/>
			<path id="&lt;Path&gt;" class="s8" d="m437.8 427.9h-1.8l-9.6-0.2-1.8-0.1c-1.8 0-2.1 1.4-2.3 2.5l-0.2 6.3-0.1 5v0.2c0.2 1 0.6 2.3 2.2 2.3h1.8l9.6 0.3h1.8c1.7 0 2.1-1.2 2.3-2.2v-0.2l0.2-5 0.1-6.3c-0.2-1.1-0.4-2.5-2.2-2.6z"/>
			<path id="&lt;Path&gt;" class="s24" d="m436.4 429.1h-1.4l-7.6-0.2h-1.5c-1.4-0.1-1.6 0.3-1.8 0.6l-0.1 1.9v1.4 0.1c0.2 0.3 0.5 0.6 1.8 0.7h1.5l7.6 0.2h1.4c1.3 0 1.6-0.3 1.8-0.6v-0.1l0.1-1.4v-1.8c-0.2-0.4-0.4-0.8-1.8-0.8z"/>
			<path id="&lt;Path&gt;" class="s24" d="m437.3 379.6l-4.1-0.1-21.5-0.5-4-0.1c-0.9 0-3.6-0.1-4.5-0.1l-4.1-0.1-21.5-0.5-4-0.1c-4 0-4.7 1.9-5.3 3.5l-0.2 9.2-0.1 7.3v0.2c0.5 1.6 1.2 3.4 5 3.5l4.1 0.1 21.5 0.5 4 0.1c1 0 3.6 0 4.5 0.1l4.1 0.1 21.5 0.4 4 0.1c3.8 0.1 4.7-1.6 5.2-3.2h0.1v-0.2l0.1-7.3 0.2-9.2c-0.4-1.6-1-3.6-5-3.7z"/>
			<path id="&lt;Path&gt;" class="s27" d="m416.4 426.5h-2l-11.1-0.3h-2.1c-2-0.1-2.4 1.5-2.7 2.8l-0.1 7.3-0.2 5.8v0.2h0.1c0.2 1.2 0.6 2.7 2.5 2.7h2.1l11 0.3h2.1c2 0.1 2.4-1.3 2.7-2.5v-0.3l0.2-5.7 0.1-7.3c-0.2-1.3-0.5-2.9-2.6-3z"/>
			<path id="&lt;Path&gt;" class="s8" d="m415.4 427.4h-1.8l-9.6-0.2-1.8-0.1c-1.7 0-2.1 1.3-2.3 2.4l-0.1 6.4-0.2 5v0.1h0.1c0.2 1.1 0.5 2.3 2.2 2.4h1.8l9.5 0.2 1.8 0.1c1.7 0 2.1-1.2 2.3-2.2h0.1v-0.2l0.1-5 0.1-6.4c-0.2-1.1-0.4-2.4-2.2-2.5z"/>
			<path id="&lt;Path&gt;" class="s24" d="m414 428.6h-1.4l-7.6-0.2h-1.4c-1.5-0.1-1.7 0.3-1.9 0.6v1.9l-0.1 1.4v0.1h0.1c0.1 0.3 0.4 0.6 1.7 0.7h1.5l7.6 0.2h1.4c1.4 0 1.7-0.3 1.8-0.6h0.1v-0.1-1.4-1.9c-0.1-0.3-0.4-0.7-1.8-0.7z"/>
			<g id="&lt;Group&gt;">
				<path id="&lt;Path&gt;" class="s20" d="m413 414.5c0 2.6-2.2 4.6-4.7 4.5-2.6 0-4.6-2.2-4.6-4.7 0.1-2.6 2.2-4.6 4.8-4.6 2.5 0.1 4.6 2.2 4.5 4.8z"/>
				<path id="&lt;Path&gt;" class="s20" d="m425.9 414.8c-0.1 2.6-2.2 4.6-4.8 4.5-2.5 0-4.6-2.2-4.5-4.7 0-2.6 2.2-4.6 4.7-4.6 2.6 0.1 4.6 2.2 4.6 4.8z"/>
				<path id="&lt;Path&gt;" class="s20" d="m438.8 415.1c-0.1 2.6-2.2 4.6-4.8 4.5-2.6 0-4.6-2.2-4.6-4.7 0.1-2.6 2.2-4.6 4.8-4.6 2.6 0.1 4.6 2.2 4.6 4.8z"/>
			</g>
			<path id="&lt;Path&gt;" class="s20" d="m393.9 445.8l-26.8-0.6 0.9-38.6 26.8 0.6z"/>
			<g id="&lt;Group&gt;">
				<g id="&lt;Group&gt;">
					<path id="&lt;Path&gt;" class="s8" d="m376.9 417.2l-7-0.2 0.1-7 7 0.2z"/>
					<path id="&lt;Path&gt;" class="s8" d="m384.6 417.3l-7-0.1 0.2-7 7 0.1z"/>
					<path id="&lt;Path&gt;" class="s8" d="m392.4 417.5l-7-0.1 0.2-7 7 0.1z"/>
					<path id="&lt;Path&gt;" class="s8" d="m376.7 425.4l-7-0.2 0.1-7 7 0.2z"/>
					<path id="&lt;Path&gt;" class="s8" d="m384.5 425.6l-7.1-0.2 0.2-7 7 0.2z"/>
					<path id="&lt;Path&gt;" class="s8" d="m392.2 425.8l-7-0.2 0.2-7 7 0.2z"/>
				</g>
				<g id="&lt;Group&gt;">
					<path id="&lt;Path&gt;" class="s8" d="m376.5 433.8l-7-0.2 0.1-7 7.1 0.2z"/>
					<path id="&lt;Path&gt;" class="s8" d="m384.3 434l-7-0.2 0.1-7 7 0.2z"/>
					<path id="&lt;Path&gt;" class="s8" d="m392 434.2l-7-0.2 0.2-7 7 0.1z"/>
					<path id="&lt;Path&gt;" class="s8" d="m376.3 442l-7-0.1 0.1-7 7.1 0.1z"/>
					<path id="&lt;Path&gt;" class="s8" d="m384.1 442.2l-7-0.1 0.1-7.1 7 0.2z"/>
					<path id="&lt;Path&gt;" class="s8" d="m391.9 442.4l-7.1-0.2 0.2-7 7 0.2z"/>
				</g>
			</g>
			<path id="&lt;Path&gt;" class="s28" d="m436.6 382.4h-3.1l-16.3-0.4-3.1-0.1c-0.7 0-2.7 0-3.4-0.1h-3.1l-16.3-0.4-3.1-0.1c-3 0-3.6 1.5-4 2.7l-0.1 7-0.2 5.5v0.2h0.1c0.3 1.1 0.9 2.5 3.8 2.6h3.1l16.3 0.4 3.1 0.1c0.7 0 2.7 0.1 3.4 0.1h3.1l16.3 0.4 3.1 0.1c2.8 0 3.5-1.3 3.9-2.5v-0.2l0.2-5.4 0.1-7c-0.3-1.3-0.8-2.8-3.8-2.9z"/>
			<path id="&lt;Path&gt;" class="s29" d="m410.3 390.8c7 0 14.1-0.3 21-2 2.3-0.6 4.9-1.2 7.3-2.2v-1c-0.3-1.1-0.7-2.6-3.6-2.6l-45.3-1.1c-2.8 0-3.3 1.4-3.7 2.5v1.3c6.4 5.1 16.5 5.1 24.3 5.1z"/>
		</g>
		<path id="&lt;Path&gt;" class="s21" d="m349.8 456.7c0 0-4.3-58.7 0.2-80.1 0 0 1.8-11.2 8.3-13.1 6.5-1.9 38.5 3.2 38.5 3.2l-32.7 0.4c0 0-8.6 0.4-10.6 13.5-2.1 14.3-0.9 13.2-3.7 76.1z"/>
		<path id="&lt;Path&gt;" class="s24" d="m454 459.1c0 0 7-58.5 3.5-80.1 0 0-1.3-11.2-7.7-13.4-6.4-2.2-38.6 1.4-38.6 1.4l32.7 2c0 0 8.5 0.7 9.9 13.9 1.5 14.4 0.3 13.3 0.2 76.2z"/>
	</g>
	<g id="Layer 1">
		<g id="&lt;Group&gt;">
			<g id="&lt;Group&gt;">
				<path id="&lt;Path&gt;" class="s30" d="m846.7-1.5c0 0-2.7 0.4-7.8 1.1-5.1 0.8-12.5 2.2-21.9 4.2-9.4 2.2-20.7 5.2-33.2 9.8-6.2 2.4-12.8 5-19.5 8.3-6.6 3.3-13.5 7.2-20.3 11.7-13.5 9.1-26.7 21.2-37.2 36.6-10.7 15.3-18.4 33.8-23.1 53.7-4.7 20-6.5 41.3-7 63-0.2 10.9-0.1 21.8 0 32.9 0.1 11 0.3 22.1 0 33.3-0.2 5.6-0.5 11.2-1.1 16.9-0.3 2.8-0.7 5.6-1.2 8.4-0.5 2.8-1.3 5.6-2 8.3-0.3 1.4-0.8 2.7-1.2 4.1-0.4 1.4-0.8 2.7-1.3 4.1-1 2.6-1.9 5.3-3.1 7.9-2.2 5.2-5.1 10.1-8.2 14.8-3.2 4.7-6.8 9-10.8 13-1 1-2.1 1.9-3.1 2.9l-1.6 1.4c-0.5 0.4-1.1 0.8-1.6 1.3l-3.3 2.5-3.5 2.4c-4.6 3-9.5 5.6-14.6 7.6-2.5 1.1-5.1 1.9-7.7 2.8-1.3 0.4-2.6 0.7-3.9 1.1-1.3 0.3-2.6 0.7-3.9 0.9-10.5 2.3-21.1 3-31.3 2.4-10.2-0.6-20.1-2.3-29.5-4.8-9.4-2.5-18.3-5.7-26.7-9.4q-3.1-1.4-6.1-2.8c-2-0.9-4-2-6-2.9-2-1.1-3.8-1.9-5.7-2.9q-1.4-0.6-2.7-1.3c-1-0.4-1.9-0.8-2.8-1.2-7.5-3.1-14.9-5.2-22-5.6-7.1-0.4-13.8 0.9-19.2 3.9-5.4 3-9.6 7.3-12.7 11.8-3.2 4.5-5.3 9.2-7 13.6-3.3 8.7-4.6 16.1-5.3 21.1-0.4 2.5-0.6 4.4-0.7 5.7q-0.1 1.9-0.1 1.9l-6.4-0.3q0 0 0-0.5 0.1-0.6 0.1-1.6c0.2-1.4 0.3-3.5 0.7-6.1 0.8-5.3 2.1-13.1 5.7-22.5 1.8-4.7 4.2-9.9 7.7-15 3.6-5 8.5-10.1 15-13.7 6.5-3.6 14.5-5.1 22.5-4.7 8.1 0.5 16.2 2.8 24.1 6.1 1 0.4 2 0.8 3 1.3q1.5 0.7 2.9 1.4 2.9 1.4 5.9 2.9c1.9 0.9 3.8 1.9 5.7 2.9q3 1.3 6 2.7c8.1 3.5 16.7 6.6 25.7 9 9 2.4 18.5 4 28.3 4.6 9.7 0.6 19.7-0.1 29.5-2.2 1.2-0.2 2.4-0.6 3.7-0.9 1.2-0.4 2.4-0.6 3.6-1 2.4-0.8 4.8-1.6 7.2-2.6 4.7-1.9 9.2-4.3 13.5-7.1l3.2-2.2 3.1-2.3c0.5-0.4 1-0.8 1.5-1.2l1.4-1.3c1-0.9 2-1.7 2.9-2.7 3.7-3.6 7-7.7 10-12 2.9-4.4 5.6-8.9 7.6-13.8 1.2-2.4 2-5 3-7.5 0.5-1.2 0.8-2.5 1.2-3.8 0.4-1.3 0.9-2.5 1.2-3.8 2.8-10.4 3.7-21.2 4-32.2 0.3-10.9 0.1-22 0-33.1-0.1-11-0.2-22.1 0-33 0.5-22 2.3-43.8 7.2-64.3 2.4-10.3 5.6-20.3 9.6-29.7 4-9.3 8.8-18.2 14.4-26.2 11.1-16.1 24.9-28.9 39-38.3 7-4.7 14.1-8.7 21-12.1 6.9-3.5 13.7-6.2 20.1-8.6 12.9-4.8 24.4-7.8 34-10 9.6-2.1 17.1-3.5 22.3-4.3 5.2-0.8 8-1.2 8-1.2z"/>
				<path id="&lt;Path&gt;" class="s31" d="m846.8-1.4c0 0-2.8 0.4-7.9 1.2-5 0.8-12.5 2.1-21.9 4.2-9.3 2.1-20.6 5.1-33.1 9.7-6.2 2.4-12.8 5-19.5 8.4-6.7 3.3-13.5 7.1-20.3 11.6-13.5 9.1-26.7 21.3-37.2 36.6-10.7 15.3-18.4 33.8-23 53.7-4.8 19.9-6.6 41.2-7 62.9-0.2 10.9-0.2 21.8 0 32.9 0.1 11 0.3 22.1 0 33.3-0.2 5.6-0.5 11.3-1.2 16.9-0.3 2.8-0.7 5.6-1.2 8.4-0.5 2.9-1.3 5.6-1.9 8.4-0.3 1.4-0.8 2.7-1.2 4.1-0.4 1.3-0.8 2.7-1.3 4-1 2.7-1.9 5.4-3.2 7.9-2.2 5.3-5.1 10.2-8.2 14.9-3.2 4.7-6.8 9-10.8 13-1 1-2.1 1.9-3.1 2.9l-1.6 1.4c-0.5 0.4-1.1 0.8-1.6 1.3l-3.3 2.6-3.5 2.3c-4.7 3-9.6 5.6-14.7 7.7-2.5 1.1-5.1 1.9-7.6 2.7-1.3 0.5-2.7 0.8-4 1.1-1.3 0.4-2.6 0.8-3.9 1-10.5 2.3-21.1 3-31.3 2.4-10.3-0.6-20.2-2.4-29.6-4.9-9.4-2.5-18.3-5.7-26.6-9.3q-3.1-1.4-6.2-2.8c-2-1-4-2-5.9-3-2-1-3.9-1.9-5.7-2.8q-1.4-0.7-2.8-1.4c-0.9-0.4-1.9-0.8-2.8-1.1-7.4-3.2-14.9-5.2-21.9-5.6-7.1-0.4-13.7 0.9-19.1 3.9-5.4 2.9-9.5 7.2-12.7 11.7-3.1 4.5-5.3 9.2-7 13.5-3.3 8.7-4.5 16.1-5.3 21.1-0.3 2.5-0.5 4.4-0.6 5.7q-0.2 1.9-0.2 1.9l-1.7-0.1q0 0 0.1-1.9c0.1-1.3 0.3-3.3 0.7-5.8 0.8-5.1 2-12.6 5.4-21.5 1.7-4.5 3.9-9.3 7.2-13.9 3.2-4.7 7.6-9.1 13.3-12.3 5.6-3.1 12.6-4.5 20-4.1 7.3 0.4 14.9 2.6 22.5 5.7 0.9 0.4 1.9 0.8 2.8 1.2q1.4 0.7 2.8 1.4c1.9 0.9 3.8 1.8 5.8 2.8 1.9 1 3.9 2 5.9 3q3 1.4 6.1 2.8c8.3 3.6 17.1 6.8 26.4 9.2 9.3 2.5 19.1 4.2 29.2 4.8 10.1 0.6 20.5-0.1 30.8-2.3 1.3-0.2 2.6-0.6 3.9-1 1.3-0.3 2.6-0.6 3.8-1 2.6-0.9 5.1-1.7 7.6-2.8 5-1.9 9.8-4.5 14.3-7.5l3.4-2.3 3.3-2.5c0.5-0.4 1.1-0.8 1.6-1.3l1.5-1.3c1-1 2.1-1.9 3.1-2.8 3.9-3.9 7.4-8.2 10.6-12.8 3-4.6 5.9-9.4 8-14.6 1.3-2.5 2.1-5.2 3.1-7.8 0.5-1.3 0.9-2.6 1.3-4 0.4-1.3 0.9-2.6 1.2-4 3-10.8 3.9-22.1 4.2-33.2 0.3-11.2 0.1-22.3 0-33.3-0.1-11.1-0.2-22 0-32.9 0.5-21.8 2.3-43.2 7.1-63.3 4.7-20.1 12.5-38.8 23.2-54.3 10.7-15.5 24.1-27.9 37.7-37 6.9-4.6 13.8-8.5 20.5-11.8 6.8-3.4 13.4-6 19.7-8.4 12.6-4.7 23.9-7.7 33.3-9.8 9.5-2.1 17-3.4 22.1-4.2 5.1-0.8 7.8-1.2 7.8-1.2z"/>
				<path id="&lt;Path&gt;" class="s32" d="m426.9 377.2v0.6l-5.6-0.7v-0.6z"/>
				<path id="&lt;Path&gt;" class="s32" d="m428.3 369.1l-0.2 0.6-5.5-1.1 0.1-0.6z"/>
				<path id="&lt;Path&gt;" class="s32" d="m430.2 361.2l-0.2 0.6-5.4-1.5 0.2-0.7z"/>
				<path id="&lt;Path&gt;" class="s32" d="m432.8 353.5l-0.2 0.6-5.3-2.1 0.2-0.6z"/>
				<path id="&lt;Path&gt;" class="s32" d="m436.1 346.2l-0.3 0.5-5-2.6 0.3-0.6z"/>
				<path id="&lt;Path&gt;" class="s32" d="m440.4 339.4l-0.4 0.5-4.6-3.3 0.4-0.5z"/>
				<path id="&lt;Path&gt;" class="s32" d="m445.6 333.6l-0.5 0.4-3.8-4.1 0.5-0.5z"/>
				<path id="&lt;Path&gt;" class="s32" d="m451.8 329l-0.5 0.3-2.9-4.9 0.6-0.3z"/>
				<path id="&lt;Path&gt;" class="s32" d="m458.9 326l-0.6 0.2-1.6-5.4 0.6-0.2z"/>
				<path id="&lt;Path&gt;" class="s32" d="m466.5 324.7h-0.5l-0.5-5.6 0.7-0.1z"/>
				<path id="&lt;Path&gt;" class="s32" d="m474.4 324.9l-0.6-0.1 0.6-5.6 0.6 0.1z"/>
				<path id="&lt;Path&gt;" class="s32" d="m482.3 326.3l-0.6-0.1 1.3-5.5 0.6 0.1z"/>
				<path id="&lt;Path&gt;" class="s32" d="m490 328.7l-0.6-0.2 1.9-5.3 0.6 0.2z"/>
				<path id="&lt;Path&gt;" class="s32" d="m497.5 331.8l-0.5-0.2 2.3-5.2 0.6 0.3z"/>
				<path id="&lt;Path&gt;" class="s32" d="m504.9 335.5l-0.5-0.3 2.6-5 0.5 0.3z"/>
				<path id="&lt;Path&gt;" class="s32" d="m512.5 339.2l-0.5-0.2 2.4-5.1 0.5 0.2z"/>
				<path id="&lt;Path&gt;" class="s32" d="m520.3 342.7l-0.6-0.3 2.2-5.2 0.6 0.3z"/>
				<path id="&lt;Path&gt;" class="s32" d="m528.2 345.8l-0.6-0.3 2-5.3 0.6 0.3z"/>
				<path id="&lt;Path&gt;" class="s32" d="m536.3 348.5l-0.7-0.2 1.8-5.4 0.5 0.2z"/>
				<path id="&lt;Path&gt;" class="s32" d="m544.4 350.9l-0.6-0.2 1.5-5.5 0.6 0.2z"/>
				<path id="&lt;Path&gt;" class="s32" d="m552.7 352.8l-0.6-0.1 1.1-5.5 0.7 0.1z"/>
				<path id="&lt;Path&gt;" class="s32" d="m561.1 354.3l-0.6-0.1 0.8-5.6 0.6 0.1z"/>
				<path id="&lt;Path&gt;" class="s32" d="m569.6 355.3l-0.6-0.1 0.5-5.6h0.6z"/>
				<path id="&lt;Path&gt;" class="s32" d="m578.2 355.7h-0.7l0.1-5.7 0.7 0.1z"/>
				<path id="&lt;Path&gt;" class="s32" d="m586.7 355.6h-0.6l-0.3-5.6 0.6-0.1z"/>
				<path id="&lt;Path&gt;" class="s32" d="m595.3 354.8l-0.7 0.1-0.7-5.6 0.6-0.1z"/>
				<path id="&lt;Path&gt;" class="s32" d="m603.7 353.3l-0.6 0.2-1.1-5.6 0.6-0.1z"/>
				<path id="&lt;Path&gt;" class="s32" d="m612.1 351.2c0 0-0.2 0.1-0.3 0.1-0.2 0.1-0.3 0.1-0.3 0.1l-1.7-5.4c0 0 0.2 0 0.3-0.1 0.2 0 0.3-0.1 0.3-0.1z"/>
				<path id="&lt;Path&gt;" class="s32" d="m620.2 348.3l-0.6 0.2-2.1-5.2 0.5-0.3z"/>
				<path id="&lt;Path&gt;" class="s32" d="m628 344.6l-0.6 0.3-2.6-5 0.6-0.3z"/>
				<path id="&lt;Path&gt;" class="s32" d="m635.4 340.1l-0.5 0.4-3.1-4.7 0.5-0.3z"/>
				<path id="&lt;Path&gt;" class="s32" d="m642.4 335l-0.5 0.4-3.6-4.4 0.5-0.4z"/>
				<path id="&lt;Path&gt;" class="s32" d="m648.7 329.1l-0.4 0.5-4-4 0.4-0.5z"/>
				<path id="&lt;Path&gt;" class="s32" d="m654.4 322.6l-0.4 0.5-4.4-3.5 0.4-0.5z"/>
				<path id="&lt;Path&gt;" class="s32" d="m659.5 315.6l-0.4 0.5-4.7-3.1 0.3-0.5z"/>
				<path id="&lt;Path&gt;" class="s32" d="m663.8 308.1l-0.3 0.6-5-2.7 0.3-0.5z"/>
				<path id="&lt;Path&gt;" class="s32" d="m667.5 300.3l-0.3 0.6-5.2-2.2 0.3-0.5z"/>
				<path id="&lt;Path&gt;" class="s32" d="m670.4 292.2l-0.2 0.7-5.3-1.8 0.1-0.6z"/>
				<path id="&lt;Path&gt;" class="s32" d="m672.7 284l-0.1 0.6-5.5-1.3 0.1-0.6z"/>
				<path id="&lt;Path&gt;" class="s32" d="m674.5 275.6l-0.1 0.6-5.6-0.9 0.1-0.6z"/>
				<path id="&lt;Path&gt;" class="s32" d="m675.5 267.1l-0.1 0.6-5.6-0.5 0.1-0.6z"/>
				<path id="&lt;Path&gt;" class="s32" d="m676.1 258.6v0.7l-5.7-0.3 0.1-0.7z"/>
				<path id="&lt;Path&gt;" class="s32" d="m676.4 250.2v0.6l-5.7-0.1 0.1-0.7z"/>
				<path id="&lt;Path&gt;" class="s32" d="m676.5 241.7v0.7h-5.6v-0.7z"/>
				<path id="&lt;Path&gt;" class="s32" d="m676.5 233.3v0.7h-5.6l-0.1-0.6z"/>
				<path id="&lt;Path&gt;" class="s32" d="m676.4 225v0.6l-5.6 0.1v-0.7z"/>
				<path id="&lt;Path&gt;" class="s32" d="m676.3 216.6v0.6l-5.6 0.1v-0.7z"/>
				<path id="&lt;Path&gt;" class="s32" d="m676.2 208.2v0.6l-5.6 0.1v-0.6z"/>
				<path id="&lt;Path&gt;" class="s32" d="m676.2 199.9v0.6h-5.6v-0.6z"/>
				<path id="&lt;Path&gt;" class="s32" d="m676.3 191.5v0.7l-5.7-0.1v-0.7z"/>
				<path id="&lt;Path&gt;" class="s32" d="m676.4 183.2v0.6l-5.6-0.1v-0.7z"/>
				<path id="&lt;Path&gt;" class="s32" d="m676.8 174.9l-0.1 0.6-5.6-0.3v-0.6z"/>
				<path id="&lt;Path&gt;" class="s32" d="m677.2 166.6v0.6l-5.6-0.4v-0.6z"/>
				<path id="&lt;Path&gt;" class="s32" d="m677.9 158.3l-0.1 0.6-5.6-0.5 0.1-0.6z"/>
				<path id="&lt;Path&gt;" class="s32" d="m678.8 150l-0.1 0.7-5.6-0.7 0.1-0.6z"/>
				<path id="&lt;Path&gt;" class="s32" d="m679.9 141.8l-0.1 0.6-5.6-0.8 0.1-0.6z"/>
				<path id="&lt;Path&gt;" class="s32" d="m681.3 133.6l-0.2 0.7-5.5-1.1 0.1-0.6z"/>
				<path id="&lt;Path&gt;" class="s32" d="m683 125.6l-0.2 0.6-5.5-1.3 0.2-0.6z"/>
				<path id="&lt;Path&gt;" class="s32" d="m684.9 117.5l-0.1 0.6-5.5-1.4 0.2-0.6z"/>
				<path id="&lt;Path&gt;" class="s32" d="m687.3 109.6l-0.2 0.6-5.4-1.7 0.2-0.6z"/>
				<path id="&lt;Path&gt;" class="s32" d="m690 101.8l-0.2 0.6-5.3-1.9 0.2-0.6z"/>
				<path id="&lt;Path&gt;" class="s32" d="m693.1 94.2l-0.3 0.6-5.2-2.3 0.3-0.5z"/>
				<path id="&lt;Path&gt;" class="s32" d="m696.5 86.7l-0.2 0.6-5.1-2.5 0.3-0.6z"/>
				<path id="&lt;Path&gt;" class="s32" d="m700.4 79.5l-0.3 0.6-4.9-2.8 0.4-0.6z"/>
				<path id="&lt;Path&gt;" class="s32" d="m705.2 71.8l-0.3 0.5-4.7-3.1 0.3-0.5z"/>
				<path id="&lt;Path&gt;" class="s32" d="m710 65.1l-0.4 0.5-4.5-3.4 0.4-0.5z"/>
				<path id="&lt;Path&gt;" class="s32" d="m715.1 58.7l-0.4 0.5-4.3-3.6 0.4-0.5z"/>
				<path id="&lt;Path&gt;" class="s32" d="m720.6 52.7l-0.4 0.4-4.1-3.9 0.5-0.5z"/>
				<path id="&lt;Path&gt;" class="s32" d="m726.5 46.9l-0.4 0.5-3.9-4.2 0.5-0.4z"/>
				<path id="&lt;Path&gt;" class="s32" d="m732.7 41.6l-0.4 0.4-3.6-4.4 0.5-0.4z"/>
				<path id="&lt;Path&gt;" class="s32" d="m739.2 36.5c0 0-0.1 0.1-0.2 0.2-0.2 0.1-0.3 0.2-0.3 0.2l-3.3-4.6c0 0 0.1-0.1 0.2-0.2 0.2 0 0.3-0.1 0.3-0.1z"/>
				<path id="&lt;Path&gt;" class="s32" d="m746 31.9l-0.5 0.3-3.1-4.7 0.5-0.4z"/>
				<path id="&lt;Path&gt;" class="s32" d="m753 27.6l-0.5 0.3-2.9-4.9 0.6-0.3z"/>
				<path id="&lt;Path&gt;" class="s32" d="m760.3 23.6l-0.6 0.3-2.6-5 0.5-0.3z"/>
				<path id="&lt;Path&gt;" class="s32" d="m767.7 19.9l-0.6 0.3-2.4-5.1 0.6-0.3z"/>
				<path id="&lt;Path&gt;" class="s32" d="m775.2 16.6l-0.6 0.2-2.2-5.2 0.6-0.2z"/>
				<path id="&lt;Path&gt;" class="s32" d="m782.9 13.5l-0.6 0.2-2-5.2 0.6-0.3z"/>
				<path id="&lt;Path&gt;" class="s32" d="m790.7 10.8l-0.6 0.2-1.8-5.4 0.6-0.2z"/>
				<path id="&lt;Path&gt;" class="s32" d="m798.6 8.3l-0.6 0.1-1.6-5.4 0.6-0.1z"/>
				<path id="&lt;Path&gt;" class="s32" d="m806.6 6l-0.6 0.2-1.5-5.5 0.6-0.1z"/>
				<path id="&lt;Path&gt;" class="s32" d="m814.6 4l-0.6 0.2-1.3-5.5 0.6-0.2z"/>
				<path id="&lt;Path&gt;" class="s32" d="m822.7 2.2l-0.6 0.1-1.1-5.5 0.6-0.1z"/>
				<path id="&lt;Path&gt;" class="s32" d="m830.9 0.6l-0.6 0.1-1-5.5 0.6-0.1z"/>
				<path id="&lt;Path&gt;" class="s32" d="m839.1-0.8l-0.6 0.1-0.9-5.5 0.6-0.1z"/>
				<path id="&lt;Path&gt;" class="s33" d="m846.2-5.2c0 0-2.7 0.5-7.9 1.2-5.1 0.8-12.6 2.2-22.1 4.3-9.5 2.1-20.9 5.2-33.6 9.8-6.4 2.5-13.1 5.1-19.9 8.5-6.8 3.4-13.8 7.3-20.7 12-13.9 9.3-27.4 21.8-38.2 37.5-5.5 7.9-10.2 16.6-14.2 25.8-3.9 9.2-7 19.1-9.4 29.2-4.9 20.3-6.7 41.9-7.1 63.7-0.3 10.9-0.2 22 0 33 0.1 11.1 0.3 22.1 0 33.2-0.4 11.1-1.2 22.2-4.2 32.8-0.3 1.3-0.8 2.6-1.1 3.9-0.5 1.3-0.8 2.7-1.3 4-1 2.5-1.8 5.1-3 7.6-2.2 5-5 9.7-7.9 14.3-3.1 4.4-6.6 8.6-10.4 12.4-0.9 1-2 1.8-2.9 2.7l-1.5 1.4c-0.5 0.4-1.1 0.8-1.6 1.2l-3.2 2.5-3.3 2.2c-4.4 2.9-9.1 5.4-14 7.3-2.4 1.1-4.9 1.9-7.4 2.7-1.2 0.4-2.5 0.7-3.7 1.1-1.3 0.3-2.5 0.7-3.8 0.9-10.1 2.2-20.4 2.9-30.3 2.3-10-0.6-19.6-2.3-28.8-4.8-9.2-2.4-17.9-5.5-26.1-9.1q-3-1.4-6-2.8c-2-0.9-4-1.9-5.9-2.9q-2.9-1.4-5.8-2.8-1.4-0.7-2.8-1.4c-1-0.5-2-0.8-2.9-1.3-7.7-3.2-15.6-5.4-23.2-5.8-7.7-0.4-15.1 1-21.1 4.3-6 3.4-10.6 8.1-14 12.9-3.4 4.8-5.7 9.8-7.4 14.4-3.5 9.1-4.8 16.7-5.5 21.9-0.8 5.1-0.9 7.9-0.9 7.9h-1.7c0 0 0-0.8 0.1-2.1 0.1-1.4 0.3-3.5 0.7-6.1 0.8-5.2 2.1-12.9 5.6-22.3 1.8-4.6 4.2-9.7 7.7-14.7 3.5-5 8.2-9.9 14.5-13.4 6.4-3.5 14.2-5 22.1-4.6 7.9 0.5 15.9 2.7 23.7 6 1 0.4 2 0.8 3 1.3q1.4 0.7 2.9 1.4 2.9 1.4 5.8 2.9c1.9 0.9 3.8 1.9 5.8 2.9q3 1.3 6 2.7c8.1 3.5 16.8 6.6 25.9 9.1 9 2.4 18.6 4 28.4 4.6 9.8 0.6 19.9-0.1 29.8-2.2 1.3-0.2 2.5-0.6 3.7-0.9 1.2-0.4 2.5-0.7 3.7-1.1 2.4-0.8 4.9-1.5 7.2-2.6 4.8-1.9 9.4-4.3 13.8-7.2l3.2-2.1 3.1-2.4c0.5-0.5 1-0.8 1.5-1.3l1.5-1.3c1-0.9 2-1.7 2.9-2.7 3.7-3.7 7.1-7.7 10.1-12.1 2.9-4.5 5.7-9.1 7.7-14 1.2-2.4 2.1-5 3-7.5 0.5-1.3 0.9-2.6 1.3-3.9 0.3-1.3 0.8-2.5 1.1-3.9 2.9-10.4 3.8-21.3 4.1-32.3 0.3-11 0.1-22.1 0-33.2-0.1-11-0.2-22.1 0-33 0.5-21.9 2.3-43.6 7.1-64.1 2.5-10.2 5.6-20.1 9.6-29.5 4-9.3 8.8-18.1 14.3-26 11-16 24.7-28.7 38.7-38.1 7-4.7 14.1-8.6 20.9-12 6.9-3.5 13.7-6.2 20-8.6 12.9-4.7 24.4-7.8 33.9-9.9 9.5-2.1 17.1-3.5 22.3-4.3 5.1-0.8 7.9-1.2 7.9-1.2z"/>
			</g>
			<g id="&lt;Group&gt;">
				<path id="&lt;Path&gt;" class="s1" d="m344.6 479.7c-0.8-7.8-0.4-15.5-0.1-23.3-3.3 0-5.2 0-5.2 0 0 0-5.2 6.4-5.3 17.2 0 3 4.5 7 11.2 11.1q-0.4-2.5-0.6-5z"/>
				<path id="&lt;Path&gt;" class="s1" d="m460.5 457.5c-0.7 0-2.6-0.1-5.4-0.1q0.1 0.2 0.1 0.4c0.4 4.5 0.7 9.1 0.5 13.7-0.2 5.9-0.9 11.9-1.4 17.8 8.6-5.8 14.7-11.6 14.7-15.5-0.2-11.2-1.8-15.9-8.5-16.3z"/>
				<path id="&lt;Path&gt;" class="s34" d="m405 470.6c-17.7 0.2-35.7-4.3-49.9-15.4-8.9-6.9-14.7-15.4-18.8-24.9 0.4 15.8 1.4 28.3 3.3 31 3.8 5.5 24.4 12.5 47.1 16 5.1 0.8 9.8 0.9 14.9 1.3 5.1-0.2 10.8 0 15.9-0.6 22.8-2.5 43.7-8.5 47.8-13.8 1.6-2 2.9-10 3.9-21-14.8 18.7-40.6 27.3-64.2 27.4z"/>
				<path id="&lt;Path&gt;" class="s35" d="m405.6 359.2c12.5 0 25.2-2.3 37-6.4 6.7-2.3 14.7-5 19.8-10.3-13.7-7.1-42.3-8-42.3-8h-14.7l-14.7-0.7c0 0-26.7-0.4-41.1 5.4 14.2 14.2 36.4 20 56 20z"/>
				<g id="&lt;Group&gt;">
					<g id="&lt;Group&gt;">
						<path id="&lt;Path&gt;" class="s8" d="m364.1 309.5c-0.2 9.5-8.1 17-17.6 16.8-9.5-0.3-17-8.1-16.8-17.6l0.3-12.1c0.2-9.5 8.1-17 17.6-16.8 9.5 0.2 17 8.1 16.8 17.6z"/>
						<path id="&lt;Path&gt;" class="s4" d="m362.4 308.8c-0.2 8.6-7.3 15.3-15.8 15.1-8.6-0.2-15.3-7.2-15.1-15.8l0.2-10.9c0.2-8.5 7.3-15.3 15.8-15.1 8.6 0.2 15.4 7.3 15.2 15.9z"/>
						<g id="&lt;Group&gt;">
							<path id="&lt;Path&gt;" class="s36" d="m342.6 291c0 2-1.6 3.5-3.6 3.5-1.9-0.1-3.4-1.7-3.4-3.6 0.1-2 1.7-3.5 3.6-3.5 1.9 0.1 3.5 1.7 3.4 3.6z"/>
							<path id="&lt;Path&gt;" class="s9" d="m339.5 289.7c-0.1 0.5-0.5 0.9-1 0.9-0.5 0-1-0.4-0.9-0.9 0-0.6 0.4-1 0.9-1 0.6 0 1 0.5 1 1z"/>
							<path id="&lt;Path&gt;" class="s9" d="m337.5 291.7c0 0.2-0.2 0.4-0.4 0.4-0.3 0-0.5-0.2-0.5-0.5 0-0.2 0.2-0.4 0.5-0.4 0.2 0 0.4 0.2 0.4 0.5z"/>
						</g>
						<g id="&lt;Group&gt;">
							<path id="&lt;Path&gt;" class="s36" d="m341.6 305.8c0 1.9-1.6 3.4-3.5 3.4-2 0-3.5-1.6-3.5-3.6 0.1-1.9 1.7-3.5 3.6-3.4 2 0 3.5 1.6 3.4 3.6z"/>
							<path id="&lt;Path&gt;" class="s9" d="m338.5 304.4c0 0.6-0.5 1-1 1-0.5 0-0.9-0.5-0.9-1 0-0.5 0.4-0.9 0.9-0.9 0.6 0 1 0.4 1 0.9z"/>
							<path id="&lt;Path&gt;" class="s9" d="m336.5 306.4c0 0.2-0.2 0.4-0.4 0.4-0.3 0-0.5-0.2-0.5-0.4 0-0.3 0.2-0.5 0.5-0.4 0.2 0 0.4 0.2 0.4 0.4z"/>
						</g>
						<path id="&lt;Path&gt;" class="s35" d="m347.6 279.8q-2.8 0-5.3 0.7c-2.6 7.6-3.2 15.6-2.9 23.5 0.3 4.7 0.4 9.4 0.9 14.1 0.2 2.3 0.4 4.8 0.8 7.1 1.7 0.6 3.5 1 5.4 1.1 9.5 0.2 17.4-7.3 17.6-16.8l0.3-12.1c0.2-9.5-7.3-17.4-16.8-17.6z"/>
					</g>
					<g id="&lt;Group&gt;">
						<path id="&lt;Path&gt;" class="s8" d="m447.8 311.4c-0.2 9.5 7.3 17.3 16.8 17.6 9.5 0.2 17.3-7.3 17.6-16.8l0.2-12.1c0.3-9.5-7.3-17.4-16.8-17.6-9.5-0.2-17.3 7.3-17.5 16.8z"/>
						<path id="&lt;Path&gt;" class="s4" d="m449.5 310.8c-0.2 8.6 6.6 15.7 15.1 15.9 8.6 0.1 15.7-6.6 15.9-15.2l0.2-10.8c0.2-8.6-6.6-15.7-15.1-15.9-8.6-0.2-15.7 6.6-15.9 15.2z"/>
						<g id="&lt;Group&gt;">
							<path id="&lt;Path&gt;" class="s36" d="m470.1 294c-0.1 1.9 1.5 3.5 3.4 3.6 2 0 3.6-1.5 3.6-3.5 0.1-1.9-1.5-3.5-3.4-3.6-2 0-3.6 1.5-3.6 3.5z"/>
							<path id="&lt;Path&gt;" class="s9" d="m473.3 292.8c0 0.5 0.4 0.9 1 1 0.5 0 0.9-0.5 0.9-1 0-0.5-0.4-0.9-0.9-1-0.5 0-1 0.5-1 1z"/>
							<path id="&lt;Path&gt;" class="s9" d="m475.2 294.8c0 0.3 0.2 0.5 0.4 0.5 0.3 0 0.5-0.2 0.5-0.5 0-0.2-0.2-0.4-0.5-0.4-0.2 0-0.4 0.2-0.4 0.4z"/>
						</g>
						<g id="&lt;Group&gt;">
							<path id="&lt;Path&gt;" class="s36" d="m470.4 308.7c0 2 1.5 3.6 3.4 3.6 2 0.1 3.6-1.5 3.6-3.4 0.1-1.9-1.5-3.6-3.4-3.6-1.9 0-3.6 1.5-3.6 3.4z"/>
							<path id="&lt;Path&gt;" class="s9" d="m473.6 307.5c0 0.6 0.4 1 1 1 0.5 0 0.9-0.4 0.9-0.9 0.1-0.5-0.4-1-0.9-1-0.5 0-1 0.4-1 0.9z"/>
							<path id="&lt;Path&gt;" class="s9" d="m475.5 309.6c0 0.2 0.2 0.4 0.4 0.4 0.3 0 0.5-0.1 0.5-0.4 0-0.2-0.2-0.4-0.5-0.4-0.2 0-0.4 0.2-0.4 0.4z"/>
						</g>
						<path id="&lt;Path&gt;" class="s35" d="m465.6 282.5c1.9 0.1 3.7 0.4 5.3 1 2.2 7.6 2.5 15.6 1.8 23.6-0.4 4.7-0.8 9.4-1.5 14-0.4 2.3-0.7 4.7-1.2 7.1-1.7 0.5-3.5 0.8-5.4 0.8-9.5-0.3-17-8.1-16.8-17.6l0.3-12.1c0.2-9.5 8-17 17.5-16.8z"/>
					</g>
					<g id="&lt;Group&gt;">
						<path id="&lt;Path&gt;" class="s37" d="m415.6 230.5q-4-0.6-8.2-0.8-4.2 0-8.2 0.4c-34.8 3.4-55.3 32.2-56 61.7-0.7 33.6 2.8 47.4 33.1 57.7 6.5 2.3 17.5 4.6 28.8 4.4 11.2 0.7 21.3-1.1 27.9-3.1 30.7-8.9 34.9-22.5 35.7-56.1 0.6-29.6-18.5-59.2-53.1-64.2z"/>
						<path id="&lt;Path&gt;" class="s38" d="m346.1 324.5c3.9 11.8 12.5 19 30.2 25 6.5 2.3 17.5 4.6 28.8 4.4 11.2 0.7 21.3-1.1 27.9-3.1 19.2-5.5 28-12.9 32.1-25.9-37.5-14.3-81-13-119-0.4z"/>
						<path id="&lt;Path&gt;" class="s4" d="m352.5 275.4c2.3 0.8 2.9-2.4 3.8-4.2 2.2-4 4.7-7.9 7.5-11.6 5.3-6.6 11.5-12.2 18.9-16.1-1.3-2.7-3.1-5.1-4.9-7.4-15.4 7.5-26.1 21-31.2 36.3 1.9 1.2 3.8 2.3 5.9 3z"/>
						<path id="&lt;Path&gt;" class="s4" d="m450.7 262.6q2.3 4.3 4.3 8.7 0.1 0 0.2-0.1c2.5-1.9 5-3.7 7.5-5.6-3.7-8-9-15.4-15.9-21.3-1.7 1.9-3.4 3.6-5.1 5.4 3.3 4.1 6.5 8.1 9 12.9z"/>
						<path id="&lt;Path&gt;" class="s35" d="m458.5 297.9c-0.7 27.6-24.7 49.5-53.8 48.8-29-0.7-52.1-23.6-51.4-51.2 0.6-27.6 24.7-49.5 53.7-48.8 29.1 0.7 52.1 23.6 51.5 51.2z"/>
						<g id="&lt;Group&gt;">
							<path id="&lt;Path&gt;" class="s39" d="m455.4 294.8c-0.6 25.9-23.3 46.5-50.5 45.8-27.3-0.6-49-22.1-48.4-48.1 0.6-25.9 23.2-46.4 50.5-45.8 27.3 0.6 48.9 22.2 48.4 48.1z"/>
							<path id="&lt;Path&gt;" class="s40" d="m450.5 273.4c2.4 6.3 3.4 13 2.4 20.2-2.2 16.8-15.7 29.7-31.6 33.9-14.5 3.8-32.6 3.2-45.6-5-19.8-12.5-21-36.8-10.7-55.3-5.2 7.3-8.3 15.9-8.5 25.3-0.6 26 21.1 47.5 48.4 48.1 27.2 0.7 49.9-19.9 50.5-45.8 0.1-7.6-1.6-14.9-4.9-21.4z"/>
							<path id="&lt;Path&gt;" class="s41" d="m363.1 302c0.3 2.8 0.8 5.5 1.5 8.2q0.9 3.3 2.3 6.4 3.1 2.9 6.7 5.5c3.8 2.8 7.7 5.5 11.9 7.6-3.9-6.5-6.5-13.9-7.7-21.5-5-1.8-10-3.7-14.7-6.2z"/>
							<path id="&lt;Path&gt;" class="s42" d="m403.6 250.7c-14 1.5-28 8.6-35 21.2-3.9 7.2-5.8 15.4-5.9 23.7 4.4 1.9 9.1 3.4 13.6 4.9q0.4 0.1 0.8 0.3c-0.1-4.3 0.2-8.5 1-12.6 2.1-11.4 7.7-22.1 17.2-29.1 5.2-3.8 11.3-6.8 17.6-8.6-3.1-0.2-6.2-0.2-9.3 0.2z"/>
						</g>
					</g>
				</g>
			</g>
		</g>
	</g>
</svg>