<svg width="24" height="24" viewBox="0 0 24 24" fill="none" xmlns="http://www.w3.org/2000/svg">
<path fill-rule="evenodd" clip-rule="evenodd" d="M2 5.4375C2 4.91973 2.41973 4.5 2.9375 4.5H21.0625C21.5803 4.5 22 4.91973 22 5.4375C22 5.95527 21.5803 6.375 21.0625 6.375H2.9375C2.41973 6.375 2 5.95527 2 5.4375ZM10.75 18.5625C10.75 18.0447 11.1697 17.625 11.6875 17.625H21.0625C21.5803 17.625 22 18.0447 22 18.5625C22 19.0803 21.5803 19.5 21.0625 19.5H11.6875C11.1697 19.5 10.75 19.0803 10.75 18.5625Z" fill="#232038"/>
<path fill-rule="evenodd" clip-rule="evenodd" d="M2 12C2 11.4822 2.41973 11.0625 2.9375 11.0625H21.0625C21.5803 11.0625 22 11.4822 22 12C22 12.5178 21.5803 12.9375 21.0625 12.9375H2.9375C2.41973 12.9375 2 12.5178 2 12Z" fill="#232038"/>
</svg>
