<svg width="78" height="78" viewBox="0 0 78 78" fill="none" xmlns="http://www.w3.org/2000/svg">
<path opacity="0.9" d="M38.9999 0C60.4219 0 77.8671 17.4964 77.8671 39.0226C77.8671 60.5036 60.4219 78 38.9999 78C17.578 78 0.132812 60.5036 0.132812 39.0226C0.132812 17.4964 17.578 0 38.9999 0ZM34.573 23.5166C33.7476 23.5166 32.9598 23.7048 32.2094 24.081C31.2715 24.6078 30.5212 25.4356 30.1085 26.4139C29.8459 27.0912 29.4332 29.123 29.4332 29.1606C29.0205 31.3806 28.7954 34.9928 28.7954 38.9812C28.7954 42.7852 29.0205 46.2431 29.3582 48.5007C29.3957 48.5384 29.8084 51.0593 30.2586 51.9247C31.0839 53.5051 32.6972 54.4834 34.4229 54.4834H34.573C35.6985 54.4457 38.062 53.4674 38.062 53.4298C42.0388 51.7742 49.8797 46.6194 53.0311 43.1954L53.2562 42.9696C53.6689 42.5557 54.1941 41.9161 54.3067 41.7656C54.9069 40.9754 55.2071 39.9971 55.2071 39.0226C55.2071 37.9276 54.8694 36.9117 54.2316 36.0839C54.0816 35.9334 53.5188 35.2938 52.9936 34.767C49.9172 31.4559 41.8887 26.0376 37.6869 24.3821C37.0491 24.1224 35.4359 23.5543 34.573 23.5166Z" fill="white"/>
</svg>
