<svg width="188" height="140" viewBox="0 0 188 140" fill="none" xmlns="http://www.w3.org/2000/svg">
<g opacity="0.08">
<path d="M43.9792 139.413C19.8283 139.413 0.182617 119.767 0.182617 95.6157C0.182617 72.3175 18.4662 53.2084 41.4389 51.8882C41.8366 47.5938 41.5382 35.904 30.3366 19.6426C29.4898 18.4159 29.6435 16.7616 30.6952 15.7099C35.279 11.1261 38.1119 8.23914 40.0946 6.22C42.6896 3.57999 43.874 2.37462 45.6067 0.801407C46.1943 0.268158 46.9355 0 47.6802 0C48.4032 0 49.1235 0.253021 49.7052 0.756348C69.2244 17.741 90.9074 52.8347 87.7702 95.8388C85.9319 121.087 67.5157 139.413 43.9792 139.413ZM47.7101 7.30194C46.8695 8.13051 45.911 9.10692 44.4976 10.5446C42.78 12.2953 40.4233 14.6943 36.8491 18.2805C50.4436 39.2282 47.8758 54.1484 46.7519 56.2882C46.2184 57.3037 45.1244 57.9879 43.9792 57.9879C23.2337 57.9879 6.3545 74.8671 6.3545 95.6157C6.3545 116.362 23.2337 133.241 43.9792 133.241C64.1887 133.241 80.0162 117.323 81.6163 95.3929C85.1423 47.0242 56.3955 15.6195 47.7101 7.30194Z" fill="#8E8E8E"/>
<path d="M189.688 95.8388C187.843 121.084 169.424 139.413 145.894 139.413C121.743 139.413 102.094 119.767 102.094 95.6157C102.094 72.3175 120.38 53.2084 143.356 51.8882C143.754 47.5969 143.452 35.9132 132.248 19.6426C131.401 18.4159 131.555 16.7616 132.607 15.7099C137.172 11.1442 139.999 8.26321 141.982 6.24716C144.589 3.58925 145.779 2.37772 147.521 0.79863C148.108 0.268158 148.853 0 149.594 0C150.318 0 151.038 0.253021 151.619 0.75943C171.139 17.7441 192.822 52.8375 189.688 95.8388ZM149.624 7.30194C148.778 8.13669 147.81 9.11894 146.385 10.5715C144.667 12.3197 142.32 14.7122 138.76 18.2805C152.355 39.2312 149.79 54.1484 148.669 56.2882C148.136 57.3007 147.039 57.9879 145.894 57.9879C125.145 57.9879 108.266 74.8671 108.266 95.6157C108.266 116.362 125.145 133.241 145.894 133.241C166.1 133.241 181.93 117.323 183.534 95.3898C187.056 47.0273 158.31 15.6195 149.624 7.30194Z" fill="#8E8E8E"/>
</g>
</svg>
