<svg width="295" height="422" viewBox="0 0 295 422" fill="none" xmlns="http://www.w3.org/2000/svg">
<g opacity="0.1">
<path d="M43.0427 341.734C43.1975 340.496 43.3521 339.567 43.3521 338.638C43.3521 324.553 43.6618 310.312 43.1974 296.227C42.7331 278.426 36.0773 263.102 23.3847 250.719C20.5985 247.933 17.8124 245.147 14.7166 242.67C-6.02484 226.108 -17.7886 203.973 -23.2062 178.434C-30.4812 143.761 -26.3021 110.637 -8.19203 79.9889C9.29893 50.4245 35.7675 33.8622 69.2016 28.2899C103.874 22.5627 136.07 29.2187 164.241 50.7341C187.459 68.3798 200.307 92.6814 205.569 120.853C212.07 155.061 207.427 187.566 189.471 217.75C182.661 229.049 173.528 238.336 163.622 247.004C152.322 256.601 143.345 267.746 140.404 282.76C139.475 287.713 138.701 292.667 138.546 297.775C138.237 311.396 138.391 325.017 138.391 338.793C138.391 339.722 138.546 340.651 138.701 342.044C140.404 341.734 141.797 341.579 143.345 341.27C195.044 329.351 236.527 302.728 265.162 257.53C280.641 232.919 289.154 205.676 292.714 177.04C297.203 140.511 293.953 104.755 280.331 70.392C258.661 15.5973 219.191 -21.0872 163.158 -39.0426C110.839 -55.9144 58.0569 -55.2953 6.82235 -34.8634C-58.9622 -8.70435 -97.659 40.3633 -109.578 110.172C-116.233 148.869 -113.447 187.102 -99.8259 224.096C-78.9297 281.212 -38.2208 317.587 18.8957 336.317C25.5516 338.484 32.3623 339.877 39.0181 341.734C40.4112 341.424 41.6497 341.424 43.0427 341.734Z" fill="#8E8E8E"/>
<path d="M138.548 341.889C106.507 348.081 75.2396 348.081 43.5082 341.889C43.5082 345.604 43.1986 348.855 43.6629 351.95C44.2821 355.975 47.0682 358.142 51.0927 358.761C77.5613 362.94 104.03 362.94 130.499 358.761C135.297 357.987 138.238 354.891 138.548 350.093C138.702 347.616 138.548 345.14 138.548 341.889Z" fill="#8E8E8E"/>
<path d="M138.546 370.679C106.505 376.871 75.083 376.871 43.3516 370.679C43.3516 374.239 43.042 377.18 43.3516 380.121C43.9707 384.3 46.7569 386.777 51.0909 387.551C73.2255 391.111 95.3601 391.575 117.649 389.254C121.984 388.789 126.163 388.17 130.497 387.551C135.45 386.777 138.391 383.681 138.546 378.573C138.701 376.252 138.546 373.93 138.546 370.679Z" fill="#8E8E8E"/>
<path d="M73.2266 403.957C73.2266 410.923 76.3223 415.876 81.8946 419.281C88.2409 423.151 94.742 422.841 100.779 418.662C105.732 415.257 108.518 410.458 108.363 403.957C96.7543 403.957 85.3 403.957 73.2266 403.957Z" fill="#8E8E8E"/>
</g>
</svg>
